<svg width="500" height="500" viewBox="0 0 500 500" fill="none" xmlns="http://www.w3.org/2000/svg">
<rect x="20" y="20" width="460" height="460" rx="230" fill="#E57697"/>
<path d="M20 250C20 122.975 122.975 20 250 20C377.025 20 480 122.975 480 250H20Z" fill="#E16D8F"/>
<path d="M20 250C20 122.975 122.975 20 250 20C377.025 20 480 122.975 480 250H20Z" fill="url(#paint0_linear)" fill-opacity="0.1"/>
<path fill-rule="evenodd" clip-rule="evenodd" d="M258.5 151L168.246 221.014L216.389 269.157L240.301 245.245L216.23 288.5L156.5 348.125L285 477.039L332 464.5L389.5 433L428 394.5L457.5 351L469.5 318.5L477.347 284.5L361.461 168.613L346.461 158.5L287.461 160.5L283.384 167.826L258.5 151Z" fill="url(#paint1_linear)"/>
<path d="M197.766 199.109C194.672 201.359 193.125 203.891 193.125 206.703C193.125 209.422 195.188 210.781 199.312 210.781C201.094 210.781 203.391 210.266 206.203 209.234H206.344C206.812 209.234 207.047 210.219 207.047 212.188C207.047 214.062 206.859 215.188 206.484 215.562C196.828 222.406 188.672 225.828 182.016 225.828C175.359 225.828 170.531 223.953 167.531 220.203C164.531 216.453 163.031 211.578 163.031 205.578C163.031 199.484 166.359 193.062 173.016 186.312C179.672 179.469 188.625 173.188 199.875 167.469C211.125 161.656 225.047 156.875 241.641 153.125C258.328 149.375 277.031 147.5 297.75 147.5C318.562 147.5 335.953 151.578 349.922 159.734C363.891 167.797 370.875 177.031 370.875 187.438C370.875 197.75 367.219 208.25 359.906 218.938C352.688 229.625 343.594 238.953 332.625 246.922C321.75 254.797 309.656 261.266 296.344 266.328C283.031 271.391 271.125 273.922 260.625 273.922C250.125 273.922 241.969 269.703 236.156 261.266C221.906 283.672 212.25 299 207.188 307.25C202.125 315.406 197.812 322.297 194.25 327.922C190.781 333.453 188.062 337.812 186.094 341C184.219 344.188 183.234 345.828 183.141 345.922C181.172 348.078 179.062 349.156 176.812 349.156L169.922 350.422L166.547 350.141H164.156C158.625 350.141 155.859 348.406 155.859 344.938C155.859 340.531 165.094 323.938 183.562 295.156C202.031 266.375 219.422 240.266 235.734 216.828C252.141 193.391 261.703 180.219 264.422 177.312C267.141 174.406 269.531 172.719 271.594 172.25C273.75 171.688 277.172 171.406 281.859 171.406H288.891C290.109 171.406 290.719 172.391 290.719 174.359C290.719 176.234 290.484 177.547 290.016 178.297C281.766 189.828 266.859 212.609 245.297 246.641C246.047 248.141 247.266 249.078 248.953 249.453C250.734 249.828 252.609 250.016 254.578 250.016H258.656C267.281 250.016 276.609 247.953 286.641 243.828C296.672 239.609 305.484 234.594 313.078 228.781C320.672 222.969 327 216.922 332.062 210.641C337.219 204.266 339.797 198.828 339.797 194.328C339.797 189.828 338.391 185.797 335.578 182.234C332.766 178.672 328.922 175.859 324.047 173.797C314.484 169.766 302.859 167.75 289.172 167.75C275.578 167.75 259.125 171.312 239.812 178.438C220.594 185.469 206.578 192.359 197.766 199.109Z" fill="#F5F5F5"/>
<path fill-rule="evenodd" clip-rule="evenodd" d="M328.205 250C329.7 248.999 331.173 247.973 332.625 246.922C343.594 238.953 352.688 229.625 359.906 218.938C367.219 208.25 370.875 197.75 370.875 187.438C370.875 177.031 363.891 167.797 349.922 159.734C335.953 151.578 318.562 147.5 297.75 147.5C277.031 147.5 258.328 149.375 241.641 153.125C225.047 156.875 211.125 161.656 199.875 167.469C188.625 173.188 179.672 179.469 173.016 186.312C166.359 193.062 163.031 199.484 163.031 205.578C163.031 211.578 164.531 216.453 167.531 220.203C170.531 223.953 175.359 225.828 182.016 225.828C188.672 225.828 196.828 222.406 206.484 215.562C206.859 215.188 207.047 214.062 207.047 212.188C207.047 210.219 206.812 209.234 206.344 209.234H206.203C203.391 210.266 201.094 210.781 199.312 210.781C195.188 210.781 193.125 209.422 193.125 206.703C193.125 203.891 194.672 201.359 197.766 199.109C206.578 192.359 220.594 185.469 239.812 178.438C259.125 171.312 275.578 167.75 289.172 167.75C302.859 167.75 314.484 169.766 324.047 173.797C328.922 175.859 332.766 178.672 335.578 182.234C338.391 185.797 339.797 189.828 339.797 194.328C339.797 198.828 337.219 204.266 332.062 210.641C327 216.922 320.672 222.969 313.078 228.781C305.484 234.594 296.672 239.609 286.641 243.828C277.113 247.746 268.221 249.803 259.962 250H328.205ZM253.602 250H213.119C220.875 238.405 228.413 227.347 235.734 216.828C252.141 193.391 261.703 180.219 264.422 177.312C267.141 174.406 269.531 172.719 271.594 172.25C273.75 171.688 277.172 171.406 281.859 171.406H288.891C290.109 171.406 290.719 172.391 290.719 174.359C290.719 176.234 290.484 177.547 290.016 178.297C281.766 189.828 266.859 212.609 245.297 246.641C246.047 248.141 247.266 249.078 248.953 249.453C250.438 249.766 251.987 249.948 253.602 250Z" fill="#E5E5E5"/>
<rect x="20" y="20" width="460" height="460" rx="230" fill="url(#paint2_linear)"/>
<defs>
<linearGradient id="paint0_linear" x1="250" y1="250" x2="250" y2="128" gradientUnits="userSpaceOnUse">
<stop stop-color="#9A2A4B"/>
<stop offset="1" stop-color="#E57697" stop-opacity="0"/>
</linearGradient>
<linearGradient id="paint1_linear" x1="156.462" y1="184.49" x2="471.375" y2="468.342" gradientUnits="userSpaceOnUse">
<stop stop-color="#D26082"/>
<stop offset="1" stop-color="#D26082" stop-opacity="0"/>
</linearGradient>
<linearGradient id="paint2_linear" x1="20" y1="20" x2="477.01" y2="479.99" gradientUnits="userSpaceOnUse">
<stop stop-color="white" stop-opacity="0.1"/>
<stop offset="1" stop-color="white" stop-opacity="0"/>
</linearGradient>
</defs>
</svg>
