<svg width="411" height="300" viewBox="0 0 411 300" fill="none" xmlns="http://www.w3.org/2000/svg">
<rect width="411" height="300" fill="#E57697"/>
<path d="M119.922 143.703C118.891 144.453 118.375 145.297 118.375 146.234C118.375 147.141 119.062 147.594 120.438 147.594C121.031 147.594 121.797 147.422 122.734 147.078H122.781C122.938 147.078 123.016 147.406 123.016 148.062C123.016 148.688 122.953 149.062 122.828 149.188C119.609 151.469 116.891 152.609 114.672 152.609C112.453 152.609 110.844 151.984 109.844 150.734C108.844 149.484 108.344 147.859 108.344 145.859C108.344 143.828 109.453 141.688 111.672 139.438C113.891 137.156 116.875 135.062 120.625 133.156C124.375 131.219 129.016 129.625 134.547 128.375C140.109 127.125 146.344 126.5 153.25 126.5C160.188 126.5 165.984 127.859 170.641 130.578C175.297 133.266 177.625 136.344 177.625 139.812C177.625 143.25 176.406 146.75 173.969 150.312C171.562 153.875 168.531 156.984 164.875 159.641C161.25 162.266 157.219 164.422 152.781 166.109C148.344 167.797 144.375 168.641 140.875 168.641C137.375 168.641 134.656 167.234 132.719 164.422C127.969 171.891 124.75 177 123.062 179.75C121.375 182.469 119.938 184.766 118.75 186.641C117.594 188.484 116.688 189.938 116.031 191C115.406 192.062 115.078 192.609 115.047 192.641C114.391 193.359 113.688 193.719 112.938 193.719L110.641 194.141L109.516 194.047H108.719C106.875 194.047 105.953 193.469 105.953 192.312C105.953 190.844 109.031 185.312 115.188 175.719C121.344 166.125 127.141 157.422 132.578 149.609C138.047 141.797 141.234 137.406 142.141 136.438C143.047 135.469 143.844 134.906 144.531 134.75C145.25 134.562 146.391 134.469 147.953 134.469H150.297C150.703 134.469 150.906 134.797 150.906 135.453C150.906 136.078 150.828 136.516 150.672 136.766C147.922 140.609 142.953 148.203 135.766 159.547C136.016 160.047 136.422 160.359 136.984 160.484C137.578 160.609 138.203 160.672 138.859 160.672H140.219C143.094 160.672 146.203 159.984 149.547 158.609C152.891 157.203 155.828 155.531 158.359 153.594C160.891 151.656 163 149.641 164.688 147.547C166.406 145.422 167.266 143.609 167.266 142.109C167.266 140.609 166.797 139.266 165.859 138.078C164.922 136.891 163.641 135.953 162.016 135.266C158.828 133.922 154.953 133.25 150.391 133.25C145.859 133.25 140.375 134.438 133.938 136.812C127.531 139.156 122.859 141.453 119.922 143.703ZM178.516 168.453C185.891 160.078 192.172 155.891 197.359 155.891C198.641 155.891 199.688 156.281 200.5 157.062C201.344 157.812 201.766 158.797 201.766 160.016C201.766 161.234 200.891 163.281 199.141 166.156C197.422 169 195.828 171.406 194.359 173.375C193.578 174.375 192.688 174.875 191.688 174.875C190.719 174.875 189.953 174.516 189.391 173.797C188.859 173.078 188.594 172.234 188.594 171.266C188.594 169.109 189.75 166.672 192.062 163.953L191.969 163.859C190.938 163.953 188.375 165.984 184.281 169.953C180.219 173.922 176.75 177.484 173.875 180.641C171.031 183.766 167.938 187.578 164.594 192.078C163.625 193.422 162.797 194.094 162.109 194.094C161.453 194.094 160.578 193.891 159.484 193.484C158.359 193.047 157.688 192.734 157.469 192.547C157.219 192.359 157.094 192.047 157.094 191.609C157.094 191.172 157.219 190.672 157.469 190.109C157.719 189.516 158.188 188.688 158.875 187.625C159.531 186.562 160.531 184.844 161.875 182.469C163.25 180.094 165.375 176.5 168.25 171.688C171.125 166.875 172.844 163.969 173.406 162.969C174.594 160.906 175.562 159.406 176.312 158.469C177.719 156.688 180.094 155.797 183.438 155.797C184.188 155.797 184.562 156.266 184.562 157.203C184.562 158.672 183.203 161.438 180.484 165.5L178.516 168.453ZM227.266 142.531C227.266 144.312 226.438 146.109 224.781 147.922C223.125 149.703 221.391 150.594 219.578 150.594C217.797 150.594 216.906 149.656 216.906 147.781C216.906 145.906 217.688 144.125 219.25 142.438C220.844 140.719 222.594 139.859 224.5 139.859C225.344 139.859 226.016 140.094 226.516 140.562C227.016 141.031 227.266 141.688 227.266 142.531ZM219.672 183.453C219.672 184.391 219.578 185.062 219.391 185.469C217.859 188.594 215.422 191.125 212.078 193.062C208.734 194.969 205.828 195.922 203.359 195.922C200.891 195.922 198.766 195.094 196.984 193.438C195.203 191.781 194.312 190.094 194.312 188.375C194.312 186.656 195.172 184.156 196.891 180.875C198.609 177.594 200.328 174.562 202.047 171.781C203.766 169 204.625 167.5 204.625 167.281C204.625 167.031 204.297 166.562 203.641 165.875C203.016 165.188 202.703 164.688 202.703 164.375C202.703 164.031 203.344 163.172 204.625 161.797C205.938 160.391 207.516 159.016 209.359 157.672C211.234 156.297 212.656 155.609 213.625 155.609C214.625 155.609 215.516 156.047 216.297 156.922C217.078 157.797 217.469 158.594 217.469 159.312C217.469 160.031 213.75 166.797 206.312 179.609C206.219 179.797 205.953 180.219 205.516 180.875C205.109 181.5 204.781 182.031 204.531 182.469C204.312 182.875 204.047 183.375 203.734 183.969C203.109 185.219 202.797 186.266 202.797 187.109C202.797 188.172 203.516 188.703 204.953 188.703C206.391 188.703 207.875 188.219 209.406 187.25C210.969 186.25 212.312 185.156 213.438 183.969C216.375 180.812 218.047 179.234 218.453 179.234C219.266 179.234 219.672 180.641 219.672 183.453ZM221.406 184.625L221.359 185.375C221.359 186.156 221.656 186.828 222.25 187.391C222.844 187.953 223.391 188.234 223.891 188.234C227.641 188.234 230.953 187.672 233.828 186.547C236.734 185.422 238.188 184.297 238.188 183.172C238.188 182.641 237.656 182.188 236.594 181.812C235.562 181.406 233.797 180.922 231.297 180.359C228.828 179.766 227.031 179.312 225.906 179C224.781 178.656 223.891 178.344 223.234 178.062C222.578 177.781 221.906 177.391 221.219 176.891C219.75 175.859 219.016 174.328 219.016 172.297C219.016 170.234 219.766 168.203 221.266 166.203C222.797 164.172 224.703 162.438 226.984 161C229.266 159.562 231.719 158.297 234.344 157.203C239.531 155.047 243.891 153.969 247.422 153.969C250.891 153.969 253.031 154.719 253.844 156.219C254.094 156.75 254.219 157.344 254.219 158V158.328C254.219 159.984 253.859 161.281 253.141 162.219C252.453 163.156 251.344 164 249.812 164.75C248.312 165.5 247.109 165.875 246.203 165.875C245.328 165.875 244.766 165.812 244.516 165.688C244.297 165.562 244.109 165.406 243.953 165.219C243.797 165 243.594 164.844 243.344 164.75C243.125 164.656 243.016 164.422 243.016 164.047C243.016 163.672 243.172 163.297 243.484 162.922C243.797 162.516 244.016 162.094 244.141 161.656C242.078 161.75 239.922 162.234 237.672 163.109C235.422 163.953 233.484 164.906 231.859 165.969C230.266 167.031 228.938 168.047 227.875 169.016C226.812 169.984 226.281 170.703 226.281 171.172C226.281 171.609 227 171.969 228.438 172.25C234.906 173.531 239.156 174.641 241.188 175.578C243.219 176.516 244.625 177.578 245.406 178.766C246.188 179.953 246.578 181.031 246.578 182C246.578 184 245.781 185.891 244.188 187.672C242.594 189.453 240.625 190.906 238.281 192.031C233.25 194.5 228.859 195.734 225.109 195.734C221.391 195.734 218.812 195.156 217.375 194C215.969 192.875 215.266 191.531 215.266 189.969C215.266 188.406 215.656 186.969 216.438 185.656C217.25 184.312 218.281 183.641 219.531 183.641C220.781 183.641 221.406 183.969 221.406 184.625ZM251.594 194.281L249.297 194.188H248.453C248.141 194.094 247.812 193.906 247.469 193.625C247.094 193.344 246.812 193.141 246.625 193.016C246.438 192.891 246.344 192.672 246.344 192.359C246.344 192.016 246.469 191.438 246.719 190.625C252.812 177.219 258.703 166.5 264.391 158.469C265.016 157.594 266.016 156.938 267.391 156.5C268.797 156.031 270.156 155.797 271.469 155.797C272.25 155.797 272.641 156.406 272.641 157.625C272.641 157.969 272.516 158.438 272.266 159.031C272.016 159.594 271.391 160.531 270.391 161.844C269.391 163.156 268.203 164.656 266.828 166.344C265.453 168.031 264.672 169 264.484 169.25C268.766 164.812 272.625 161.516 276.062 159.359C279.531 157.172 282.031 156.078 283.562 156.078C285.125 156.078 286.312 156.531 287.125 157.438C287.969 158.312 288.391 159.266 288.391 160.297C288.391 161.297 288.312 162.141 288.156 162.828C288.031 163.484 287.781 164.188 287.406 164.938C287.031 165.656 286.703 166.281 286.422 166.812C286.172 167.312 285.734 167.984 285.109 168.828C284.484 169.641 284.047 170.203 283.797 170.516C283.578 170.828 283.094 171.422 282.344 172.297C281.625 173.172 281.234 173.656 281.172 173.75C282.047 172.875 283.266 171.578 284.828 169.859C286.391 168.141 287.703 166.703 288.766 165.547C289.859 164.391 291.219 163.094 292.844 161.656C294.469 160.188 295.984 159 297.391 158.094C300.766 155.969 304.188 154.906 307.656 154.906C308.844 154.906 309.844 155.281 310.656 156.031C311.469 156.781 311.875 157.688 311.875 158.75C311.875 159.781 310.609 162.281 308.078 166.25C305.547 170.188 303.016 174.156 300.484 178.156C297.984 182.125 296.734 184.625 296.734 185.656C296.734 187.094 297 187.953 297.531 188.234C298.062 188.484 298.703 188.578 299.453 188.516C300.203 188.453 301.25 187.969 302.594 187.062C303.969 186.156 305.188 185.219 306.25 184.25C307.969 182.688 309.562 181.172 311.031 179.703C311.344 179.422 311.688 179.281 312.062 179.281C312.656 179.281 313.016 179.734 313.141 180.641C313.266 181.547 313.328 182.484 313.328 183.453C313.328 184.422 313.234 185.094 313.047 185.469C312.141 187.219 310.141 189.359 307.047 191.891C303.953 194.422 300.984 195.688 298.141 195.688C297.797 195.688 297.547 195.672 297.391 195.641C294.172 195.328 291.938 194.453 290.688 193.016C289.469 191.547 288.859 189.812 288.859 187.812C288.859 185.812 289.531 183.391 290.875 180.547C292.25 177.703 293.75 175.125 295.375 172.812C297 170.5 298.484 168.422 299.828 166.578C301.203 164.703 301.891 163.688 301.891 163.531C301.891 163.375 301.766 163.297 301.516 163.297C300.547 163.297 298.391 164.859 295.047 167.984C289.328 173.328 284.391 178.484 280.234 183.453C279.141 184.766 276.547 188.094 272.453 193.438C271.984 194.062 271.234 194.375 270.203 194.375C269.203 194.375 268.156 194.188 267.062 193.812C265.969 193.406 265.422 192.891 265.422 192.266C265.422 191.953 267.906 187.578 272.875 179.141C277.844 170.672 280.328 166.062 280.328 165.312C280.328 164.531 279.859 164.141 278.922 164.141C278.016 164.141 276.125 165.516 273.25 168.266C265.344 175.828 259.219 183.344 254.875 190.812C254.594 191.25 254.047 191.938 253.234 192.875C252.422 193.812 251.875 194.281 251.594 194.281Z" fill="white"/>
</svg>
