<svg width="411" height="300" viewBox="0 0 411 300" fill="none" xmlns="http://www.w3.org/2000/svg">
<rect width="411" height="300" fill="#E57697"/>
<path d="M119.922 148.703C118.891 149.453 118.375 150.297 118.375 151.234C118.375 152.141 119.062 152.594 120.438 152.594C121.031 152.594 121.797 152.422 122.734 152.078H122.781C122.938 152.078 123.016 152.406 123.016 153.062C123.016 153.688 122.953 154.062 122.828 154.188C119.609 156.469 116.891 157.609 114.672 157.609C112.453 157.609 110.844 156.984 109.844 155.734C108.844 154.484 108.344 152.859 108.344 150.859C108.344 148.828 109.453 146.688 111.672 144.438C113.891 142.156 116.875 140.062 120.625 138.156C124.375 136.219 129.016 134.625 134.547 133.375C140.109 132.125 146.344 131.5 153.25 131.5C160.188 131.5 165.984 132.859 170.641 135.578C175.297 138.266 177.625 141.344 177.625 144.812C177.625 148.25 176.406 151.75 173.969 155.312C171.562 158.875 168.531 161.984 164.875 164.641C161.25 167.266 157.219 169.422 152.781 171.109C148.344 172.797 144.375 173.641 140.875 173.641C137.375 173.641 134.656 172.234 132.719 169.422C127.969 176.891 124.75 182 123.062 184.75C121.375 187.469 119.938 189.766 118.75 191.641C117.594 193.484 116.688 194.938 116.031 196C115.406 197.062 115.078 197.609 115.047 197.641C114.391 198.359 113.688 198.719 112.938 198.719L110.641 199.141L109.516 199.047H108.719C106.875 199.047 105.953 198.469 105.953 197.312C105.953 195.844 109.031 190.312 115.188 180.719C121.344 171.125 127.141 162.422 132.578 154.609C138.047 146.797 141.234 142.406 142.141 141.438C143.047 140.469 143.844 139.906 144.531 139.75C145.25 139.562 146.391 139.469 147.953 139.469H150.297C150.703 139.469 150.906 139.797 150.906 140.453C150.906 141.078 150.828 141.516 150.672 141.766C147.922 145.609 142.953 153.203 135.766 164.547C136.016 165.047 136.422 165.359 136.984 165.484C137.578 165.609 138.203 165.672 138.859 165.672H140.219C143.094 165.672 146.203 164.984 149.547 163.609C152.891 162.203 155.828 160.531 158.359 158.594C160.891 156.656 163 154.641 164.688 152.547C166.406 150.422 167.266 148.609 167.266 147.109C167.266 145.609 166.797 144.266 165.859 143.078C164.922 141.891 163.641 140.953 162.016 140.266C158.828 138.922 154.953 138.25 150.391 138.25C145.859 138.25 140.375 139.438 133.938 141.812C127.531 144.156 122.859 146.453 119.922 148.703ZM178.516 173.453C185.891 165.078 192.172 160.891 197.359 160.891C198.641 160.891 199.688 161.281 200.5 162.062C201.344 162.812 201.766 163.797 201.766 165.016C201.766 166.234 200.891 168.281 199.141 171.156C197.422 174 195.828 176.406 194.359 178.375C193.578 179.375 192.688 179.875 191.688 179.875C190.719 179.875 189.953 179.516 189.391 178.797C188.859 178.078 188.594 177.234 188.594 176.266C188.594 174.109 189.75 171.672 192.062 168.953L191.969 168.859C190.938 168.953 188.375 170.984 184.281 174.953C180.219 178.922 176.75 182.484 173.875 185.641C171.031 188.766 167.938 192.578 164.594 197.078C163.625 198.422 162.797 199.094 162.109 199.094C161.453 199.094 160.578 198.891 159.484 198.484C158.359 198.047 157.688 197.734 157.469 197.547C157.219 197.359 157.094 197.047 157.094 196.609C157.094 196.172 157.219 195.672 157.469 195.109C157.719 194.516 158.188 193.688 158.875 192.625C159.531 191.562 160.531 189.844 161.875 187.469C163.25 185.094 165.375 181.5 168.25 176.688C171.125 171.875 172.844 168.969 173.406 167.969C174.594 165.906 175.562 164.406 176.312 163.469C177.719 161.688 180.094 160.797 183.438 160.797C184.188 160.797 184.562 161.266 184.562 162.203C184.562 163.672 183.203 166.438 180.484 170.5L178.516 173.453ZM227.266 147.531C227.266 149.312 226.438 151.109 224.781 152.922C223.125 154.703 221.391 155.594 219.578 155.594C217.797 155.594 216.906 154.656 216.906 152.781C216.906 150.906 217.688 149.125 219.25 147.438C220.844 145.719 222.594 144.859 224.5 144.859C225.344 144.859 226.016 145.094 226.516 145.562C227.016 146.031 227.266 146.688 227.266 147.531ZM219.672 188.453C219.672 189.391 219.578 190.062 219.391 190.469C217.859 193.594 215.422 196.125 212.078 198.062C208.734 199.969 205.828 200.922 203.359 200.922C200.891 200.922 198.766 200.094 196.984 198.438C195.203 196.781 194.312 195.094 194.312 193.375C194.312 191.656 195.172 189.156 196.891 185.875C198.609 182.594 200.328 179.562 202.047 176.781C203.766 174 204.625 172.5 204.625 172.281C204.625 172.031 204.297 171.562 203.641 170.875C203.016 170.188 202.703 169.688 202.703 169.375C202.703 169.031 203.344 168.172 204.625 166.797C205.938 165.391 207.516 164.016 209.359 162.672C211.234 161.297 212.656 160.609 213.625 160.609C214.625 160.609 215.516 161.047 216.297 161.922C217.078 162.797 217.469 163.594 217.469 164.312C217.469 165.031 213.75 171.797 206.312 184.609C206.219 184.797 205.953 185.219 205.516 185.875C205.109 186.5 204.781 187.031 204.531 187.469C204.312 187.875 204.047 188.375 203.734 188.969C203.109 190.219 202.797 191.266 202.797 192.109C202.797 193.172 203.516 193.703 204.953 193.703C206.391 193.703 207.875 193.219 209.406 192.25C210.969 191.25 212.312 190.156 213.438 188.969C216.375 185.812 218.047 184.234 218.453 184.234C219.266 184.234 219.672 185.641 219.672 188.453ZM221.406 189.625L221.359 190.375C221.359 191.156 221.656 191.828 222.25 192.391C222.844 192.953 223.391 193.234 223.891 193.234C227.641 193.234 230.953 192.672 233.828 191.547C236.734 190.422 238.188 189.297 238.188 188.172C238.188 187.641 237.656 187.188 236.594 186.812C235.562 186.406 233.797 185.922 231.297 185.359C228.828 184.766 227.031 184.312 225.906 184C224.781 183.656 223.891 183.344 223.234 183.062C222.578 182.781 221.906 182.391 221.219 181.891C219.75 180.859 219.016 179.328 219.016 177.297C219.016 175.234 219.766 173.203 221.266 171.203C222.797 169.172 224.703 167.438 226.984 166C229.266 164.562 231.719 163.297 234.344 162.203C239.531 160.047 243.891 158.969 247.422 158.969C250.891 158.969 253.031 159.719 253.844 161.219C254.094 161.75 254.219 162.344 254.219 163V163.328C254.219 164.984 253.859 166.281 253.141 167.219C252.453 168.156 251.344 169 249.812 169.75C248.312 170.5 247.109 170.875 246.203 170.875C245.328 170.875 244.766 170.812 244.516 170.688C244.297 170.562 244.109 170.406 243.953 170.219C243.797 170 243.594 169.844 243.344 169.75C243.125 169.656 243.016 169.422 243.016 169.047C243.016 168.672 243.172 168.297 243.484 167.922C243.797 167.516 244.016 167.094 244.141 166.656C242.078 166.75 239.922 167.234 237.672 168.109C235.422 168.953 233.484 169.906 231.859 170.969C230.266 172.031 228.938 173.047 227.875 174.016C226.812 174.984 226.281 175.703 226.281 176.172C226.281 176.609 227 176.969 228.438 177.25C234.906 178.531 239.156 179.641 241.188 180.578C243.219 181.516 244.625 182.578 245.406 183.766C246.188 184.953 246.578 186.031 246.578 187C246.578 189 245.781 190.891 244.188 192.672C242.594 194.453 240.625 195.906 238.281 197.031C233.25 199.5 228.859 200.734 225.109 200.734C221.391 200.734 218.812 200.156 217.375 199C215.969 197.875 215.266 196.531 215.266 194.969C215.266 193.406 215.656 191.969 216.438 190.656C217.25 189.312 218.281 188.641 219.531 188.641C220.781 188.641 221.406 188.969 221.406 189.625ZM251.594 199.281L249.297 199.188H248.453C248.141 199.094 247.812 198.906 247.469 198.625C247.094 198.344 246.812 198.141 246.625 198.016C246.438 197.891 246.344 197.672 246.344 197.359C246.344 197.016 246.469 196.438 246.719 195.625C252.812 182.219 258.703 171.5 264.391 163.469C265.016 162.594 266.016 161.938 267.391 161.5C268.797 161.031 270.156 160.797 271.469 160.797C272.25 160.797 272.641 161.406 272.641 162.625C272.641 162.969 272.516 163.438 272.266 164.031C272.016 164.594 271.391 165.531 270.391 166.844C269.391 168.156 268.203 169.656 266.828 171.344C265.453 173.031 264.672 174 264.484 174.25C268.766 169.812 272.625 166.516 276.062 164.359C279.531 162.172 282.031 161.078 283.562 161.078C285.125 161.078 286.312 161.531 287.125 162.438C287.969 163.312 288.391 164.266 288.391 165.297C288.391 166.297 288.312 167.141 288.156 167.828C288.031 168.484 287.781 169.188 287.406 169.938C287.031 170.656 286.703 171.281 286.422 171.812C286.172 172.312 285.734 172.984 285.109 173.828C284.484 174.641 284.047 175.203 283.797 175.516C283.578 175.828 283.094 176.422 282.344 177.297C281.625 178.172 281.234 178.656 281.172 178.75C282.047 177.875 283.266 176.578 284.828 174.859C286.391 173.141 287.703 171.703 288.766 170.547C289.859 169.391 291.219 168.094 292.844 166.656C294.469 165.188 295.984 164 297.391 163.094C300.766 160.969 304.188 159.906 307.656 159.906C308.844 159.906 309.844 160.281 310.656 161.031C311.469 161.781 311.875 162.688 311.875 163.75C311.875 164.781 310.609 167.281 308.078 171.25C305.547 175.188 303.016 179.156 300.484 183.156C297.984 187.125 296.734 189.625 296.734 190.656C296.734 192.094 297 192.953 297.531 193.234C298.062 193.484 298.703 193.578 299.453 193.516C300.203 193.453 301.25 192.969 302.594 192.062C303.969 191.156 305.188 190.219 306.25 189.25C307.969 187.688 309.562 186.172 311.031 184.703C311.344 184.422 311.688 184.281 312.062 184.281C312.656 184.281 313.016 184.734 313.141 185.641C313.266 186.547 313.328 187.484 313.328 188.453C313.328 189.422 313.234 190.094 313.047 190.469C312.141 192.219 310.141 194.359 307.047 196.891C303.953 199.422 300.984 200.688 298.141 200.688C297.797 200.688 297.547 200.672 297.391 200.641C294.172 200.328 291.938 199.453 290.688 198.016C289.469 196.547 288.859 194.812 288.859 192.812C288.859 190.812 289.531 188.391 290.875 185.547C292.25 182.703 293.75 180.125 295.375 177.812C297 175.5 298.484 173.422 299.828 171.578C301.203 169.703 301.891 168.688 301.891 168.531C301.891 168.375 301.766 168.297 301.516 168.297C300.547 168.297 298.391 169.859 295.047 172.984C289.328 178.328 284.391 183.484 280.234 188.453C279.141 189.766 276.547 193.094 272.453 198.438C271.984 199.062 271.234 199.375 270.203 199.375C269.203 199.375 268.156 199.188 267.062 198.812C265.969 198.406 265.422 197.891 265.422 197.266C265.422 196.953 267.906 192.578 272.875 184.141C277.844 175.672 280.328 171.062 280.328 170.312C280.328 169.531 279.859 169.141 278.922 169.141C278.016 169.141 276.125 170.516 273.25 173.266C265.344 180.828 259.219 188.344 254.875 195.812C254.594 196.25 254.047 196.938 253.234 197.875C252.422 198.812 251.875 199.281 251.594 199.281Z" fill="white"/>
</svg>
