<svg width="305" height="269" viewBox="0 0 305 269" fill="none" xmlns="http://www.w3.org/2000/svg">
<path d="M83.82 256V246.662H82.658V253.956L77.282 246.662H76.092V256H77.254V248.552L82.7 256H83.82ZM88.9161 256.168C90.9741 256.168 92.2621 254.572 92.2621 252.612C92.2621 250.652 90.9741 249.07 88.9161 249.07C86.8581 249.07 85.5701 250.652 85.5701 252.612C85.5701 254.572 86.8581 256.168 88.9161 256.168ZM88.9161 255.23C87.4741 255.23 86.6621 253.998 86.6621 252.612C86.6621 251.24 87.4741 250.008 88.9161 250.008C90.3581 250.008 91.1561 251.24 91.1561 252.612C91.1561 253.998 90.3581 255.23 88.9161 255.23ZM100.817 256C103.715 256 105.605 253.998 105.605 251.338C105.605 248.692 103.715 246.662 100.817 246.662H97.6252V256H100.817ZM100.817 254.964H98.7872V247.698H100.817C103.127 247.698 104.401 249.322 104.401 251.338C104.401 253.34 103.085 254.964 100.817 254.964ZM110.34 256.168C112.398 256.168 113.686 254.572 113.686 252.612C113.686 250.652 112.398 249.07 110.34 249.07C108.282 249.07 106.994 250.652 106.994 252.612C106.994 254.572 108.282 256.168 110.34 256.168ZM110.34 255.23C108.898 255.23 108.086 253.998 108.086 252.612C108.086 251.24 108.898 250.008 110.34 250.008C111.782 250.008 112.58 251.24 112.58 252.612C112.58 253.998 111.782 255.23 110.34 255.23ZM122.3 256L124.456 249.238H123.364L121.712 254.628L119.934 249.238H119.038L117.26 254.628L115.608 249.238H114.516L116.672 256H117.722L119.486 250.568L121.25 256H122.3ZM131.293 256V251.254C131.293 249.784 130.551 249.07 129.137 249.07C128.129 249.07 127.205 249.658 126.729 250.218V249.238H125.679V256H126.729V251.058C127.121 250.512 127.905 250.008 128.731 250.008C129.641 250.008 130.243 250.386 130.243 251.576V256H131.293ZM134.44 256V246.662H133.39V256H134.44ZM139.488 256.168C141.546 256.168 142.834 254.572 142.834 252.612C142.834 250.652 141.546 249.07 139.488 249.07C137.43 249.07 136.142 250.652 136.142 252.612C136.142 254.572 137.43 256.168 139.488 256.168ZM139.488 255.23C138.046 255.23 137.234 253.998 137.234 252.612C137.234 251.24 138.046 250.008 139.488 250.008C140.93 250.008 141.728 251.24 141.728 252.612C141.728 253.998 140.93 255.23 139.488 255.23ZM149.824 256V251.352C149.824 249.714 148.634 249.07 147.206 249.07C146.1 249.07 145.232 249.434 144.504 250.19L144.994 250.918C145.596 250.274 146.254 249.98 147.066 249.98C148.046 249.98 148.774 250.498 148.774 251.408V252.626C148.228 251.996 147.458 251.702 146.534 251.702C145.386 251.702 144.168 252.416 144.168 253.928C144.168 255.398 145.386 256.168 146.534 256.168C147.444 256.168 148.214 255.846 148.774 255.23V256H149.824ZM146.912 255.412C145.932 255.412 145.246 254.796 145.246 253.942C145.246 253.074 145.932 252.458 146.912 252.458C147.654 252.458 148.368 252.738 148.774 253.298V254.572C148.368 255.132 147.654 255.412 146.912 255.412ZM157.879 256V246.662H156.829V250.26C156.283 249.518 155.457 249.07 154.547 249.07C152.769 249.07 151.537 250.47 151.537 252.626C151.537 254.824 152.783 256.168 154.547 256.168C155.499 256.168 156.325 255.678 156.829 254.992V256H157.879ZM154.799 255.23C153.441 255.23 152.629 254.124 152.629 252.626C152.629 251.128 153.441 250.008 154.799 250.008C155.639 250.008 156.451 250.512 156.829 251.1V254.166C156.451 254.754 155.639 255.23 154.799 255.23ZM162.124 256.168C163.874 256.168 164.784 255.258 164.784 254.124C164.784 251.492 160.598 252.472 160.598 250.988C160.598 250.386 161.172 249.924 162.096 249.924C162.964 249.924 163.706 250.288 164.112 250.778L164.602 250.05C164.056 249.504 163.244 249.07 162.096 249.07C160.486 249.07 159.576 249.966 159.576 251.016C159.576 253.522 163.762 252.514 163.762 254.152C163.762 254.824 163.202 255.314 162.166 255.314C161.242 255.314 160.388 254.866 159.94 254.348L159.394 255.104C160.08 255.832 161.018 256.168 162.124 256.168ZM171.303 256V251.744H176.161V250.708H171.303V247.698H176.259V246.662H170.141V256H171.303ZM180.75 256.168C182.808 256.168 184.096 254.572 184.096 252.612C184.096 250.652 182.808 249.07 180.75 249.07C178.692 249.07 177.404 250.652 177.404 252.612C177.404 254.572 178.692 256.168 180.75 256.168ZM180.75 255.23C179.308 255.23 178.496 253.998 178.496 252.612C178.496 251.24 179.308 250.008 180.75 250.008C182.192 250.008 182.99 251.24 182.99 252.612C182.99 253.998 182.192 255.23 180.75 255.23ZM191.422 256V249.238H190.372V254.208C189.98 254.754 189.196 255.23 188.37 255.23C187.46 255.23 186.858 254.88 186.858 253.69V249.238H185.808V254.012C185.808 255.482 186.55 256.168 187.964 256.168C188.972 256.168 189.854 255.636 190.372 255.048V256H191.422ZM199.133 256V251.254C199.133 249.784 198.391 249.07 196.977 249.07C195.969 249.07 195.045 249.658 194.569 250.218V249.238H193.519V256H194.569V251.058C194.961 250.512 195.745 250.008 196.571 250.008C197.481 250.008 198.083 250.386 198.083 251.576V256H199.133ZM207.18 256V246.662H206.13V250.26C205.584 249.518 204.758 249.07 203.848 249.07C202.07 249.07 200.838 250.47 200.838 252.626C200.838 254.824 202.084 256.168 203.848 256.168C204.8 256.168 205.626 255.678 206.13 254.992V256H207.18ZM204.1 255.23C202.742 255.23 201.93 254.124 201.93 252.626C201.93 251.128 202.742 250.008 204.1 250.008C204.94 250.008 205.752 250.512 206.13 251.1V254.166C205.752 254.754 204.94 255.23 204.1 255.23ZM210.276 253.382L210.5 246.662H209.184L209.408 253.382H210.276ZM209.842 256.14C210.262 256.14 210.612 255.776 210.612 255.37C210.612 254.95 210.262 254.6 209.842 254.6C209.422 254.6 209.072 254.95 209.072 255.37C209.072 255.776 209.422 256.14 209.842 256.14Z" fill="black"/>
<g clip-path="url(#clip0)">
<path d="M183.907 23.2782V202.8C183.907 204.939 183.057 206.99 181.546 208.502C180.034 210.014 177.984 210.863 175.847 210.863H103.02C100.883 210.863 98.8332 210.014 97.3216 208.502C95.81 206.99 94.9606 204.939 94.9602 202.8V23.2782C94.9601 22.2189 95.1685 21.1699 95.5736 20.1912C95.9786 19.2125 96.5723 18.3232 97.3208 17.5741C98.0692 16.8251 98.9578 16.2309 99.9358 15.8256C100.914 15.4202 101.962 15.2117 103.02 15.2117H113.918V16.6126C113.919 18.374 114.618 20.0631 115.863 21.3087C117.107 22.5542 118.795 23.2541 120.555 23.2546H157.592C159.352 23.2546 161.04 22.5548 162.285 21.3092C163.529 20.0636 164.229 18.3741 164.229 16.6126V15.2117H175.847C176.905 15.2117 177.954 15.4202 178.932 15.8256C179.909 16.2309 180.798 16.8251 181.547 17.5741C182.295 18.3232 182.889 19.2125 183.294 20.1912C183.699 21.1699 183.907 22.2189 183.907 23.2782Z" fill="#EDEDED"/>
<path d="M194.879 51.3608H195.601C195.779 51.3608 195.951 51.4319 196.077 51.5584C196.204 51.6848 196.275 51.8564 196.275 52.0352V75.7068C196.275 75.8857 196.204 76.0572 196.077 76.1837C195.951 76.3102 195.779 76.3812 195.601 76.3812H194.879" stroke="#3F3D56" stroke-miterlimit="10"/>
<path d="M93.3979 39.9964H92.8761C92.7589 39.9964 92.6465 39.9497 92.5636 39.8668C92.4807 39.7838 92.4341 39.6713 92.4341 39.554V32.2018C92.4341 32.0845 92.4807 31.972 92.5636 31.889C92.6465 31.8061 92.7589 31.7594 92.8761 31.7594H93.3979" stroke="#3F3D56" stroke-miterlimit="10"/>
<path d="M93.3158 61.177H92.8704C92.7382 61.177 92.6115 61.1244 92.518 61.0309C92.4246 60.9374 92.3721 60.8105 92.3721 60.6783V47.3385C92.3721 47.273 92.385 47.2082 92.41 47.1477C92.435 47.0872 92.4718 47.0322 92.518 46.9859C92.5643 46.9396 92.6192 46.9028 92.6797 46.8778C92.7401 46.8527 92.8049 46.8398 92.8704 46.8398H93.3978" stroke="#3F3D56" stroke-miterlimit="10"/>
<path d="M93.3158 80.6545H92.8773C92.7515 80.6545 92.6309 80.6045 92.542 80.5155C92.453 80.4265 92.4031 80.3058 92.4031 80.1799V66.668C92.4031 66.5422 92.453 66.4214 92.542 66.3324C92.6309 66.2434 92.7515 66.1935 92.8773 66.1935H93.3158" stroke="#3F3D56" stroke-miterlimit="10"/>
<path d="M184.383 4.53882H103.894C98.097 4.53882 93.3977 9.24175 93.3977 15.0431V200.44C93.3977 206.242 98.097 210.945 103.894 210.945H184.383C190.179 210.945 194.879 206.242 194.879 200.44V15.0431C194.879 9.24175 190.179 4.53882 184.383 4.53882Z" stroke="#3F3D56" stroke-miterlimit="10"/>
<path d="M147.185 11.5855H134.508C134.096 11.5855 133.761 11.9204 133.761 12.3336V13.7173C133.761 14.1304 134.096 14.4654 134.508 14.4654H147.185C147.598 14.4654 147.932 14.1304 147.932 13.7173V12.3336C147.932 11.9204 147.598 11.5855 147.185 11.5855Z" fill="#F2F2F2"/>
<path d="M151.707 14.6589C152.609 14.6589 153.339 13.9276 153.339 13.0255C153.339 12.1233 152.609 11.392 151.707 11.392C150.806 11.392 150.075 12.1233 150.075 13.0255C150.075 13.9276 150.806 14.6589 151.707 14.6589Z" fill="#F2F2F2"/>
<path d="M147.773 10.7027H135.097C134.684 10.7027 134.349 11.0376 134.349 11.4507V12.8344C134.349 13.2476 134.684 13.5825 135.097 13.5825H147.773C148.186 13.5825 148.52 13.2476 148.52 12.8344V11.4507C148.52 11.0376 148.186 10.7027 147.773 10.7027Z" stroke="#3F3D56" stroke-miterlimit="10"/>
<path d="M152.295 13.776C153.197 13.776 153.927 13.0447 153.927 12.1426C153.927 11.2405 153.197 10.5091 152.295 10.5091C151.394 10.5091 150.663 11.2405 150.663 12.1426C150.663 13.0447 151.394 13.776 152.295 13.776Z" stroke="#3F3D56" stroke-miterlimit="10"/>
<path d="M188.612 17.981V197.502C188.612 199.641 187.762 201.693 186.251 203.205C184.739 204.717 182.689 205.566 180.552 205.566H107.725C105.588 205.566 103.538 204.717 102.026 203.205C100.515 201.693 99.6655 199.641 99.665 197.502V17.981C99.6649 16.9217 99.8734 15.8727 100.278 14.894C100.683 13.9153 101.277 13.026 102.026 12.277C102.774 11.5279 103.663 10.9337 104.641 10.5284C105.619 10.1231 106.667 9.91447 107.725 9.91457H118.623V11.3154C118.624 13.0768 119.323 14.766 120.567 16.0115C121.812 17.257 123.5 17.9569 125.26 17.9575H162.297C164.057 17.9575 165.745 17.2577 166.99 16.012C168.234 14.7664 168.934 13.077 168.934 11.3154V9.91457H180.552C181.61 9.91447 182.658 10.1231 183.636 10.5284C184.614 10.9337 185.503 11.5279 186.251 12.277C187 13.026 187.594 13.9153 187.999 14.894C188.404 15.8727 188.612 16.9217 188.612 17.981V17.981Z" stroke="#3F3D56" stroke-miterlimit="10"/>
<path d="M111.324 27.0715H102.208V28.2487H111.324V27.0715Z" stroke="#3F3D56" stroke-miterlimit="10"/>
<path d="M111.324 29.1316H102.208V30.3087H111.324V29.1316Z" stroke="#3F3D56" stroke-miterlimit="10"/>
<path d="M111.324 31.1916H102.208V32.3687H111.324V31.1916Z" stroke="#3F3D56" stroke-miterlimit="10"/>
<path d="M184.447 30.0144H184.176L184.075 29.9297C184.413 29.5261 184.598 29.0164 184.598 28.4898C184.596 28.0574 184.465 27.6355 184.222 27.2775C183.98 26.9195 183.637 26.6413 183.237 26.4783C182.837 26.3152 182.397 26.2744 181.974 26.3612C181.551 26.4479 181.163 26.6583 180.859 26.9656C180.555 27.273 180.349 27.6636 180.266 28.0881C180.184 28.5127 180.23 28.952 180.397 29.3508C180.564 29.7495 180.845 30.0897 181.206 30.3285C181.566 30.5672 181.989 30.6937 182.421 30.692C182.946 30.6888 183.453 30.5032 183.856 30.1669L183.957 30.2517V30.5227L185.645 32.2167L186.151 31.7085L184.447 30.0144ZM182.421 30.0144C182.119 30.0153 181.824 29.9266 181.573 29.7596C181.322 29.5926 181.126 29.3548 181.01 29.0762C180.894 28.7977 180.864 28.491 180.922 28.195C180.98 27.8989 181.125 27.6269 181.338 27.4132C181.551 27.1995 181.822 27.0539 182.118 26.9947C182.413 26.9355 182.72 26.9655 182.999 27.0807C183.277 27.196 183.515 27.3914 183.683 27.6423C183.851 27.8931 183.94 28.188 183.94 28.4898C183.941 28.6899 183.903 28.8883 183.827 29.0735C183.751 29.2587 183.639 29.4271 183.498 29.5688C183.357 29.7106 183.189 29.8229 183.004 29.8994C182.819 29.9759 182.621 30.015 182.421 30.0144V30.0144Z" stroke="#3F3D56" stroke-miterlimit="10"/>
<path d="M233.822 49.7314C233.976 46.7991 235.248 44.0376 237.376 42.0162C239.504 39.9949 242.326 38.868 245.26 38.868C245.608 38.868 245.952 38.8861 246.292 38.9166C247.63 36.6129 249.548 34.7009 251.856 33.3715C254.163 32.0421 256.779 31.3418 259.441 31.3405C262.104 31.3393 264.72 32.0371 267.028 33.3643C269.337 34.6916 271.257 36.6018 272.598 38.9041C272.885 38.8825 273.173 38.868 273.466 38.868C276.4 38.868 279.222 39.9949 281.35 42.0162C283.478 44.0376 284.75 46.7991 284.904 49.7314" fill="#EDEDED"/>
<path d="M236.208 48.8497C236.361 45.9174 237.633 43.1558 239.761 41.1345C241.889 39.1132 244.711 37.9863 247.646 37.9862C247.994 37.9862 248.337 38.0044 248.678 38.0348C250.016 35.7312 251.934 33.8192 254.241 32.4898C256.549 31.1604 259.164 30.46 261.827 30.4588C264.489 30.4575 267.105 31.1554 269.414 32.4826C271.723 33.8098 273.643 35.72 274.983 38.0224C275.27 38.0008 275.559 37.9862 275.851 37.9862C278.785 37.9863 281.608 39.1132 283.736 41.1345C285.864 43.1558 287.136 45.9174 287.289 48.8497" stroke="#3F3D56" stroke-miterlimit="10"/>
<path d="M203.24 114.769C203.394 111.837 204.666 109.075 206.794 107.054C208.922 105.033 211.744 103.906 214.678 103.906C215.026 103.906 215.37 103.924 215.71 103.954C217.048 101.651 218.966 99.7385 221.274 98.4091C223.581 97.0797 226.197 96.3794 228.859 96.3781C231.522 96.3769 234.138 97.0747 236.446 98.4019C238.755 99.7292 240.675 101.639 242.015 103.942C242.302 103.92 242.591 103.906 242.884 103.906C245.818 103.906 248.64 105.033 250.768 107.054C252.896 109.075 254.168 111.837 254.322 114.769" fill="#EDEDED"/>
<path d="M205.625 113.887C205.779 110.955 207.051 108.193 209.179 106.172C211.307 104.151 214.129 103.024 217.063 103.024C217.411 103.024 217.755 103.042 218.095 103.072C219.433 100.769 221.352 98.8568 223.659 97.5274C225.966 96.1979 228.582 95.4976 231.244 95.4964C233.907 95.4951 236.523 96.193 238.832 97.5202C241.14 98.8474 243.061 100.758 244.401 103.06C244.688 103.038 244.977 103.024 245.269 103.024C248.203 103.024 251.025 104.151 253.154 106.172C255.282 108.193 256.554 110.955 256.707 113.887" stroke="#3F3D56" stroke-miterlimit="10"/>
<path d="M11.8076 19.4198C11.961 16.4875 13.2329 13.7259 15.361 11.7046C17.4892 9.68328 20.3113 8.55638 23.2454 8.55633C23.5935 8.55633 23.9372 8.5745 24.2774 8.60492C25.6154 6.3013 27.5338 4.3893 29.8412 3.05988C32.1486 1.73046 34.7641 1.03015 37.4265 1.02889C40.089 1.02763 42.7052 1.72546 45.0138 3.0527C47.3224 4.37994 49.2427 6.29012 50.5829 8.59248C50.8699 8.5709 51.1588 8.55633 51.4513 8.55633C54.3853 8.55638 57.2074 9.68328 59.3356 11.7046C61.4638 13.7259 62.7357 16.4875 62.889 19.4198" fill="#EDEDED"/>
<path d="M14.1934 18.538C14.3467 15.6058 15.6186 12.8442 17.7468 10.8228C19.875 8.80153 22.6971 7.67464 25.6311 7.67458C25.9792 7.67458 26.3229 7.69275 26.6631 7.72318C28.0011 5.41956 29.9196 3.50755 32.227 2.17813C34.5343 0.848713 37.1498 0.148402 39.8123 0.147142C42.4747 0.145882 45.0909 0.843717 47.3995 2.17095C49.7082 3.49819 51.6285 5.40837 52.9686 7.71073C53.2556 7.68916 53.5445 7.67458 53.837 7.67458C56.7711 7.67464 59.5932 8.80153 61.7213 10.8228C63.8495 12.8442 65.1214 15.6058 65.2748 18.538" stroke="#3F3D56" stroke-miterlimit="10"/>
<path d="M168.946 57.0918H106.339C104.302 57.0918 102.65 58.745 102.65 60.7843V92.2453C102.65 94.2846 104.302 95.9378 106.339 95.9378H168.946C170.984 95.9378 172.636 94.2846 172.636 92.2453V60.7843C172.636 58.745 170.984 57.0918 168.946 57.0918Z" fill="#E57697"/>
<path d="M172.769 49.7346H110.162C108.124 49.7346 106.472 51.3878 106.472 53.4271V84.8881C106.472 86.9274 108.124 88.5806 110.162 88.5806H172.769C174.807 88.5806 176.458 86.9274 176.458 84.8881V53.4271C176.458 51.3878 174.807 49.7346 172.769 49.7346Z" stroke="#3F3D56" stroke-miterlimit="10"/>
<path d="M130.429 77.8448L136.602 84.2113C136.736 84.3471 136.897 84.454 137.075 84.5254C137.252 84.5967 137.442 84.631 137.633 84.6262H137.652C137.843 84.631 138.033 84.5967 138.211 84.5254C138.388 84.454 138.549 84.3471 138.684 84.2113L144.856 77.8448C144.993 77.7173 145.101 77.5631 145.176 77.3918C145.25 77.2205 145.288 77.0358 145.288 76.849C145.288 76.6623 145.25 76.4776 145.176 76.3063C145.101 76.135 144.993 75.9808 144.856 75.8533C144.574 75.5889 144.202 75.4418 143.815 75.4418C143.429 75.4418 143.056 75.5889 142.774 75.8533L139.117 79.6796V69.8141C139.1 69.4343 138.937 69.0757 138.662 68.8129C138.388 68.5501 138.023 68.4035 137.643 68.4035C137.263 68.4035 136.897 68.5501 136.623 68.8129C136.348 69.0757 136.186 69.4343 136.169 69.8141V79.6796L132.511 75.8533C132.229 75.5889 131.857 75.4418 131.47 75.4418C131.083 75.4418 130.711 75.5889 130.429 75.8533C130.293 75.9808 130.184 76.135 130.11 76.3063C130.035 76.4776 129.997 76.6623 129.997 76.849C129.997 77.0358 130.035 77.2205 130.11 77.3918C130.184 77.5631 130.293 77.7173 130.429 77.8448H130.429Z" fill="white"/>
<path d="M113.985 162.447H176.592C178.629 162.447 180.281 160.794 180.281 158.754V127.293C180.281 125.254 178.629 123.601 176.592 123.601H113.985C111.947 123.601 110.295 125.254 110.295 127.293V158.754C110.295 160.794 111.947 162.447 113.985 162.447Z" fill="#E57697"/>
<path d="M110.162 155.09H172.769C174.806 155.09 176.458 153.436 176.458 151.397V119.936C176.458 117.897 174.806 116.244 172.769 116.244H110.162C108.124 116.244 106.472 117.897 106.472 119.936V151.397C106.472 153.436 108.124 155.09 110.162 155.09Z" stroke="#3F3D56" stroke-miterlimit="10"/>
<path d="M152.502 144.354C152.638 144.226 152.747 144.072 152.821 143.901C152.895 143.73 152.934 143.545 152.934 143.358C152.934 143.171 152.895 142.987 152.821 142.815C152.747 142.644 152.638 142.49 152.502 142.362C152.219 142.098 151.847 141.951 151.461 141.951C151.074 141.951 150.702 142.098 150.42 142.362L146.762 146.189V136.323C146.745 135.943 146.582 135.585 146.308 135.322C146.033 135.059 145.668 134.913 145.288 134.913C144.908 134.913 144.543 135.059 144.268 135.322C143.994 135.585 143.831 135.943 143.814 136.323V146.189L140.157 142.362C139.874 142.098 139.502 141.951 139.115 141.951C138.729 141.951 138.357 142.098 138.074 142.362C137.938 142.49 137.829 142.644 137.755 142.815C137.681 142.987 137.643 143.171 137.643 143.358C137.643 143.545 137.681 143.73 137.755 143.901C137.829 144.072 137.938 144.226 138.074 144.354L144.247 150.72C144.382 150.856 144.543 150.963 144.72 151.034C144.898 151.106 145.088 151.14 145.279 151.135H145.297C145.489 151.14 145.679 151.106 145.856 151.034C146.034 150.963 146.195 150.856 146.329 150.72L152.502 144.354H152.502Z" fill="white"/>
<path d="M63.784 225.159L63.7839 225.159C63.7839 225.159 63.6914 225.211 63.5334 225.291C63.6185 225.247 63.7021 225.203 63.784 225.159Z" fill="url(#paint0_linear)"/>
<path d="M28.713 194.319C26.5068 200.667 29.0812 210.971 30.2767 215.57C31.4708 220.171 31.8389 225.691 31.8389 225.691C36.5271 226.426 39.9288 225.506 39.9288 225.506L37.9984 216.031C39.3773 210.419 37.9984 195.423 37.9984 195.423C37.9984 195.423 41.123 189.627 41.3987 180.795C41.6704 172.102 43.8118 169.292 43.8793 169.205L43.8807 169.204C48.2931 171.504 53.901 196.16 53.901 196.16C53.4418 202.139 53.9934 211.339 55.8315 216.307C56.9462 219.462 57.4152 222.81 57.2103 226.15C57.8529 226.694 58.7464 226.786 59.7116 226.63C62.337 226.205 65.4836 223.942 65.4836 223.942C65.4836 223.942 64.4729 197.079 63.7366 196.067C63.0016 195.056 63.7366 189.26 63.7366 189.26L62.5425 179.876C62.5425 179.876 62.7259 163.96 60.9788 161.2C59.4717 158.817 59.1242 154.629 59.0567 153.529C59.047 153.355 59.0429 153.258 59.0429 153.258L56.383 150.069C56.383 150.069 30.6435 148.137 28.713 150.069C28.2387 150.544 27.9464 151.622 27.7726 152.98C27.2418 157.153 27.8499 163.96 27.8499 163.96C27.8499 163.96 28.622 169.02 29.7251 174.172C30.3881 177.264 30.3881 180.463 29.7251 183.555C30.088 187.175 29.7443 190.831 28.713 194.319Z" fill="#575A89"/>
<path d="M30.3219 234.66C31.4705 236.178 38.227 235.534 39.3769 235.061C40.0788 234.771 40.0264 233.449 39.8361 232.087C39.7162 231.22 39.5397 230.337 39.468 229.693C39.2846 228.037 40.0195 224.678 40.0195 224.678C40.0195 224.678 38.5028 226.288 38.1359 224.678C37.9749 223.974 37.4092 223.613 36.8238 223.43C36.036 223.192 35.1892 223.245 34.4373 223.58C33.2435 224.098 31.251 225.203 31.6083 226.698C32.1144 228.811 30.3218 231.808 30.3218 231.808C30.1826 231.983 30.0697 232.178 29.9868 232.386C29.8288 232.76 29.7765 233.169 29.8356 233.57C29.8947 233.972 30.0629 234.349 30.3219 234.66Z" fill="#CBCEDA"/>
<path opacity="0.1" d="M30.3218 234.66C31.4705 236.178 38.227 235.534 39.3769 235.061C40.0788 234.771 40.0264 233.449 39.8361 232.087C39.1107 232.427 37.8767 232.709 35.8199 232.518C35.3397 232.474 34.8572 232.459 34.3752 232.474C32.912 232.54 31.4462 232.511 29.9868 232.386C29.8288 232.76 29.7765 233.169 29.8356 233.57C29.8947 233.971 30.0629 234.349 30.3218 234.66Z" fill="black"/>
<path opacity="0.1" d="M53.9007 196.16C53.4415 202.139 53.993 211.339 55.8311 216.307C56.9459 219.462 57.4148 222.81 57.21 226.15C57.8525 226.694 58.7461 226.786 59.7113 226.63C59.157 222.75 56.7936 206.032 55.2796 192.824C53.556 177.783 45.4895 167.433 45.4895 167.433L43.8804 169.204C48.2928 171.504 53.9007 196.16 53.9007 196.16Z" fill="black"/>
<path d="M33.0796 99.4705L34.202 104.99L39.6982 114.236L46.4781 111.338C46.4781 111.338 55.6932 101.678 49.9019 100.299C49.2081 100.15 48.553 99.8581 47.9784 99.4416C46.8422 98.5832 46.4837 97.3358 46.4781 96.1145C46.5232 94.7453 46.8435 93.3993 47.4199 92.1568L35.5616 88.4309C36.0511 89.9901 36.3371 91.6061 36.4123 93.2387C36.5033 96.4706 35.3037 98.063 34.3192 98.822C33.9529 99.118 33.5316 99.3385 33.0796 99.4705Z" fill="#FBBEBE"/>
<path opacity="0.1" d="M35.5615 88.4309C36.0511 89.9901 36.337 91.6061 36.4123 93.2387C36.6284 93.4959 36.8586 93.741 37.1017 93.9728C38.3262 95.1432 39.8442 95.9602 41.4949 96.3372C43.1456 96.7143 44.8675 96.6373 46.4781 96.1145C46.5231 94.7453 46.8434 93.3993 47.4199 92.1568L35.5615 88.4309Z" fill="black"/>
<path d="M34.2022 86.913C34.2023 88.7688 34.7522 90.5829 35.7825 92.1259C36.8128 93.669 38.2771 94.8716 39.9904 95.5818C41.7036 96.2919 43.5888 96.4777 45.4075 96.1157C47.2263 95.7536 48.8969 94.8599 50.2081 93.5476C51.5194 92.2354 52.4123 90.5635 52.7741 88.7433C53.1359 86.9231 52.9503 85.0365 52.2407 83.3219C51.531 81.6074 50.3293 80.1419 48.7875 79.1108C47.2457 78.0797 45.433 77.5293 43.5786 77.5293C42.346 77.5247 41.1247 77.7643 39.985 78.2342C38.8453 78.7041 37.8098 79.3952 36.9382 80.2674C36.0667 81.1397 35.3762 82.176 34.9066 83.3165C34.437 84.4571 34.1976 85.6794 34.2022 86.913Z" fill="#FBBEBE"/>
<path opacity="0.1" d="M33.0796 99.4705L34.202 104.99L39.6982 114.236L46.4781 111.338C46.4781 111.338 55.6932 101.678 49.9019 100.299C49.2081 100.15 48.553 99.8581 47.9784 99.4416C49.0249 102.317 44.7077 108.302 44.7077 108.302C44.2058 109.042 43.053 108.578 43.053 108.578C40.2732 108.157 35.1534 100.154 34.3192 98.822C33.9529 99.118 33.5316 99.3385 33.0796 99.4705Z" fill="black"/>
<path opacity="0.1" d="M27.7725 152.98C29.4037 153.351 38.4353 155.353 41.8591 154.852C45.6276 154.3 52.9549 153.933 52.9549 153.933C52.9549 153.933 57.6211 154.186 59.0565 153.529C59.0468 153.355 59.0427 153.258 59.0427 153.258L56.3828 150.069C56.3828 150.069 30.6433 148.137 28.7129 150.069C28.2385 150.544 27.9462 151.622 27.7725 152.98Z" fill="black"/>
<path d="M44.7084 108.578C44.7084 108.578 49.5584 101.854 47.7309 99.2362L55.9233 102.598C55.9233 102.598 60.8543 102 62.6337 109.365C62.9189 110.589 63.0216 111.848 62.9383 113.103C62.8737 114.213 63.0245 116.168 64.2885 118.698C66.3108 122.746 65.8512 132.037 61.7146 132.957C57.578 133.877 56.1071 133.417 56.1071 133.417C56.1071 133.417 56.6587 150.253 59.0488 152.185C61.4388 154.117 52.9549 153.657 52.9549 153.657C52.9549 153.657 45.6277 154.025 41.8587 154.577C38.0898 155.129 27.5184 152.645 27.5184 152.645C27.5184 152.645 29.0811 145.561 29.6327 141.053C30.1842 136.545 31.4712 126.946 31.4712 126.946L22.0948 114.236C22.0948 114.236 20.4401 106.554 26.2314 103.15C32.0227 99.7465 34.2022 98.9096 34.2022 98.9096C34.2022 98.9096 40.0202 108.394 43.0537 108.854C43.0537 108.854 44.2061 109.318 44.7084 108.578Z" fill="#3F3D56"/>
<path opacity="0.1" d="M55.4637 111.246C55.4637 111.246 55.5556 114.282 55.0041 115.478C54.4525 116.674 52.4302 123.298 52.4302 123.298H57.0264C57.0264 123.298 54.5445 120.63 54.7283 119.342C54.9122 118.054 55.4637 111.246 55.4637 111.246Z" fill="black"/>
<path d="M41.8585 134.153C41.8585 134.153 52.0087 131.669 52.9547 129.554C53.9007 127.438 56.5082 122.703 56.5082 122.703L55.4368 121.258L50.4995 125.138C50.4995 125.138 44.6162 129.83 41.8585 130.29C39.1007 130.75 41.8585 134.153 41.8585 134.153Z" fill="#FBBEBE"/>
<path opacity="0.05" d="M41.8585 134.153C41.8585 134.153 52.0087 131.669 52.9547 129.554C53.9007 127.438 56.5082 122.703 56.5082 122.703L55.4368 121.258L50.4995 125.138C50.4995 125.138 44.6162 129.83 41.8585 130.29C39.1007 130.75 41.8585 134.153 41.8585 134.153Z" fill="black"/>
<path d="M33.0796 122.194V127.706H33.9648C38.3384 127.706 42.64 128.82 46.4644 130.943L48.1232 131.865L48.5699 132.113L51.4187 125.69L48.7533 123.298C48.7533 123.298 48.7051 123.304 48.6168 123.311C47.9646 123.374 45.1448 123.61 43.9493 123.206C42.8145 122.821 41.4039 121.597 38.0601 122.452C36.4137 122.873 35.0073 124.721 33.4091 124.144L33.0796 122.194Z" fill="#FBBEBE"/>
<path opacity="0.1" d="M24.2086 112.166L22.3701 114.236V119.25C22.3701 119.25 23.9328 135.073 28.8968 136.821C33.8608 138.569 42.7221 135.809 42.7221 135.809C42.7221 135.809 45.0107 129.738 43.9401 129.37C42.8695 129.002 34.4775 126.783 34.4775 126.783C34.4775 126.783 34.5962 117.502 32.7577 114.742C32.7577 114.742 33.9527 106.094 29.8161 105.91C25.6794 105.726 24.2086 112.166 24.2086 112.166Z" fill="black"/>
<path d="M23.9332 112.166L22.0947 114.236V119.25C22.0947 119.25 23.6575 135.073 28.6214 136.821C33.5854 138.569 42.4467 135.809 42.4467 135.809C42.4467 135.809 44.7354 129.738 43.6647 129.37C42.5941 129.002 34.2021 126.783 34.2021 126.783C34.2021 126.783 34.3208 117.502 32.4823 114.742C32.4823 114.742 33.6773 106.094 29.5407 105.91C25.404 105.726 23.9332 112.166 23.9332 112.166Z" fill="#3F3D56"/>
<path opacity="0.1" d="M36.7738 90.901C36.6938 90.2958 36.7659 89.6802 36.9834 89.1099C37.2426 88.5606 37.8493 88.1273 38.4409 88.2667C39.2282 88.4503 39.5674 89.4756 40.3382 89.7212C40.9876 89.9282 41.6978 89.4673 42.008 88.8587C42.3183 88.2515 42.3265 87.5395 42.3279 86.8578C42.3293 86.0892 42.3311 85.3205 42.3334 84.5519C42.3348 83.7156 42.3596 82.8118 42.8753 82.1549C43.5165 81.3366 45.0223 80.9792 46.0275 81.0123C46.6971 81.0195 47.3395 81.2786 47.8269 81.7382C48.366 82.1963 48.9879 82.533 49.7215 82.413C50.0268 82.3666 50.3127 82.2347 50.5462 82.0325C50.7797 81.8303 50.9513 81.5661 51.0411 81.2704C51.044 81.2609 51.0463 81.2512 51.048 81.2414C50.2659 80.2095 49.2788 79.3508 48.1489 78.7193C47.019 78.0879 45.7706 77.6974 44.4825 77.5724C43.1944 77.4475 41.8944 77.5907 40.6643 77.9932C39.4342 78.3957 38.3007 79.0487 37.3352 79.911C36.3696 80.7734 35.5929 81.8265 35.0539 83.004C34.515 84.1815 34.2254 85.4579 34.2035 86.7528C34.1816 88.0478 34.4278 89.3333 34.9266 90.5284C35.4255 91.7235 36.1661 92.8022 37.1019 93.6968C36.9409 92.7717 36.8314 91.8383 36.7738 90.901Z" fill="black"/>
<path d="M49.7216 82.1371C50.0269 82.0905 50.3129 81.9585 50.5464 81.7563C50.7799 81.554 50.9516 81.2899 51.0416 80.9942C51.1188 80.6972 51.0986 80.3803 51.1859 80.0862C51.4005 79.3634 52.1716 78.9865 52.6884 78.4378C53.7243 77.3381 53.657 75.5287 52.9237 74.2075C52.3319 73.1412 51.1839 72.2408 49.9831 72.4493C49.2396 72.5783 48.5964 73.1087 47.8433 73.1564C47.1184 73.2024 46.4545 72.796 45.7937 72.4942C44.1998 71.7724 42.4083 71.6133 40.7123 72.0429C40.1909 72.1467 39.7075 72.3906 39.3142 72.7486C39.0469 73.0846 38.7979 73.4348 38.5684 73.7977C37.7108 74.8906 36.1771 75.104 34.811 75.3521C33.4448 75.6002 31.8986 76.1398 31.4496 77.4547C31.1518 78.3265 31.4407 79.2734 31.6117 80.1788C31.6681 80.3645 31.6551 80.5643 31.5753 80.7412C31.3622 81.0939 30.8286 80.9463 30.4255 81.031C29.6503 81.1938 29.4511 82.1932 29.4226 82.9853C29.3899 83.8919 29.3653 84.7987 29.3488 85.7058C29.3267 86.0444 29.3537 86.3845 29.429 86.7154C29.5977 87.1877 29.8641 87.6192 30.2108 87.9815L33.2462 91.631C34.5921 93.249 36.0214 95.1351 35.7501 97.2228C36.3881 97.5093 37.1456 96.9582 37.3548 96.2904C37.564 95.6227 37.3951 94.9034 37.2533 94.2181C37.0083 93.0335 36.848 91.8329 36.7734 90.6254C36.6933 90.0202 36.7656 89.4045 36.9839 88.8344C37.2424 88.2844 37.8498 87.8519 38.4412 87.9903C39.2286 88.1746 39.5674 89.1994 40.3379 89.4452C40.9874 89.6524 41.6983 89.1908 42.008 88.583C42.3177 87.9753 42.326 87.2639 42.3276 86.5817L42.3331 84.2757C42.335 83.4402 42.3597 82.5357 42.875 81.8783C43.5161 81.0603 45.0225 80.703 46.0279 80.7357C46.6973 80.7435 47.3392 81.0027 47.8266 81.4619C48.3661 81.9202 48.9873 82.2568 49.7216 82.1371Z" fill="#3F3D56"/>
<path opacity="0.1" d="M47.6039 111.016L44.7251 122.851C44.7251 122.851 42.4561 122.838 47.6039 111.016Z" fill="black"/>
<path opacity="0.1" d="M37.7681 109.038C37.7681 109.038 41.537 115.216 40.0662 121.603L39.364 121.654C39.364 121.654 40.6178 118.698 37.7681 109.038Z" fill="black"/>
<path opacity="0.1" d="M35.378 143.997C35.378 143.997 30.7502 142.465 30.4141 146.021C30.4141 146.021 31.2874 143.583 35.378 143.997Z" fill="black"/>
<path opacity="0.1" d="M48.753 123.574C48.753 123.574 49.6722 130.014 48.0176 132.589C48.0176 132.589 51.3833 133.969 56.107 133.693L56.6586 123.574L48.753 123.574Z" fill="black"/>
<path opacity="0.1" d="M48.123 131.865L48.5698 132.113L51.4186 125.69L48.7532 123.298H48.6153C48.6155 123.302 48.6159 123.307 48.6167 123.311C48.6581 123.607 49.4013 129.138 48.123 131.865Z" fill="black"/>
<path d="M48.753 123.298C48.753 123.298 49.6722 129.738 48.0176 132.313C48.0176 132.313 51.3833 133.693 56.107 133.417L59.3244 123.298H48.753Z" fill="#3F3D56"/>
<path d="M56.1157 233.097C56.1692 233.556 56.3737 233.984 56.6968 234.314C57.0199 234.644 57.4435 234.857 57.9008 234.92C60.3974 235.293 66.4101 234.185 67.9287 234.908C69.8591 235.828 77.4885 235.184 77.8566 234.265C77.9085 234.081 77.9235 233.888 77.9008 233.698C77.8781 233.508 77.8181 233.325 77.7242 233.158C77.4632 232.597 77.0318 232.133 76.4915 231.832C76.3158 231.732 76.1306 231.65 75.9386 231.586C74.5018 231.106 71.7868 230.088 71.0546 229.021C71.0546 229.021 67.6715 226.058 66.7059 224.456C66.5246 224.141 66.2684 223.876 65.9601 223.684C65.6518 223.492 65.301 223.379 64.9386 223.355C64.1333 223.319 63.2363 223.724 62.8696 225.49C62.8696 225.49 58.4599 228.008 57.2658 225.8C57.2658 225.8 57.0824 231.252 56.3502 232.179C56.3489 232.181 56.3475 232.184 56.3461 232.185C56.2495 232.314 56.1794 232.461 56.1398 232.618C56.1003 232.775 56.0921 232.938 56.1157 233.097Z" fill="#CBCEDA"/>
<path opacity="0.1" d="M56.1157 233.097C56.1692 233.556 56.3737 233.984 56.6968 234.314C57.0199 234.644 57.4435 234.857 57.9008 234.92C60.3974 235.293 66.4101 234.185 67.9287 234.908C69.8591 235.828 77.4885 235.184 77.8566 234.265C77.9085 234.081 77.9235 233.888 77.9008 233.698C77.8781 233.508 77.8181 233.325 77.7242 233.158C77.4632 232.597 77.0318 232.133 76.4915 231.832C75.2478 232.657 72.4859 233.466 66.4119 232.516C60.6179 231.611 57.7498 232.784 56.3502 232.179C56.3489 232.181 56.3475 232.184 56.3461 232.185C56.2495 232.314 56.1794 232.461 56.1398 232.618C56.1003 232.775 56.0921 232.938 56.1157 233.097Z" fill="black"/>
<g opacity="0.1">
<path opacity="0.1" d="M31.6198 80.308C31.6172 80.2933 31.6147 80.2784 31.612 80.2639C31.4817 79.5744 31.2839 78.8609 31.3281 78.1748C31.3873 78.7386 31.4821 79.2981 31.612 79.8499C31.6501 79.9999 31.6528 80.1568 31.6198 80.308Z" fill="black"/>
<path opacity="0.1" d="M36.9842 88.9195C36.839 89.2511 36.7623 89.6087 36.7585 89.9708C36.7169 89.4714 36.7942 88.9692 36.9842 88.5055C37.2427 87.9555 37.8502 87.5231 38.4415 87.6615C39.2289 87.8457 39.5677 88.8706 40.3382 89.1163C40.9877 89.3235 41.6987 88.8619 42.0084 88.2541C42.3181 87.6464 42.3264 86.935 42.328 86.2528C42.3298 85.4842 42.3316 84.7155 42.3334 83.9468C42.3354 83.1113 42.36 82.2068 42.8753 81.5494C43.5164 80.7314 45.0229 80.3741 46.0283 80.4068C46.6976 80.4146 47.3396 80.6738 47.827 81.133C48.3665 81.5913 48.9877 81.9279 49.722 81.8082C50.0273 81.7616 50.3132 81.6296 50.5468 81.4274C50.7803 81.2252 50.952 80.961 51.0419 80.6653C51.1192 80.3683 51.0989 80.0515 51.1863 79.7573C51.4009 79.0345 52.1719 78.6576 52.6888 78.109C53.1712 77.5744 53.4463 76.8846 53.4641 76.1645C53.5021 76.5897 53.4529 77.0182 53.3196 77.4238C53.1862 77.8293 52.9716 78.2033 52.6888 78.5229C52.1719 79.0716 51.4009 79.4485 51.1863 80.1712C51.0989 80.4654 51.1192 80.7823 51.0419 81.0793C50.952 81.375 50.7803 81.6391 50.5468 81.8414C50.3132 82.0436 50.0273 82.1756 49.722 82.2222C48.9877 82.3419 48.3665 82.0053 47.827 81.547C47.3396 81.0878 46.6976 80.8286 46.0283 80.8208C45.0229 80.7881 43.5164 81.1454 42.8753 81.9634C42.36 82.6208 42.3354 83.5253 42.3334 84.3608C42.3316 85.1295 42.3298 85.8981 42.328 86.6668C42.3264 87.349 42.3181 88.0604 42.0084 88.6681C41.6987 89.2759 40.9877 89.7375 40.3382 89.5303C39.5677 89.2845 39.2289 88.2597 38.4415 88.0754C37.8502 87.937 37.2427 88.3695 36.9842 88.9195Z" fill="black"/>
<path opacity="0.1" d="M29.4295 86.3865C29.5982 86.8588 29.8646 87.2903 30.2112 87.6526C31.2231 88.8691 32.2349 90.0856 33.2467 91.3021C34.5245 92.8384 35.8765 94.6163 35.7778 96.5791C35.6857 94.7798 34.4341 93.1436 33.2467 91.716C32.2349 90.4996 31.2231 89.2831 30.2112 88.0666C29.8646 87.7043 29.5982 87.2728 29.4295 86.8005C29.3542 86.4697 29.3272 86.1297 29.3492 85.7912C29.352 85.9921 29.379 86.192 29.4295 86.3865Z" fill="black"/>
<path opacity="0.1" d="M37.3552 95.9616C37.4044 95.8016 37.4348 95.6363 37.4459 95.4693C37.4722 95.7744 37.4414 96.0817 37.3552 96.3756C37.146 97.0433 36.3884 97.5944 35.7505 97.3079C35.7677 97.1744 35.7782 97.04 35.782 96.9054C36.4132 97.1606 37.1494 96.6184 37.3552 95.9616Z" fill="black"/>
</g>
<path opacity="0.1" d="M67.3123 225.289C67.3123 225.289 66.3517 226.981 62.8696 225.49L67.3123 225.289Z" fill="black"/>
<path opacity="0.1" d="M38.4652 225.402C38.4652 225.402 35.4616 228.94 31.6777 226.562L38.4652 225.402Z" fill="black"/>
<path opacity="0.1" d="M29.7246 183.555C29.7246 183.555 31.8463 184.882 31.9152 185.641C31.9842 186.4 30.8199 185.089 30.8199 185.089L29.7246 183.555Z" fill="black"/>
<path opacity="0.1" d="M28.8877 193.727C29.6255 194.342 30.543 194.701 31.5019 194.748C33.0877 194.817 32.9557 196.887 31.9186 196.266C30.8814 195.645 28.8877 193.727 28.8877 193.727Z" fill="black"/>
<path opacity="0.1" d="M28.4839 195.055C28.4839 195.055 29.5025 200.061 30.3298 199.095L28.4839 195.055Z" fill="black"/>
<path d="M4.03159 190.008C4.92238 190.332 5.87621 190.444 6.81789 190.336C7.75958 190.229 8.66338 189.904 9.45807 189.387C10.2528 188.87 10.9166 188.175 11.3973 187.357C11.878 186.54 12.1623 185.622 12.228 184.676C12.2937 183.729 12.1388 182.781 11.7756 181.904C11.4125 181.028 10.8509 180.249 10.1352 179.627C9.41958 179.005 8.56936 178.558 7.65159 178.321C6.73382 178.084 5.7736 178.063 4.84661 178.261L4.99979 181.413L3.50946 178.712C2.04678 179.4 0.9168 180.64 0.367833 182.162C0.172873 182.694 0.0543528 183.252 0.0158068 183.818C-0.0782722 185.147 0.262862 186.469 0.987514 187.586C1.71217 188.703 2.78084 189.553 4.03159 190.008Z" fill="#57B894"/>
<path d="M11.4054 226.571C10.8793 223.89 13.1589 221.513 15.4107 219.968C17.6625 218.423 20.2936 216.905 21.0619 214.283C22.1661 210.515 18.877 207.065 16.317 204.089C14.4178 201.88 12.7868 199.454 11.4581 196.862C10.9256 195.822 10.4361 194.735 10.2959 193.576C10.0941 191.905 10.6303 190.243 11.1704 188.65C12.9699 183.343 14.8939 178.08 16.9424 172.862" stroke="#3F3D56" stroke-miterlimit="10"/>
<path d="M4.28355 189.196C5.17433 189.52 6.12816 189.633 7.06985 189.525C8.01153 189.417 8.91534 189.092 9.71003 188.575C10.5047 188.058 11.1686 187.363 11.6492 186.546C12.1299 185.728 12.4143 184.81 12.48 183.864C12.5456 182.918 12.3907 181.969 12.0276 181.093C11.6644 180.217 11.1029 179.437 10.3872 178.815C9.67153 178.193 8.82131 177.746 7.90355 177.509C6.98578 177.272 6.02555 177.252 5.09856 177.449L5.25174 180.602L3.76141 177.9C2.29873 178.588 1.16875 179.829 0.619786 181.35C0.424827 181.883 0.306307 182.441 0.26776 183.007C0.173682 184.335 0.514816 185.658 1.23947 186.775C1.96412 187.892 3.03279 188.742 4.28355 189.196V189.196Z" stroke="#3F3D56" stroke-miterlimit="10"/>
<path d="M10.6575 171.773C11.0071 170.808 11.5938 169.946 12.3636 169.267C13.1334 168.589 14.0616 168.115 15.0625 167.889L15.5664 170.886L16.5006 167.738C17.7978 167.758 19.0552 168.189 20.0914 168.97C21.1277 169.751 21.8891 170.842 22.2657 172.084C22.6423 173.326 22.6147 174.656 22.1868 175.882C21.7589 177.108 20.9528 178.165 19.885 178.903C18.8172 179.64 17.543 180.019 16.2461 179.984C14.9493 179.949 13.6971 179.503 12.6703 178.709C11.6434 177.916 10.8951 176.817 10.5333 175.57C10.1715 174.323 10.215 172.993 10.6575 171.773H10.6575Z" fill="#57B894"/>
<path d="M10.9935 170.691C11.343 169.726 11.9298 168.864 12.6996 168.185C13.4694 167.506 14.3975 167.032 15.3984 166.807L15.9023 169.804L16.8366 166.656C18.1337 166.676 19.3912 167.107 20.4274 167.888C21.4636 168.669 22.225 169.759 22.6016 171.002C22.9783 172.244 22.9506 173.574 22.5227 174.8C22.0948 176.025 21.2888 177.083 20.221 177.821C19.1532 178.558 17.8789 178.936 16.5821 178.902C15.2853 178.867 14.033 178.421 13.0062 177.627C11.9794 176.834 11.231 175.734 10.8692 174.488C10.5075 173.241 10.551 171.911 10.9935 170.691H10.9935Z" stroke="#3F3D56" stroke-miterlimit="10"/>
<path d="M15.2433 204.149C16.656 204.662 18.2078 204.637 19.6031 204.078C20.9983 203.52 22.1394 202.467 22.8087 201.12C23.4781 199.774 23.629 198.228 23.2326 196.777C22.8363 195.326 21.9204 194.072 20.6595 193.254L19.9417 195.673L19.4326 192.641C19.4276 192.638 19.4224 192.636 19.4171 192.635C18.6615 192.36 17.8592 192.237 17.056 192.272C16.2528 192.308 15.4645 192.502 14.7362 192.842C14.0078 193.183 13.3536 193.664 12.811 194.257C12.2684 194.851 11.848 195.546 11.5739 196.302C11.2997 197.059 11.1771 197.862 11.2132 198.665C11.2492 199.469 11.4432 200.258 11.7839 200.987C12.1247 201.715 12.6056 202.37 13.1992 202.913C13.7927 203.455 14.4873 203.876 15.2433 204.149H15.2433Z" fill="#57B894"/>
<path d="M15.5343 203.053C16.947 203.566 18.4988 203.541 19.8941 202.982C21.2893 202.424 22.4304 201.371 23.0997 200.024C23.7691 198.678 23.92 197.132 23.5236 195.681C23.1273 194.23 22.2114 192.976 20.9506 192.158L20.2327 194.577L19.7237 191.545C19.7186 191.542 19.7134 191.54 19.7081 191.539C18.9525 191.264 18.1502 191.141 17.347 191.176C16.5438 191.212 15.7555 191.406 15.0272 191.746C14.2988 192.087 13.6446 192.568 13.102 193.161C12.5594 193.755 12.139 194.45 11.8649 195.206C11.5907 195.963 11.4682 196.766 11.5042 197.569C11.5402 198.373 11.7342 199.162 12.075 199.891C12.4157 200.619 12.8966 201.274 13.4902 201.816C14.0837 202.359 14.7783 202.779 15.5343 203.053H15.5343Z" stroke="#3F3D56" stroke-miterlimit="10"/>
<path d="M8.87184 214.321C9.11474 215.704 9.82549 216.962 10.8849 217.883C11.9443 218.804 13.2879 219.332 14.6904 219.379C16.093 219.427 17.4691 218.99 18.588 218.142C19.7069 217.295 20.5006 216.088 20.8359 214.724C21.1713 213.36 21.0279 211.923 20.4298 210.652C19.8317 209.382 18.8153 208.356 17.551 207.746C16.2867 207.137 14.8515 206.981 13.486 207.305C12.1205 207.628 10.9078 208.412 10.0512 209.525L12.7779 213.632L9.05219 211.452C8.76331 212.38 8.70146 213.364 8.87184 214.321Z" fill="#57B894"/>
<path d="M9.1238 213.509C9.36669 214.892 10.0774 216.15 11.1368 217.071C12.1963 217.992 13.5399 218.52 14.9424 218.568C16.3449 218.615 17.721 218.178 18.8399 217.331C19.9589 216.483 20.7525 215.276 21.0879 213.912C21.4232 212.549 21.2798 211.111 20.6817 209.841C20.0836 208.57 19.0672 207.544 17.8029 206.935C16.5387 206.325 15.1034 206.169 13.7379 206.493C12.3724 206.817 11.1597 207.601 10.3031 208.713L13.0299 212.82L9.30415 210.64C9.01527 211.568 8.95341 212.552 9.1238 213.509V213.509Z" stroke="#3F3D56" stroke-miterlimit="10"/>
<path d="M2.90869 230.202C2.90869 230.202 8.30922 228.084 9.9368 226.924C11.5644 225.765 18.2442 224.38 18.6479 226.24C19.0517 228.1 26.7639 235.492 20.6667 235.541C14.5696 235.59 6.49965 236.542 4.8752 235.552C3.25076 234.561 2.90869 230.202 2.90869 230.202Z" fill="#656380"/>
<path opacity="0.2" d="M20.7755 234.893C14.6784 234.942 6.60845 235.894 4.984 234.904C3.7469 234.15 3.25393 231.444 3.08898 230.195C2.97475 230.2 2.90869 230.202 2.90869 230.202C2.90869 230.202 3.25075 234.561 4.8752 235.552C6.49965 236.542 14.5696 235.59 20.6667 235.541C22.4267 235.527 23.0347 234.9 23.0013 233.972C22.7568 234.533 22.0855 234.883 20.7755 234.893Z" fill="black"/>
<path d="M14.9429 235.299H94.9268" stroke="#3F3D56" stroke-miterlimit="10"/>
</g>
<defs>
<linearGradient id="paint0_linear" x1="63.6587" y1="225.291" x2="63.6587" y2="225.159" gradientUnits="userSpaceOnUse">
<stop stop-color="#808080" stop-opacity="0.25"/>
<stop offset="0.53514" stop-color="#808080" stop-opacity="0.12"/>
<stop offset="1" stop-color="#808080" stop-opacity="0.1"/>
</linearGradient>
<clipPath id="clip0">
<rect width="287.436" height="236" fill="white"/>
</clipPath>
</defs>
</svg>
