<svg width="267" height="257" viewBox="0 0 267 257" fill="none" xmlns="http://www.w3.org/2000/svg">
<path d="M75.82 256V246.662H74.658V253.956L69.282 246.662H68.092V256H69.254V248.552L74.7 256H75.82ZM80.9161 256.168C82.9741 256.168 84.2621 254.572 84.2621 252.612C84.2621 250.652 82.9741 249.07 80.9161 249.07C78.8581 249.07 77.5701 250.652 77.5701 252.612C77.5701 254.572 78.8581 256.168 80.9161 256.168ZM80.9161 255.23C79.4741 255.23 78.6621 253.998 78.6621 252.612C78.6621 251.24 79.4741 250.008 80.9161 250.008C82.3581 250.008 83.1561 251.24 83.1561 252.612C83.1561 253.998 82.3581 255.23 80.9161 255.23ZM90.7872 256V251.744H95.6452V250.708H90.7872V247.698H95.7432V246.662H89.6252V256H90.7872ZM102.558 256V251.352C102.558 249.714 101.368 249.07 99.9405 249.07C98.8345 249.07 97.9665 249.434 97.2385 250.19L97.7285 250.918C98.3305 250.274 98.9885 249.98 99.8005 249.98C100.78 249.98 101.508 250.498 101.508 251.408V252.626C100.962 251.996 100.192 251.702 99.2685 251.702C98.1205 251.702 96.9025 252.416 96.9025 253.928C96.9025 255.398 98.1205 256.168 99.2685 256.168C100.178 256.168 100.948 255.846 101.508 255.23V256H102.558ZM99.6465 255.412C98.6665 255.412 97.9805 254.796 97.9805 253.942C97.9805 253.074 98.6665 252.458 99.6465 252.458C100.388 252.458 101.102 252.738 101.508 253.298V254.572C101.102 255.132 100.388 255.412 99.6465 255.412ZM107.617 256L110.431 249.238H109.283L107.043 254.782L104.789 249.238H103.655L106.469 256H107.617ZM114.481 256.168C116.539 256.168 117.827 254.572 117.827 252.612C117.827 250.652 116.539 249.07 114.481 249.07C112.423 249.07 111.135 250.652 111.135 252.612C111.135 254.572 112.423 256.168 114.481 256.168ZM114.481 255.23C113.039 255.23 112.227 253.998 112.227 252.612C112.227 251.24 113.039 250.008 114.481 250.008C115.923 250.008 116.721 251.24 116.721 252.612C116.721 253.998 115.923 255.23 114.481 255.23ZM125.152 256V249.238H124.102V254.208C123.71 254.754 122.926 255.23 122.1 255.23C121.19 255.23 120.588 254.88 120.588 253.69V249.238H119.538V254.012C119.538 255.482 120.28 256.168 121.694 256.168C122.702 256.168 123.584 255.636 124.102 255.048V256H125.152ZM128.299 256V251.212C128.607 250.666 129.489 250.134 130.133 250.134C130.301 250.134 130.427 250.148 130.553 250.176V249.098C129.629 249.098 128.845 249.616 128.299 250.33V249.238H127.249V256H128.299ZM132.388 248.272C132.78 248.272 133.102 247.964 133.102 247.572C133.102 247.18 132.78 246.858 132.388 246.858C132.01 246.858 131.688 247.18 131.688 247.572C131.688 247.964 132.01 248.272 132.388 248.272ZM132.92 256V249.238H131.87V256H132.92ZM136.723 256.168C137.339 256.168 137.717 255.986 137.983 255.734L137.675 254.95C137.535 255.104 137.255 255.23 136.961 255.23C136.499 255.23 136.275 254.866 136.275 254.362V250.162H137.647V249.238H136.275V247.39H135.225V249.238H134.105V250.162H135.225V254.586C135.225 255.594 135.729 256.168 136.723 256.168ZM142.182 256.168C143.288 256.168 144.198 255.804 144.87 255.132L144.366 254.446C143.834 254.992 143.05 255.3 142.28 255.3C140.824 255.3 139.928 254.236 139.844 252.962H145.318V252.696C145.318 250.666 144.114 249.07 142.07 249.07C140.138 249.07 138.738 250.652 138.738 252.612C138.738 254.726 140.18 256.168 142.182 256.168ZM144.282 252.192H139.844C139.9 251.156 140.614 249.938 142.056 249.938C143.596 249.938 144.268 251.184 144.282 252.192ZM149.161 256.168C150.911 256.168 151.821 255.258 151.821 254.124C151.821 251.492 147.635 252.472 147.635 250.988C147.635 250.386 148.209 249.924 149.133 249.924C150.001 249.924 150.743 250.288 151.149 250.778L151.639 250.05C151.093 249.504 150.281 249.07 149.133 249.07C147.523 249.07 146.613 249.966 146.613 251.016C146.613 253.522 150.799 252.514 150.799 254.152C150.799 254.824 150.239 255.314 149.203 255.314C148.279 255.314 147.425 254.866 146.977 254.348L146.431 255.104C147.117 255.832 148.055 256.168 149.161 256.168ZM158.34 256V251.744H163.198V250.708H158.34V247.698H163.296V246.662H157.178V256H158.34ZM167.787 256.168C169.845 256.168 171.133 254.572 171.133 252.612C171.133 250.652 169.845 249.07 167.787 249.07C165.729 249.07 164.441 250.652 164.441 252.612C164.441 254.572 165.729 256.168 167.787 256.168ZM167.787 255.23C166.345 255.23 165.533 253.998 165.533 252.612C165.533 251.24 166.345 250.008 167.787 250.008C169.229 250.008 170.027 251.24 170.027 252.612C170.027 253.998 169.229 255.23 167.787 255.23ZM178.459 256V249.238H177.409V254.208C177.017 254.754 176.233 255.23 175.407 255.23C174.497 255.23 173.895 254.88 173.895 253.69V249.238H172.845V254.012C172.845 255.482 173.587 256.168 175.001 256.168C176.009 256.168 176.891 255.636 177.409 255.048V256H178.459ZM186.17 256V251.254C186.17 249.784 185.428 249.07 184.014 249.07C183.006 249.07 182.082 249.658 181.606 250.218V249.238H180.556V256H181.606V251.058C181.998 250.512 182.782 250.008 183.608 250.008C184.518 250.008 185.12 250.386 185.12 251.576V256H186.17ZM194.217 256V246.662H193.167V250.26C192.621 249.518 191.795 249.07 190.885 249.07C189.107 249.07 187.875 250.47 187.875 252.626C187.875 254.824 189.121 256.168 190.885 256.168C191.837 256.168 192.663 255.678 193.167 254.992V256H194.217ZM191.137 255.23C189.779 255.23 188.967 254.124 188.967 252.626C188.967 251.128 189.779 250.008 191.137 250.008C191.977 250.008 192.789 250.512 193.167 251.1V254.166C192.789 254.754 191.977 255.23 191.137 255.23ZM197.314 253.382L197.538 246.662H196.222L196.446 253.382H197.314ZM196.88 256.14C197.3 256.14 197.65 255.776 197.65 255.37C197.65 254.95 197.3 254.6 196.88 254.6C196.46 254.6 196.11 254.95 196.11 255.37C196.11 255.776 196.46 256.14 196.88 256.14Z" fill="black"/>
<g clip-path="url(#clip0)">
<path d="M210.367 236L30.9851 173.121L81.992 27.608L266.809 84.6154L210.367 236Z" fill="#E57697"/>
<path d="M243.215 235.154H27.876V235.818H243.215V235.154Z" fill="#2F2E41"/>
<path d="M209.846 235.658L209.116 235.281C218.602 216.942 213.529 193.126 207.604 176.376C203.58 165.118 198.448 154.287 192.284 144.043L192.978 143.604C199.175 153.9 204.334 164.786 208.378 176.102C214.358 193.005 219.466 217.059 209.846 235.658Z" fill="#2F2E41"/>
<path d="M216.88 143.751L211.548 172.932L212.357 173.079L217.689 143.899L216.88 143.751Z" fill="#2F2E41"/>
<path d="M181.425 168.613L180.823 169.173L208.358 198.763L208.96 198.203L181.425 168.613Z" fill="#2F2E41"/>
<path d="M230.926 201.116L216.959 220.437L217.625 220.918L231.592 201.598L230.926 201.116Z" fill="#2F2E41"/>
<path d="M174.548 167.66C176.818 167.66 178.658 165.82 178.658 163.55C178.658 161.281 176.818 159.441 174.548 159.441C172.279 159.441 170.439 161.281 170.439 163.55C170.439 165.82 172.279 167.66 174.548 167.66Z" fill="#3F3D56"/>
<path d="M192.631 171.77C194.901 171.77 196.741 169.93 196.741 167.66C196.741 165.39 194.901 163.55 192.631 163.55C190.361 163.55 188.521 165.39 188.521 167.66C188.521 169.93 190.361 171.77 192.631 171.77Z" fill="#3F3D56"/>
<path d="M184.411 187.798C186.681 187.798 188.521 185.958 188.521 183.688C188.521 181.418 186.681 179.578 184.411 179.578C182.142 179.578 180.302 181.418 180.302 183.688C180.302 185.958 182.142 187.798 184.411 187.798Z" fill="#EDEDED"/>
<path d="M235.783 198.072C238.052 198.072 239.892 196.232 239.892 193.962C239.892 191.692 238.052 189.852 235.783 189.852C233.513 189.852 231.673 191.692 231.673 193.962C231.673 196.232 233.513 198.072 235.783 198.072Z" fill="#3F3D56"/>
<path d="M222.221 202.592C224.49 202.592 226.33 200.752 226.33 198.483C226.33 196.213 224.49 194.373 222.221 194.373C219.951 194.373 218.111 196.213 218.111 198.483C218.111 200.752 219.951 202.592 222.221 202.592Z" fill="#EDEDED"/>
<path d="M231.673 215.743C233.943 215.743 235.783 213.903 235.783 211.634C235.783 209.364 233.943 207.524 231.673 207.524C229.403 207.524 227.563 209.364 227.563 211.634C227.563 213.903 229.403 215.743 231.673 215.743Z" fill="#3F3D56"/>
<path d="M188.521 140.947C190.791 140.947 192.631 139.107 192.631 136.837C192.631 134.568 190.791 132.728 188.521 132.728C186.252 132.728 184.412 134.568 184.412 136.837C184.412 139.107 186.252 140.947 188.521 140.947Z" fill="#3F3D56"/>
<path d="M214.662 184.311L214.083 183.728C228.741 169.187 231.226 144.964 230.729 127.204C230.356 115.254 228.798 103.371 226.076 91.729L226.872 91.5245C229.608 103.226 231.175 115.169 231.551 127.18C232.052 145.103 229.529 169.563 214.662 184.311Z" fill="#2F2E41"/>
<path d="M249.574 99.0003L235.541 125.135L236.265 125.523L250.298 99.389L249.574 99.0003Z" fill="#2F2E41"/>
<path d="M208.198 111.778L207.453 112.126L224.574 148.741L225.319 148.392L208.198 111.778Z" fill="#2F2E41"/>
<path d="M245.329 157.909L226.105 172.008L226.592 172.671L245.815 158.572L245.329 157.909Z" fill="#2F2E41"/>
<path d="M255.556 92.5953C257.825 92.5953 259.665 90.7554 259.665 88.4856C259.665 86.2159 257.825 84.3759 255.556 84.3759C253.286 84.3759 251.446 86.2159 251.446 88.4856C251.446 90.7554 253.286 92.5953 255.556 92.5953Z" fill="#EDEDED"/>
<path d="M203.208 108.959C205.478 108.959 207.318 107.119 207.318 104.849C207.318 102.579 205.478 100.739 203.208 100.739C200.938 100.739 199.098 102.579 199.098 104.849C199.098 107.119 200.938 108.959 203.208 108.959Z" fill="#3F3D56"/>
<path d="M219.156 118.421C221.425 118.421 223.265 116.581 223.265 114.312C223.265 112.042 221.425 110.202 219.156 110.202C216.886 110.202 215.046 112.042 215.046 114.312C215.046 116.581 216.886 118.421 219.156 118.421Z" fill="#3F3D56"/>
<path d="M206.412 131.152C208.682 131.152 210.522 129.312 210.522 127.042C210.522 124.772 208.682 122.932 206.412 122.932C204.143 122.932 202.303 124.772 202.303 127.042C202.303 129.312 204.143 131.152 206.412 131.152Z" fill="#EDEDED"/>
<path d="M252.148 156.701C254.418 156.701 256.258 154.861 256.258 152.592C256.258 150.322 254.418 148.482 252.148 148.482C249.879 148.482 248.039 150.322 248.039 152.592C248.039 154.861 249.879 156.701 252.148 156.701Z" fill="#3F3D56"/>
<path d="M237.853 156.84C240.123 156.84 241.963 155 241.963 152.73C241.963 150.461 240.123 148.621 237.853 148.621C235.584 148.621 233.744 150.461 233.744 152.73C233.744 155 235.584 156.84 237.853 156.84Z" fill="#3F3D56"/>
<path d="M242.811 172.258C245.081 172.258 246.921 170.418 246.921 168.148C246.921 165.878 245.081 164.038 242.811 164.038C240.542 164.038 238.702 165.878 238.702 168.148C238.702 170.418 240.542 172.258 242.811 172.258Z" fill="#3F3D56"/>
<path d="M224.708 87.8257C226.977 87.8257 228.817 85.9857 228.817 83.716C228.817 81.4463 226.977 79.6063 224.708 79.6063C222.438 79.6063 220.598 81.4463 220.598 83.716C220.598 85.9857 222.438 87.8257 224.708 87.8257Z" fill="#3F3D56"/>
<path d="M94.5374 36.2369C92.9986 34.8451 92.0388 32.9259 91.8484 30.8598C91.6581 28.7937 92.251 26.7315 93.5096 25.0819C93.343 25.2381 93.1802 25.4003 93.0243 25.5727C91.5525 27.2005 90.7876 29.3464 90.8979 31.5381C91.0082 33.7299 91.9847 35.788 93.6125 37.2598C95.2403 38.7316 97.3862 39.4965 99.5779 39.3862C101.77 39.2759 103.828 38.2994 105.3 36.6716C105.456 36.4992 105.601 36.3209 105.739 36.1394C104.224 37.5573 102.232 38.3543 100.157 38.3724C98.0825 38.3904 96.0767 37.6282 94.5374 36.2369Z" fill="#2F2E41"/>
<path d="M93.7617 38.2202C103.173 38.2202 110.803 30.5905 110.803 21.1787C110.803 11.767 103.173 4.13722 93.7617 4.13722C84.35 4.13722 76.7202 11.767 76.7202 21.1787C76.7202 30.5905 84.35 38.2202 93.7617 38.2202Z" fill="#2F2E41"/>
<path d="M47.8581 230.996C47.8581 230.996 43.3269 235.527 47.8581 235.527C52.3894 235.527 56.7237 232.572 56.7237 232.572L47.8581 230.996Z" fill="#2F2E41"/>
<path d="M113.766 228.156C113.766 228.156 112.512 234.441 116.281 231.925C120.051 229.41 122.016 224.547 122.016 224.547L113.766 228.156Z" fill="#2F2E41"/>
<path d="M64.801 81.0703L61.8458 87.9657L43.7208 112.001C43.7208 112.001 31.3091 125.398 38.2045 126.186C45.0999 126.974 49.6311 113.774 49.6311 113.774L70.9084 92.6939L73.2725 83.0404L64.801 81.0703Z" fill="#FFB8B8"/>
<path d="M73.8636 53.0946L71.0078 53.8941C71.0078 53.8941 59.8758 73.5838 61.0579 77.721C62.2399 81.8583 67.5593 86.9806 69.9234 86.5866C72.2875 86.1926 73.8636 53.0946 73.8636 53.0946Z" fill="#2F2E41"/>
<path d="M82.926 31.8174C82.926 31.8174 85.8811 44.0321 83.714 46.3962C81.5469 48.7604 76.8186 50.5335 76.8186 50.5335L77.6067 72.5988C77.6067 72.5988 86.6692 69.4466 87.0632 69.0526C87.4572 68.6585 95.5347 55.8528 95.5347 55.8528L103.415 48.3663C103.415 48.3663 91.3974 42.653 94.9437 32.8024C98.4899 22.9518 82.926 31.8174 82.926 31.8174Z" fill="#FFB8B8"/>
<path d="M90.2156 36.3486C95.8735 36.3486 100.46 31.762 100.46 26.104C100.46 20.4461 95.8735 15.8594 90.2156 15.8594C84.5576 15.8594 79.9709 20.4461 79.9709 26.104C79.9709 31.762 84.5576 36.3486 90.2156 36.3486Z" fill="#FFB8B8"/>
<path d="M78.5918 49.5484C78.5918 49.5484 71.3024 51.5185 70.9084 54.2767C70.5143 57.0348 70.9084 62.7482 70.3173 63.9303C69.7263 65.1123 67.9532 66.8854 68.7412 74.3719C69.5293 81.8583 69.1353 86.3896 69.1353 86.3896C69.1353 86.3896 29.1419 227.45 43.3267 231.587C57.5116 235.724 78.3948 231.193 78.1978 228.435C78.0008 225.677 74.4546 171.105 74.4546 171.105C74.4546 171.105 95.1408 243.605 120.752 226.662C146.364 209.719 140.65 206.567 138.286 205.385C135.922 204.202 100.263 148.054 100.46 137.613C100.657 127.171 100.066 94.467 95.7318 89.5418C95.7318 89.5418 100.263 74.5689 102.43 72.5988C104.597 70.6286 109.917 52.1096 109.917 52.1096C109.917 52.1096 106.567 47.5783 103.809 47.5783C101.051 47.5783 98.49 48.5634 95.3378 51.5185C92.1856 54.4737 80.5619 68.8555 80.5619 68.8555C80.5619 68.8555 76.8187 52.3066 78.5918 49.5484Z" fill="#2F2E41"/>
<path d="M90.1172 22.8533C94.9047 22.8533 98.7857 20.2072 98.7857 16.943C98.7857 13.6788 94.9047 11.0327 90.1172 11.0327C85.3298 11.0327 81.4487 13.6788 81.4487 16.943C81.4487 20.2072 85.3298 22.8533 90.1172 22.8533Z" fill="#2F2E41"/>
<path d="M104.893 16.549C109.463 16.549 113.167 12.8444 113.167 8.27449C113.167 3.70461 109.463 0 104.893 0C100.323 0 96.6184 3.70461 96.6184 8.27449C96.6184 12.8444 100.323 16.549 104.893 16.549Z" fill="#2F2E41"/>
<path d="M110.803 14.1848C108.728 14.1845 106.729 13.4046 105.202 11.9997C103.675 10.5949 102.732 8.66755 102.559 6.59987C102.541 6.82746 102.529 7.05697 102.529 7.28942C102.529 9.48395 103.4 11.5886 104.952 13.1404C106.504 14.6921 108.609 15.5639 110.803 15.5639C112.998 15.5639 115.102 14.6921 116.654 13.1404C118.206 11.5886 119.078 9.48395 119.078 7.28942C119.078 7.05698 119.066 6.82747 119.047 6.59987C118.874 8.66755 117.931 10.5949 116.404 11.9997C114.877 13.4046 112.878 14.1845 110.803 14.1848Z" fill="#2F2E41"/>
<path d="M40.7494 83.4113H0V124.161H40.7494V83.4113Z" fill="#3F3D56"/>
<path d="M13.9377 103.217C13.9377 103.217 19.0928 102.481 20.8111 97.8164C22.5295 93.1523 24.0024 89.2247 26.9481 89.9611C29.8938 90.6976 28.1755 100.026 28.1755 100.026C28.1755 100.026 34.3124 99.2893 34.5579 101.499C34.7611 103.328 34.6278 110.374 34.5759 112.744C34.5651 113.703 34.2706 114.638 33.7294 115.429C33.3472 116.009 32.8032 116.463 32.1649 116.736C31.5266 117.009 30.8222 117.088 30.1393 116.964C28.7775 116.794 27.4053 116.722 26.0333 116.749C23.5741 116.78 21.1601 116.087 19.0928 114.754L13.9377 114.509L13.9377 103.217Z" fill="#EDEDED"/>
<path d="M16.6378 99.7803H6.08228V117.7H16.6378V99.7803Z" fill="#E57697"/>
<path d="M23.8288 93.197C23.4743 93.1977 23.1215 93.147 22.7815 93.0465L22.8515 92.8113C23.3175 92.95 23.8074 92.9895 24.2896 92.9271C24.7718 92.8647 25.2355 92.7018 25.6508 92.449C26.0661 92.1963 26.4238 91.8592 26.7007 91.4596C26.9777 91.0599 27.1677 90.6067 27.2586 90.1291L27.4998 90.1748C27.3385 91.0287 26.8828 91.7988 26.2119 92.3511C25.5411 92.9034 24.6978 93.2028 23.8288 93.197V93.197Z" fill="#3F3D56"/>
<path d="M146.474 134.462H105.724V175.212H146.474V134.462Z" fill="#3F3D56"/>
<path d="M119.662 155.406C119.662 155.406 124.817 156.143 126.536 160.807C128.254 165.471 129.727 169.398 132.672 168.662C135.618 167.926 133.9 158.597 133.9 158.597C133.9 158.597 140.037 159.334 140.282 157.125C140.486 155.295 140.352 148.249 140.3 145.879C140.29 144.92 139.995 143.986 139.454 143.194C139.072 142.614 138.528 142.16 137.889 141.887C137.251 141.614 136.547 141.535 135.864 141.659C134.502 141.829 133.13 141.901 131.758 141.874C129.298 141.843 126.884 142.536 124.817 143.869L119.662 144.114V155.406Z" fill="#EDEDED"/>
<path d="M122.362 140.923H111.807V158.843H122.362V140.923Z" fill="#E57697"/>
<path d="M129.553 165.426C129.199 165.425 128.846 165.476 128.506 165.577L128.576 165.812C129.042 165.673 129.532 165.634 130.014 165.696C130.496 165.758 130.96 165.921 131.375 166.174C131.79 166.427 132.148 166.764 132.425 167.164C132.702 167.563 132.892 168.016 132.983 168.494L133.224 168.448C133.063 167.594 132.607 166.824 131.936 166.272C131.265 165.72 130.422 165.42 129.553 165.426Z" fill="#3F3D56"/>
<path d="M110.508 79.2972L109.523 90.3298L111.493 123.428C111.493 123.428 116.024 140.174 109.129 139.78C102.233 139.386 104.794 122.246 104.794 122.246L101.642 83.8284L110.508 79.2972Z" fill="#FFB8B8"/>
<path d="M104.794 49.3514L109.917 52.1096C109.917 52.1096 116.812 76.145 112.872 80.6762C108.932 85.2075 100.854 86.9806 100.46 85.2075C100.066 83.4344 98.687 70.2346 98.687 70.2346L104.794 49.3514Z" fill="#2F2E41"/>
</g>
<defs>
<clipPath id="clip0">
<rect width="266.81" height="236" fill="white"/>
</clipPath>
</defs>
</svg>
