<svg width="305" height="239" viewBox="0 0 305 239" fill="none" xmlns="http://www.w3.org/2000/svg">
<g clip-path="url(#clip0)">
<path d="M63.7562 8.75778L65.0887 118.39L122.663 146.361L121.331 36.7286L63.7562 8.75778Z" fill="#EDEDED"/>
<path d="M46.2602 0L3.23901 88.0847L61.6128 116.444L60.2803 6.81118L46.2602 0Z" fill="#EDEDED"/>
<path d="M305 123.744L188.805 67.2949L190.137 176.927L261.979 211.829L305 123.744Z" fill="#EDEDED"/>
<path d="M126.536 36.7286L127.868 146.361L185.443 174.332L184.111 64.6994L126.536 36.7286Z" fill="#EDEDED"/>
<path d="M146.548 124.24L144.921 160.577C144.921 160.577 149.15 194.967 148.174 195.94C147.198 196.914 144.596 198.86 146.548 201.131C148.499 203.402 155.656 205.025 155.981 203.727C156.306 202.429 156.957 165.444 156.957 165.444L159.234 121.645L146.548 124.24Z" fill="#2F2E41"/>
<path opacity="0.2" d="M146.548 124.24L144.921 160.577C144.921 160.577 149.15 194.967 148.174 195.94C147.198 196.914 144.596 198.86 146.548 201.131C148.499 203.402 155.656 205.025 155.981 203.727C156.306 202.429 156.957 165.444 156.957 165.444L159.234 121.645L146.548 124.24Z" fill="black"/>
<path d="M148.174 200.483C148.174 200.483 140.042 206.647 139.066 206.647C138.09 206.647 129.307 209.567 135.487 210.864C141.668 212.162 156.632 211.513 156.957 209.567C157.282 207.62 155.981 201.713 155.981 201.713L148.174 200.483Z" fill="#2F2E41"/>
<path opacity="0.2" d="M148.174 200.483C148.174 200.483 140.042 206.647 139.066 206.647C138.09 206.647 129.307 209.567 135.487 210.864C141.668 212.162 156.632 211.513 156.957 209.567C157.282 207.62 155.981 201.713 155.981 201.713L148.174 200.483Z" fill="black"/>
<path d="M128.005 96.9879C128.005 96.9879 124.427 98.2857 124.427 99.259C124.427 100.232 121.174 112.561 120.524 113.21C119.873 113.859 119.548 116.778 119.548 116.778C119.548 116.778 116.295 124.24 116.945 124.24C117.596 124.24 123.126 122.943 123.451 124.24C123.777 125.538 126.379 116.13 126.379 116.13L131.909 105.099L128.005 96.9879Z" fill="#E57697"/>
<path d="M116.945 125.538C116.945 125.538 117.921 132.676 120.524 133.325C123.126 133.973 120.524 124.24 120.524 124.24L116.945 125.538Z" fill="#FFB8B8"/>
<path d="M125.403 93.0947C125.403 93.0947 127.355 97.3124 128.331 99.5834C129.307 101.854 138.415 93.7436 138.415 93.7436C138.415 93.7436 133.536 90.1748 133.536 88.5526C133.536 86.9305 125.403 93.0947 125.403 93.0947Z" fill="#FFB8B8"/>
<path d="M31.5669 198.554C33.7485 206.597 41.2208 211.578 41.2208 211.578C41.2208 211.578 45.1562 203.519 42.9746 195.476C40.793 187.433 33.3207 182.452 33.3207 182.452C33.3207 182.452 29.3853 190.511 31.5669 198.554Z" fill="#3F3D56"/>
<path d="M34.7725 196.825C40.7588 202.637 41.4899 211.572 41.4899 211.572C41.4899 211.572 32.5155 211.083 26.5292 205.271C20.5429 199.459 19.8118 190.525 19.8118 190.525C19.8118 190.525 28.7862 191.014 34.7725 196.825Z" fill="#E57697"/>
<path d="M109.138 211.838C103.283 211.838 97.56 210.106 92.6919 206.862C87.8238 203.618 84.0296 199.007 81.7891 193.612C79.5486 188.218 78.9624 182.281 80.1046 176.554C81.2468 170.827 84.0661 165.567 88.2061 161.438C92.346 157.309 97.6207 154.497 103.363 153.358C109.105 152.219 115.057 152.803 120.466 155.038C125.876 157.273 130.499 161.057 133.751 165.912C137.004 170.767 138.74 176.475 138.74 182.314C138.732 190.142 135.61 197.646 130.06 203.181C124.511 208.716 116.986 211.829 109.138 211.838ZM109.138 153.44C103.412 153.44 97.8145 155.133 93.0534 158.306C88.2923 161.479 84.5815 165.988 82.3902 171.264C80.1989 176.541 79.6256 182.346 80.7427 187.947C81.8598 193.549 84.6172 198.694 88.6661 202.732C92.7151 206.77 97.8738 209.52 103.49 210.634C109.106 211.748 114.927 211.176 120.217 208.991C125.508 206.805 130.029 203.105 133.211 198.356C136.392 193.608 138.09 188.025 138.09 182.314C138.081 174.659 135.028 167.319 129.6 161.906C124.173 156.493 116.814 153.448 109.138 153.44Z" fill="#2F2E41"/>
<path d="M200.222 211.838C194.367 211.838 188.644 210.106 183.776 206.862C178.908 203.618 175.114 199.007 172.873 193.612C170.632 188.218 170.046 182.281 171.188 176.554C172.331 170.827 175.15 165.567 179.29 161.438C183.43 157.309 188.705 154.497 194.447 153.358C200.189 152.219 206.141 152.803 211.55 155.038C216.959 157.273 221.583 161.057 224.835 165.912C228.088 170.767 229.824 176.475 229.824 182.314C229.815 190.142 226.694 197.646 221.144 203.181C215.595 208.716 208.07 211.829 200.222 211.838ZM200.222 153.44C194.496 153.44 188.898 155.133 184.137 158.306C179.376 161.479 175.665 165.988 173.474 171.264C171.283 176.541 170.709 182.346 171.827 187.947C172.944 193.549 175.701 198.694 179.75 202.732C183.799 206.77 188.958 209.52 194.574 210.634C200.19 211.748 206.011 211.176 211.301 208.991C216.592 206.805 221.113 203.105 224.294 198.356C227.476 193.608 229.174 188.025 229.174 182.314C229.165 174.659 226.112 167.319 220.684 161.906C215.257 156.493 207.898 153.448 200.222 153.44Z" fill="#2F2E41"/>
<path d="M109.138 184.261C110.216 184.261 111.09 183.389 111.09 182.314C111.09 181.239 110.216 180.368 109.138 180.368C108.06 180.368 107.186 181.239 107.186 182.314C107.186 183.389 108.06 184.261 109.138 184.261Z" fill="#2F2E41"/>
<path d="M200.873 184.261C201.951 184.261 202.824 183.389 202.824 182.314C202.824 181.239 201.951 180.368 200.873 180.368C199.795 180.368 198.921 181.239 198.921 182.314C198.921 183.389 199.795 184.261 200.873 184.261Z" fill="#2F2E41"/>
<path d="M112.04 179.522L111.441 179.267L128.443 139.484L176.656 140.466L176.749 140.612L200.496 177.597L199.948 177.947L176.295 141.108L128.869 140.142L112.04 179.522Z" fill="#2F2E41"/>
<path d="M162.691 186.916L175.186 142.969L175.812 143.146L163.585 186.148L196.277 181.992L196.359 182.636L162.691 186.916Z" fill="#2F2E41"/>
<path d="M127.262 149.319L126.797 149.773L160.303 183.839L160.768 183.385L127.262 149.319Z" fill="#2F2E41"/>
<path d="M178.437 132.59L176.488 139.728L177.116 139.899L179.065 132.761L178.437 132.59Z" fill="#2F2E41"/>
<path d="M129.624 137.614L128.989 137.47L130.526 130.729H125.078V126.512H125.728V130.08H131.341L129.624 137.614Z" fill="#2F2E41"/>
<path d="M166.716 126.187C166.716 126.187 166.716 124.24 170.945 125.214C175.174 126.187 188.186 128.783 189.162 128.458C190.138 128.134 189.813 130.405 185.584 131.378C181.355 132.351 176.475 130.08 175.499 129.431C174.523 128.783 166.716 126.187 166.716 126.187Z" fill="#2F2E41"/>
<path d="M155.005 184.261H146.548V187.505H155.005V184.261Z" fill="#E57697"/>
<path d="M163.138 193.021C161.851 193.021 160.593 192.64 159.523 191.927C158.453 191.214 157.619 190.201 157.127 189.015C156.635 187.829 156.506 186.525 156.757 185.266C157.008 184.007 157.628 182.851 158.537 181.944C159.447 181.036 160.607 180.418 161.869 180.168C163.131 179.918 164.439 180.046 165.628 180.537C166.816 181.028 167.833 181.86 168.547 182.927C169.262 183.994 169.644 185.249 169.644 186.532C169.642 188.252 168.956 189.901 167.736 191.118C166.516 192.334 164.863 193.019 163.138 193.021ZM163.138 180.692C161.98 180.692 160.848 181.035 159.885 181.676C158.922 182.318 158.171 183.23 157.728 184.297C157.285 185.364 157.169 186.538 157.395 187.671C157.621 188.804 158.179 189.845 158.997 190.661C159.816 191.478 160.86 192.034 161.996 192.259C163.131 192.485 164.309 192.369 165.379 191.927C166.449 191.485 167.363 190.737 168.006 189.776C168.65 188.816 168.993 187.687 168.993 186.532C168.991 184.984 168.374 183.499 167.276 182.404C166.179 181.31 164.69 180.694 163.138 180.692Z" fill="#2F2E41"/>
<path d="M128.331 96.3391C132.643 96.3391 136.138 92.853 136.138 88.5526C136.138 84.2523 132.643 80.7662 128.331 80.7662C124.019 80.7662 120.524 84.2523 120.524 88.5526C120.524 92.853 124.019 96.3391 128.331 96.3391Z" fill="#FFB8B8"/>
<path d="M153.054 124.889C153.054 124.889 130.608 137.867 130.933 142.084C131.258 146.302 148.174 169.337 148.174 169.337C148.174 169.337 149.475 176.15 150.776 176.15C152.078 176.15 160.21 179.07 160.535 177.123C160.861 175.177 157.933 172.906 158.258 171.608C158.584 170.31 143.945 146.626 143.945 146.626C143.945 146.626 175.274 134.947 168.718 124.889C162.162 114.832 153.054 124.889 153.054 124.889Z" fill="#2F2E41"/>
<path d="M153.704 174.852C153.704 174.852 149.801 175.826 149.15 177.123C148.499 178.421 137.114 182.639 140.367 183.612C143.62 184.585 162.487 184.91 163.138 184.261C163.788 183.612 163.138 176.081 160.535 176.115C157.933 176.15 155.005 177.123 153.704 174.852Z" fill="#2F2E41"/>
<path d="M128.331 100.557L135.65 91.6348C135.65 91.6348 143.945 89.2015 147.523 94.068C151.102 98.9345 160.861 110.939 164.114 113.534C167.367 116.13 171.921 126.187 170.294 126.511C168.668 126.836 159.56 122.943 155.981 125.538C152.403 128.134 145.572 128.458 145.246 127.16C144.921 125.863 125.403 104.125 125.403 101.206C125.403 98.2857 127.483 97.6591 127.483 97.6591L128.331 100.557Z" fill="#E57697"/>
<path d="M132.262 126.351L122.448 122.89C121.94 122.711 121.382 122.977 121.202 123.483C121.023 123.99 121.289 124.546 121.797 124.726L131.611 128.186C132.12 128.365 132.677 128.1 132.857 127.593C133.036 127.086 132.77 126.53 132.262 126.351Z" fill="#2F2E41"/>
<path d="M110.114 122.294C110.114 122.294 98.7285 125.538 99.7044 129.107C100.68 132.676 111.09 124.889 111.09 124.889L110.114 122.294Z" fill="#FFB8B8"/>
<path d="M139.716 94.068C139.716 94.068 135.162 97.9612 134.186 102.503C133.21 107.045 128.331 115.156 128.331 115.156L108.488 121.645C108.488 121.645 107.186 127.809 109.138 127.809C111.09 127.809 132.885 123.267 133.536 122.294C134.186 121.321 148.174 102.828 148.174 102.828C148.174 102.828 149.475 92.7703 139.716 94.068Z" fill="#E57697"/>
<path d="M123.482 79.5403C123.289 79.7056 123.059 79.8209 122.811 79.8759C122.687 79.898 122.559 79.8702 122.455 79.7984C122.351 79.7266 122.28 79.6168 122.257 79.4929C122.113 79.8897 121.847 80.2306 121.496 80.466C121.123 80.6597 120.547 80.4973 120.494 80.0818C120.439 80.3973 120.299 80.6919 120.089 80.9337C119.979 81.0494 119.828 81.1173 119.669 81.1226C119.509 81.1279 119.354 81.0702 119.237 80.9621C119.4 81.8512 119.3 82.7656 119.351 83.6681C119.402 84.5705 119.643 85.5272 120.327 86.1206C121.324 86.9861 122.823 86.7725 124.135 86.6085C124.333 86.567 124.539 86.5782 124.731 86.6411C125.222 86.8497 125.2 87.5315 125.207 88.0638C125.247 88.9978 125.617 89.8874 126.253 90.5746C126.888 91.2619 127.747 91.7023 128.677 91.8177C129.198 91.8979 129.729 91.7686 130.154 91.4583C130.526 91.1435 130.717 90.6305 131.143 90.394C131.837 90.0093 132.679 90.5703 133.187 91.1794C133.694 91.7885 134.194 92.5377 134.98 92.6492C136.02 92.7966 136.812 91.7399 137.2 90.7669C137.736 89.4031 137.993 87.9461 137.956 86.4818C137.918 85.0175 137.587 83.5755 136.982 82.2408C134.811 77.5213 127.395 76.7748 123.482 79.5403Z" fill="#2F2E41"/>
<path d="M260.854 211.824L260.276 211.527C267.785 197.049 263.77 178.248 259.079 165.025C255.895 156.137 251.832 147.587 246.953 139.5L247.503 139.153C252.408 147.281 256.491 155.875 259.692 164.808C264.426 178.152 268.469 197.141 260.854 211.824Z" fill="#2F2E41"/>
<path d="M266.423 139.27L262.202 162.306L262.842 162.422L267.063 139.386L266.423 139.27Z" fill="#2F2E41"/>
<path d="M238.358 158.896L237.881 159.338L259.676 182.698L260.153 182.255L238.358 158.896Z" fill="#2F2E41"/>
<path d="M277.54 184.556L266.485 199.808L267.012 200.188L278.067 184.936L277.54 184.556Z" fill="#2F2E41"/>
<path d="M268.372 133.162C270.169 133.162 271.625 131.71 271.625 129.918C271.625 128.126 270.169 126.674 268.372 126.674C266.576 126.674 265.119 128.126 265.119 129.918C265.119 131.71 266.576 133.162 268.372 133.162Z" fill="#E57697"/>
<path d="M232.915 158.144C234.711 158.144 236.168 156.691 236.168 154.9C236.168 153.108 234.711 151.655 232.915 151.655C231.118 151.655 229.662 153.108 229.662 154.9C229.662 156.691 231.118 158.144 232.915 158.144Z" fill="#3F3D56"/>
<path d="M247.228 161.388C249.024 161.388 250.481 159.936 250.481 158.144C250.481 156.352 249.024 154.9 247.228 154.9C245.431 154.9 243.975 156.352 243.975 158.144C243.975 159.936 245.431 161.388 247.228 161.388Z" fill="#3F3D56"/>
<path d="M240.722 174.041C242.518 174.041 243.975 172.589 243.975 170.797C243.975 169.005 242.518 167.552 240.722 167.552C238.925 167.552 237.469 169.005 237.469 170.797C237.469 172.589 238.925 174.041 240.722 174.041Z" fill="#E57697"/>
<path d="M281.384 182.152C283.181 182.152 284.637 180.699 284.637 178.908C284.637 177.116 283.181 175.663 281.384 175.663C279.588 175.663 278.131 177.116 278.131 178.908C278.131 180.699 279.588 182.152 281.384 182.152Z" fill="#3F3D56"/>
<path d="M270.649 185.721C272.446 185.721 273.902 184.268 273.902 182.476C273.902 180.685 272.446 179.232 270.649 179.232C268.853 179.232 267.396 180.685 267.396 182.476C267.396 184.268 268.853 185.721 270.649 185.721Z" fill="#3F3D56"/>
<path d="M278.131 196.103C279.928 196.103 281.384 194.65 281.384 192.858C281.384 191.067 279.928 189.614 278.131 189.614C276.335 189.614 274.878 191.067 274.878 192.858C274.878 194.65 276.335 196.103 278.131 196.103Z" fill="#3F3D56"/>
<path d="M243.975 137.056C245.772 137.056 247.228 135.603 247.228 133.811C247.228 132.019 245.772 130.567 243.975 130.567C242.178 130.567 240.722 132.019 240.722 133.811C240.722 135.603 242.178 137.056 243.975 137.056Z" fill="#3F3D56"/>
<path d="M293.746 211.351H0V212H293.746V211.351Z" fill="#2F2E41"/>
<path d="M50.4005 144.17L22.7921 128.272L6.85242 155.807L34.4608 171.704L50.4005 144.17Z" fill="#EDEDED"/>
<path d="M35.1324 177.241C33.717 177.241 32.3333 176.822 31.1564 176.038C29.9795 175.254 29.0623 174.139 28.5206 172.835C27.9789 171.53 27.8372 170.095 28.1133 168.711C28.3895 167.326 29.0711 166.054 30.0719 165.056C31.0728 164.058 32.348 163.378 33.7362 163.103C35.1245 162.827 36.5634 162.969 37.8711 163.509C39.1788 164.049 40.2965 164.964 41.0829 166.138C41.8693 167.312 42.289 168.692 42.289 170.103C42.2869 171.996 41.5322 173.81 40.1905 175.148C38.8489 176.486 37.0298 177.239 35.1324 177.241ZM35.1324 163.615C33.8457 163.615 32.5878 163.995 31.5179 164.708C30.448 165.421 29.6141 166.434 29.1217 167.62C28.6292 168.806 28.5004 170.11 28.7514 171.369C29.0025 172.628 29.6221 173.784 30.532 174.691C31.4419 175.599 32.6011 176.217 33.8632 176.467C35.1252 176.718 36.4334 176.589 37.6222 176.098C38.811 175.607 39.8271 174.775 40.542 173.708C41.2569 172.641 41.6384 171.387 41.6384 170.103C41.6365 168.383 40.9504 166.734 39.7307 165.517C38.511 164.301 36.8573 163.616 35.1324 163.615Z" fill="#3F3D56"/>
</g>
<path d="M24.116 236.168C26.636 236.168 27.56 234.782 27.56 233.424C27.56 229.938 22.03 231.142 22.03 229.042C22.03 228.16 22.828 227.558 23.948 227.558C24.97 227.558 25.95 227.908 26.65 228.678L27.35 227.824C26.566 226.998 25.46 226.522 24.032 226.522C22.198 226.522 20.826 227.572 20.826 229.112C20.826 232.444 26.356 231.114 26.356 233.522C26.356 234.236 25.824 235.132 24.158 235.132C22.842 235.132 21.834 234.488 21.218 233.802L20.532 234.684C21.302 235.552 22.492 236.168 24.116 236.168ZM30.7287 236.168C31.3447 236.168 31.7227 235.986 31.9887 235.734L31.6807 234.95C31.5407 235.104 31.2607 235.23 30.9667 235.23C30.5047 235.23 30.2807 234.866 30.2807 234.362V230.162H31.6527V229.238H30.2807V227.39H29.2307V229.238H28.1107V230.162H29.2307V234.586C29.2307 235.594 29.7347 236.168 30.7287 236.168ZM38.4139 236V231.352C38.4139 229.714 37.2239 229.07 35.7959 229.07C34.6899 229.07 33.8219 229.434 33.0939 230.19L33.5839 230.918C34.1859 230.274 34.8439 229.98 35.6559 229.98C36.6359 229.98 37.3639 230.498 37.3639 231.408V232.626C36.8179 231.996 36.0479 231.702 35.1239 231.702C33.9759 231.702 32.7579 232.416 32.7579 233.928C32.7579 235.398 33.9759 236.168 35.1239 236.168C36.0339 236.168 36.8039 235.846 37.3639 235.23V236H38.4139ZM35.5019 235.412C34.5219 235.412 33.8359 234.796 33.8359 233.942C33.8359 233.074 34.5219 232.458 35.5019 232.458C36.2439 232.458 36.9579 232.738 37.3639 233.298V234.572C36.9579 235.132 36.2439 235.412 35.5019 235.412ZM41.5688 236V231.212C41.8768 230.666 42.7588 230.134 43.4028 230.134C43.5708 230.134 43.6968 230.148 43.8228 230.176V229.098C42.8988 229.098 42.1148 229.616 41.5688 230.33V229.238H40.5188V236H41.5688ZM46.8478 236.168C47.4638 236.168 47.8418 235.986 48.1078 235.734L47.7998 234.95C47.6598 235.104 47.3798 235.23 47.0858 235.23C46.6238 235.23 46.3998 234.866 46.3998 234.362V230.162H47.7718V229.238H46.3998V227.39H45.3498V229.238H44.2298V230.162H45.3498V234.586C45.3498 235.594 45.8538 236.168 46.8478 236.168ZM53.9145 234.166V231.1C54.2785 230.512 55.1045 230.008 55.9305 230.008C57.3025 230.008 58.1145 231.128 58.1145 232.626C58.1145 234.124 57.3025 235.23 55.9305 235.23C55.1045 235.23 54.2785 234.754 53.9145 234.166ZM53.9145 236V234.992C54.4185 235.678 55.2445 236.168 56.1965 236.168C57.9605 236.168 59.2065 234.824 59.2065 232.626C59.2065 230.47 57.9605 229.07 56.1965 229.07C55.2725 229.07 54.4605 229.518 53.9145 230.26V226.662H52.8645V236H53.9145ZM60.5392 238.646C60.7352 238.702 61.0852 238.744 61.3092 238.744C62.2052 238.73 62.8912 238.352 63.2972 237.372L66.6852 229.238H65.5372L63.2972 234.782L61.0432 229.238H59.9092L62.7372 236.07L62.2892 237.092C62.0512 237.652 61.7432 237.806 61.2812 237.806C61.1132 237.806 60.8612 237.764 60.7072 237.694L60.5392 238.646ZM73.0978 236.168C73.7138 236.168 74.0918 235.986 74.3578 235.734L74.0498 234.95C73.9098 235.104 73.6298 235.23 73.3358 235.23C72.8738 235.23 72.6498 234.866 72.6498 234.362V230.162H74.0218V229.238H72.6498V227.39H71.5998V229.238H70.4798V230.162H71.5998V234.586C71.5998 235.594 72.1038 236.168 73.0978 236.168ZM75.1271 238.646C75.3231 238.702 75.6731 238.744 75.8971 238.744C76.7931 238.73 77.4791 238.352 77.8851 237.372L81.2731 229.238H80.1251L77.8851 234.782L75.6311 229.238H74.4971L77.3251 236.07L76.8771 237.092C76.6391 237.652 76.3311 237.806 75.8691 237.806C75.7011 237.806 75.4491 237.764 75.2951 237.694L75.1271 238.646ZM85.7004 236.168C87.4784 236.168 88.7104 234.796 88.7104 232.612C88.7104 230.414 87.4784 229.07 85.7004 229.07C84.7484 229.07 83.9084 229.56 83.4184 230.246V229.238H82.3684V238.576H83.4184V234.978C83.9644 235.734 84.7764 236.168 85.7004 236.168ZM85.4344 235.23C84.6084 235.23 83.7824 234.726 83.4184 234.138V231.086C83.7824 230.498 84.6084 230.008 85.4344 230.008C86.7924 230.008 87.6044 231.114 87.6044 232.612C87.6044 234.11 86.7924 235.23 85.4344 235.23ZM90.8981 228.272C91.2901 228.272 91.6121 227.964 91.6121 227.572C91.6121 227.18 91.2901 226.858 90.8981 226.858C90.5201 226.858 90.1981 227.18 90.1981 227.572C90.1981 227.964 90.5201 228.272 90.8981 228.272ZM91.4301 236V229.238H90.3801V236H91.4301ZM99.1386 236V231.254C99.1386 229.784 98.3966 229.07 96.9826 229.07C95.9746 229.07 95.0506 229.658 94.5746 230.218V229.238H93.5246V236H94.5746V231.058C94.9666 230.512 95.7506 230.008 96.5766 230.008C97.4866 230.008 98.0886 230.386 98.0886 231.576V236H99.1386ZM103.952 238.744C105.604 238.744 107.172 238.044 107.172 235.804V229.238H106.122V230.26C105.576 229.518 104.764 229.07 103.854 229.07C102.076 229.07 100.844 230.414 100.844 232.584C100.844 234.768 102.09 236.084 103.854 236.084C104.806 236.084 105.632 235.566 106.122 234.88V235.846C106.122 237.33 105.072 237.876 103.952 237.876C102.986 237.876 102.314 237.624 101.754 236.952L101.222 237.736C102.02 238.52 102.804 238.744 103.952 238.744ZM104.106 235.16C102.748 235.16 101.936 234.068 101.936 232.584C101.936 231.086 102.748 230.008 104.106 230.008C104.946 230.008 105.758 230.512 106.122 231.1V234.054C105.758 234.642 104.946 235.16 104.106 235.16ZM115.026 236.168C116.776 236.168 117.686 235.258 117.686 234.124C117.686 231.492 113.5 232.472 113.5 230.988C113.5 230.386 114.074 229.924 114.998 229.924C115.866 229.924 116.608 230.288 117.014 230.778L117.504 230.05C116.958 229.504 116.146 229.07 114.998 229.07C113.388 229.07 112.478 229.966 112.478 231.016C112.478 233.522 116.664 232.514 116.664 234.152C116.664 234.824 116.104 235.314 115.068 235.314C114.144 235.314 113.29 234.866 112.842 234.348L112.296 235.104C112.982 235.832 113.92 236.168 115.026 236.168ZM122.346 236.168C124.404 236.168 125.692 234.572 125.692 232.612C125.692 230.652 124.404 229.07 122.346 229.07C120.288 229.07 119 230.652 119 232.612C119 234.572 120.288 236.168 122.346 236.168ZM122.346 235.23C120.904 235.23 120.092 233.998 120.092 232.612C120.092 231.24 120.904 230.008 122.346 230.008C123.788 230.008 124.586 231.24 124.586 232.612C124.586 233.998 123.788 235.23 122.346 235.23ZM136.616 236V231.114C136.616 229.756 135.958 229.07 134.726 229.07C133.746 229.07 132.836 229.714 132.458 230.33C132.262 229.63 131.674 229.07 130.638 229.07C129.644 229.07 128.734 229.784 128.454 230.218V229.238H127.404V236H128.454V231.058C128.818 230.512 129.546 230.008 130.232 230.008C131.114 230.008 131.478 230.554 131.478 231.408V236H132.528V231.044C132.878 230.512 133.62 230.008 134.32 230.008C135.188 230.008 135.566 230.554 135.566 231.408V236H136.616ZM141.762 236.168C142.868 236.168 143.778 235.804 144.45 235.132L143.946 234.446C143.414 234.992 142.63 235.3 141.86 235.3C140.404 235.3 139.508 234.236 139.424 232.962H144.898V232.696C144.898 230.666 143.694 229.07 141.65 229.07C139.718 229.07 138.318 230.652 138.318 232.612C138.318 234.726 139.76 236.168 141.762 236.168ZM143.862 232.192H139.424C139.48 231.156 140.194 229.938 141.636 229.938C143.176 229.938 143.848 231.184 143.862 232.192ZM148.307 236.168C148.923 236.168 149.301 235.986 149.567 235.734L149.259 234.95C149.119 235.104 148.839 235.23 148.545 235.23C148.083 235.23 147.859 234.866 147.859 234.362V230.162H149.231V229.238H147.859V227.39H146.809V229.238H145.689V230.162H146.809V234.586C146.809 235.594 147.313 236.168 148.307 236.168ZM156.342 236V231.226C156.342 229.756 155.6 229.07 154.186 229.07C153.164 229.07 152.24 229.658 151.764 230.218V226.662H150.714V236H151.764V231.058C152.17 230.512 152.954 230.008 153.766 230.008C154.676 230.008 155.292 230.358 155.292 231.548V236H156.342ZM158.957 228.272C159.349 228.272 159.671 227.964 159.671 227.572C159.671 227.18 159.349 226.858 158.957 226.858C158.579 226.858 158.257 227.18 158.257 227.572C158.257 227.964 158.579 228.272 158.957 228.272ZM159.489 236V229.238H158.439V236H159.489ZM167.197 236V231.254C167.197 229.784 166.455 229.07 165.041 229.07C164.033 229.07 163.109 229.658 162.633 230.218V229.238H161.583V236H162.633V231.058C163.025 230.512 163.809 230.008 164.635 230.008C165.545 230.008 166.147 230.386 166.147 231.576V236H167.197ZM172.01 238.744C173.662 238.744 175.23 238.044 175.23 235.804V229.238H174.18V230.26C173.634 229.518 172.822 229.07 171.912 229.07C170.134 229.07 168.902 230.414 168.902 232.584C168.902 234.768 170.148 236.084 171.912 236.084C172.864 236.084 173.69 235.566 174.18 234.88V235.846C174.18 237.33 173.13 237.876 172.01 237.876C171.044 237.876 170.372 237.624 169.812 236.952L169.28 237.736C170.078 238.52 170.862 238.744 172.01 238.744ZM172.164 235.16C170.806 235.16 169.994 234.068 169.994 232.584C169.994 231.086 170.806 230.008 172.164 230.008C173.004 230.008 173.816 230.512 174.18 231.1V234.054C173.816 234.642 173.004 235.16 172.164 235.16ZM181.461 228.272C181.853 228.272 182.175 227.964 182.175 227.572C182.175 227.18 181.853 226.858 181.461 226.858C181.083 226.858 180.761 227.18 180.761 227.572C180.761 227.964 181.083 228.272 181.461 228.272ZM181.993 236V229.238H180.943V236H181.993ZM189.701 236V231.254C189.701 229.784 188.959 229.07 187.545 229.07C186.537 229.07 185.613 229.658 185.137 230.218V229.238H184.087V236H185.137V231.058C185.529 230.512 186.313 230.008 187.139 230.008C188.049 230.008 188.651 230.386 188.651 231.576V236H189.701ZM197.115 236.168C197.731 236.168 198.109 235.986 198.375 235.734L198.067 234.95C197.927 235.104 197.647 235.23 197.353 235.23C196.891 235.23 196.667 234.866 196.667 234.362V230.162H198.039V229.238H196.667V227.39H195.617V229.238H194.497V230.162H195.617V234.586C195.617 235.594 196.121 236.168 197.115 236.168ZM205.151 236V231.226C205.151 229.756 204.409 229.07 202.995 229.07C201.973 229.07 201.049 229.658 200.573 230.218V226.662H199.523V236H200.573V231.058C200.979 230.512 201.763 230.008 202.575 230.008C203.485 230.008 204.101 230.358 204.101 231.548V236H205.151ZM210.299 236.168C211.405 236.168 212.315 235.804 212.987 235.132L212.483 234.446C211.951 234.992 211.167 235.3 210.397 235.3C208.941 235.3 208.045 234.236 207.961 232.962H213.435V232.696C213.435 230.666 212.231 229.07 210.187 229.07C208.255 229.07 206.855 230.652 206.855 232.612C206.855 234.726 208.297 236.168 210.299 236.168ZM212.399 232.192H207.961C208.017 231.156 208.731 229.938 210.173 229.938C211.713 229.938 212.385 231.184 212.399 232.192ZM220.887 236.168C222.637 236.168 223.547 235.258 223.547 234.124C223.547 231.492 219.361 232.472 219.361 230.988C219.361 230.386 219.935 229.924 220.859 229.924C221.727 229.924 222.469 230.288 222.875 230.778L223.365 230.05C222.819 229.504 222.007 229.07 220.859 229.07C219.249 229.07 218.339 229.966 218.339 231.016C218.339 233.522 222.525 232.514 222.525 234.152C222.525 234.824 221.965 235.314 220.929 235.314C220.005 235.314 219.151 234.866 218.703 234.348L218.157 235.104C218.843 235.832 219.781 236.168 220.887 236.168ZM228.305 236.168C229.411 236.168 230.321 235.804 230.993 235.132L230.489 234.446C229.957 234.992 229.173 235.3 228.403 235.3C226.947 235.3 226.051 234.236 225.967 232.962H231.441V232.696C231.441 230.666 230.237 229.07 228.193 229.07C226.261 229.07 224.861 230.652 224.861 232.612C224.861 234.726 226.303 236.168 228.305 236.168ZM230.405 232.192H225.967C226.023 231.156 226.737 229.938 228.179 229.938C229.719 229.938 230.391 231.184 230.405 232.192ZM238.42 236V231.352C238.42 229.714 237.23 229.07 235.802 229.07C234.696 229.07 233.828 229.434 233.1 230.19L233.59 230.918C234.192 230.274 234.85 229.98 235.662 229.98C236.642 229.98 237.37 230.498 237.37 231.408V232.626C236.824 231.996 236.054 231.702 235.13 231.702C233.982 231.702 232.764 232.416 232.764 233.928C232.764 235.398 233.982 236.168 235.13 236.168C236.04 236.168 236.81 235.846 237.37 235.23V236H238.42ZM235.508 235.412C234.528 235.412 233.842 234.796 233.842 233.942C233.842 233.074 234.528 232.458 235.508 232.458C236.25 232.458 236.964 232.738 237.37 233.298V234.572C236.964 235.132 236.25 235.412 235.508 235.412ZM241.575 236V231.212C241.883 230.666 242.765 230.134 243.409 230.134C243.577 230.134 243.703 230.148 243.829 230.176V229.098C242.905 229.098 242.121 229.616 241.575 230.33V229.238H240.525V236H241.575ZM248.128 236.168C249.36 236.168 250.088 235.664 250.606 234.992L249.906 234.348C249.458 234.95 248.884 235.23 248.184 235.23C246.742 235.23 245.846 234.11 245.846 232.612C245.846 231.114 246.742 230.008 248.184 230.008C248.884 230.008 249.458 230.274 249.906 230.89L250.606 230.246C250.088 229.574 249.36 229.07 248.128 229.07C246.112 229.07 244.754 230.61 244.754 232.612C244.754 234.628 246.112 236.168 248.128 236.168ZM257.705 236V231.226C257.705 229.756 256.963 229.07 255.549 229.07C254.527 229.07 253.603 229.658 253.127 230.218V226.662H252.077V236H253.127V231.058C253.533 230.512 254.317 230.008 255.129 230.008C256.039 230.008 256.655 230.358 256.655 231.548V236H257.705ZM264.461 234.166V231.1C264.825 230.512 265.651 230.008 266.477 230.008C267.849 230.008 268.661 231.128 268.661 232.626C268.661 234.124 267.849 235.23 266.477 235.23C265.651 235.23 264.825 234.754 264.461 234.166ZM264.461 236V234.992C264.965 235.678 265.791 236.168 266.743 236.168C268.507 236.168 269.753 234.824 269.753 232.626C269.753 230.47 268.507 229.07 266.743 229.07C265.819 229.07 265.007 229.518 264.461 230.26V226.662H263.411V236H264.461ZM274.418 236.168C276.476 236.168 277.764 234.572 277.764 232.612C277.764 230.652 276.476 229.07 274.418 229.07C272.36 229.07 271.072 230.652 271.072 232.612C271.072 234.572 272.36 236.168 274.418 236.168ZM274.418 235.23C272.976 235.23 272.164 233.998 272.164 232.612C272.164 231.24 272.976 230.008 274.418 230.008C275.86 230.008 276.658 231.24 276.658 232.612C276.658 233.998 275.86 235.23 274.418 235.23ZM284.556 236L281.952 232.528L284.402 229.238H283.184L281.308 231.814L279.432 229.238H278.214L280.664 232.528L278.074 236H279.278L281.308 233.228L283.338 236H284.556Z" fill="black"/>
<defs>
<clipPath id="clip0">
<rect width="305" height="212" fill="white"/>
</clipPath>
</defs>
</svg>
