<svg width="20" height="20" viewBox="0 0 20 20" fill="none" xmlns="http://www.w3.org/2000/svg">
<path d="M7.5 9.16667C8.15927 9.16667 8.80373 8.97117 9.3519 8.6049C9.90006 8.23863 10.3273 7.71803 10.5796 7.10895C10.8319 6.49986 10.8979 5.82964 10.7693 5.18303C10.6407 4.53643 10.3232 3.94249 9.85702 3.47631C9.39085 3.01014 8.7969 2.69267 8.1503 2.56405C7.5037 2.43543 6.83347 2.50144 6.22439 2.75374C5.6153 3.00603 5.0947 3.43327 4.72843 3.98143C4.36216 4.5296 4.16666 5.17406 4.16666 5.83334C4.16666 6.71739 4.51785 7.56524 5.14297 8.19036C5.7681 8.81548 6.61594 9.16667 7.5 9.16667Z" fill="#61688B"/>
<path d="M14.1667 10.8333C14.6611 10.8333 15.1445 10.6867 15.5556 10.412C15.9667 10.1373 16.2871 9.74685 16.4764 9.29004C16.6656 8.83322 16.7151 8.33056 16.6186 7.8456C16.5222 7.36065 16.2841 6.91519 15.9344 6.56556C15.5848 6.21593 15.1393 5.97783 14.6544 5.88137C14.1694 5.7849 13.6668 5.83441 13.21 6.02363C12.7531 6.21285 12.3627 6.53328 12.088 6.9444C11.8133 7.35553 11.6667 7.83888 11.6667 8.33333C11.6667 8.99637 11.9301 9.63226 12.3989 10.1011C12.8677 10.5699 13.5036 10.8333 14.1667 10.8333Z" fill="#61688B"/>
<path d="M17.5 16.6667C17.721 16.6667 17.933 16.5789 18.0893 16.4226C18.2455 16.2663 18.3333 16.0543 18.3333 15.8333C18.3327 15.0545 18.1137 14.2914 17.7013 13.6307C17.289 12.97 16.6997 12.4381 16.0003 12.0954C15.3009 11.7526 14.5195 11.6128 13.7447 11.6917C12.9698 11.7705 12.2326 12.065 11.6167 12.5417C10.8004 11.7286 9.76171 11.1755 8.63152 10.952C7.50132 10.7285 6.33026 10.8447 5.26602 11.2859C4.20178 11.7271 3.29201 12.4736 2.65145 13.4312C2.01089 14.3888 1.66822 15.5146 1.66666 16.6667C1.66666 16.8877 1.75446 17.0996 1.91074 17.2559C2.06702 17.4122 2.27898 17.5 2.5 17.5H12.5C12.721 17.5 12.933 17.4122 13.0893 17.2559C13.2455 17.0996 13.3333 16.8877 13.3333 16.6667" fill="#61688B"/>
</svg>
