<svg width="363" height="257" viewBox="0 0 363 257" fill="none" xmlns="http://www.w3.org/2000/svg">
<path d="M156.82 256V246.662H155.658V253.956L150.282 246.662H149.092V256H150.254V248.552L155.7 256H156.82ZM161.916 256.168C163.974 256.168 165.262 254.572 165.262 252.612C165.262 250.652 163.974 249.07 161.916 249.07C159.858 249.07 158.57 250.652 158.57 252.612C158.57 254.572 159.858 256.168 161.916 256.168ZM161.916 255.23C160.474 255.23 159.662 253.998 159.662 252.612C159.662 251.24 160.474 250.008 161.916 250.008C163.358 250.008 164.156 251.24 164.156 252.612C164.156 253.998 163.358 255.23 161.916 255.23ZM171.787 256V252.29H174.377C176.225 252.29 177.303 251.002 177.303 249.476C177.303 247.95 176.253 246.662 174.377 246.662H170.625V256H171.787ZM174.237 251.254H171.787V247.698H174.237C175.343 247.698 176.099 248.426 176.099 249.476C176.099 250.526 175.343 251.254 174.237 251.254ZM181.576 256.168C183.634 256.168 184.922 254.572 184.922 252.612C184.922 250.652 183.634 249.07 181.576 249.07C179.518 249.07 178.23 250.652 178.23 252.612C178.23 254.572 179.518 256.168 181.576 256.168ZM181.576 255.23C180.134 255.23 179.322 253.998 179.322 252.612C179.322 251.24 180.134 250.008 181.576 250.008C183.018 250.008 183.816 251.24 183.816 252.612C183.816 253.998 183.018 255.23 181.576 255.23ZM188.776 256.168C190.526 256.168 191.436 255.258 191.436 254.124C191.436 251.492 187.25 252.472 187.25 250.988C187.25 250.386 187.824 249.924 188.748 249.924C189.616 249.924 190.358 250.288 190.764 250.778L191.254 250.05C190.708 249.504 189.896 249.07 188.748 249.07C187.138 249.07 186.228 249.966 186.228 251.016C186.228 253.522 190.414 252.514 190.414 254.152C190.414 254.824 189.854 255.314 188.818 255.314C187.894 255.314 187.04 254.866 186.592 254.348L186.046 255.104C186.732 255.832 187.67 256.168 188.776 256.168ZM194.85 256.168C195.466 256.168 195.844 255.986 196.11 255.734L195.802 254.95C195.662 255.104 195.382 255.23 195.088 255.23C194.626 255.23 194.402 254.866 194.402 254.362V250.162H195.774V249.238H194.402V247.39H193.352V249.238H192.232V250.162H193.352V254.586C193.352 255.594 193.856 256.168 194.85 256.168ZM199.399 256.168C201.149 256.168 202.059 255.258 202.059 254.124C202.059 251.492 197.873 252.472 197.873 250.988C197.873 250.386 198.447 249.924 199.371 249.924C200.239 249.924 200.981 250.288 201.387 250.778L201.877 250.05C201.331 249.504 200.519 249.07 199.371 249.07C197.761 249.07 196.851 249.966 196.851 251.016C196.851 253.522 201.037 252.514 201.037 254.152C201.037 254.824 200.477 255.314 199.441 255.314C198.517 255.314 197.663 254.866 197.215 254.348L196.669 255.104C197.355 255.832 198.293 256.168 199.399 256.168ZM204.759 253.382L204.983 246.662H203.667L203.891 253.382H204.759ZM204.325 256.14C204.745 256.14 205.095 255.776 205.095 255.37C205.095 254.95 204.745 254.6 204.325 254.6C203.905 254.6 203.555 254.95 203.555 255.37C203.555 255.776 203.905 256.14 204.325 256.14Z" fill="black"/>
<g clip-path="url(#clip0)">
<path d="M152.551 88.977L146.184 84.9959L150.097 75.0591C150.473 74.1044 151.115 73.2781 151.947 72.6785C152.78 72.0789 153.767 71.7314 154.791 71.6775V71.6775C155.814 71.6236 156.832 71.8652 157.722 72.3734C158.612 72.8815 159.338 73.635 159.812 74.544C160.287 75.453 160.49 76.4792 160.398 77.5005C160.306 78.5218 159.922 79.4951 159.293 80.3045L152.551 88.977Z" fill="#FEB8B8"/>
<path d="M119.058 196.639L110.292 192.836L115.048 183.041L122.128 187.186L119.058 196.639Z" fill="#FEB8B8"/>
<path d="M115.655 212.296L105.572 202.008C104.61 201.032 104.072 199.716 104.077 198.345C104.081 196.975 104.628 195.662 105.596 194.693L110.673 189.614C110.856 189.429 111.08 189.291 111.326 189.209C111.573 189.127 111.835 189.104 112.092 189.142C112.349 189.181 112.593 189.279 112.805 189.43C113.017 189.58 113.191 189.778 113.312 190.008C114.562 192.438 116.264 193.749 118.468 193.815C119.79 193.855 119.998 193.806 120.342 195.083L119.918 204.707L121.662 206.693C122.316 207.437 122.679 208.393 122.684 209.384C122.69 210.375 122.337 211.335 121.69 212.086V212.086C121.32 212.517 120.865 212.866 120.354 213.111C119.842 213.357 119.286 213.494 118.719 213.513C118.152 213.533 117.587 213.435 117.06 213.225C116.532 213.016 116.054 212.699 115.655 212.296Z" fill="#2F2E41"/>
<path d="M122.706 188.902L113.553 184.523L121.114 136.75L84.1533 139.831C72.4673 140.806 62.8214 130.35 65.19 118.86C65.8796 115.383 67.7904 112.267 70.5769 110.077L107.186 114.456L130.907 117.719C133.287 118.046 135.51 119.096 137.276 120.726C139.042 122.357 140.265 124.49 140.782 126.837V126.837C141.193 128.708 141.142 130.651 140.632 132.497L122.706 188.902Z" fill="#2F2E41"/>
<path d="M59.2361 240.059C91.1029 240.059 116.936 214.214 116.936 182.333C116.936 150.452 91.1029 124.608 59.2361 124.608C27.3693 124.608 1.53613 150.452 1.53613 182.333C1.53613 214.214 27.3693 240.059 59.2361 240.059Z" fill="#EDEDED"/>
<path d="M146.582 82.6072L155.734 86.9864L141.173 110.918C140.536 111.967 139.603 112.803 138.492 113.323C137.38 113.843 136.14 114.024 134.927 113.841V113.841C133.769 113.668 132.683 113.171 131.795 112.408C130.906 111.645 130.25 110.647 129.902 109.528L113.637 78.4035C113.084 77.3448 112.765 76.1792 112.702 74.9861C112.639 73.793 112.834 72.6004 113.274 71.4895C113.713 70.3785 114.386 69.3753 115.248 68.548C116.11 67.7207 117.139 67.0888 118.267 66.6953H118.267C119.312 66.3306 120.419 66.1783 121.524 66.2474C122.629 66.3164 123.708 66.6055 124.7 67.0976C125.692 67.5896 126.575 68.2748 127.298 69.1129C128.022 69.9511 128.571 70.9253 128.913 71.9784L136.634 95.7448L146.582 82.6072Z" fill="#3F3D56"/>
<path d="M106.555 70.9344C109.543 71.3487 112.612 70.3633 115.106 68.6647C117.599 66.9661 119.57 64.5987 121.238 62.0841C124.057 57.8305 126.09 53.1052 127.239 48.133C128.19 49.2757 129.433 50.1377 130.837 50.6262C132.24 51.1147 133.75 51.2112 135.204 50.9055C139.949 49.8398 142.794 44.3016 141.869 39.5256C140.943 34.7497 137.027 30.9633 132.558 29.0465C128.088 27.1297 123.108 26.813 118.245 26.8238C115.038 26.831 111.771 26.9806 108.759 28.0808C105.747 29.181 102.987 31.3738 101.917 34.3977C101.247 36.2936 101.269 38.392 100.506 40.2527C99.1211 43.6308 95.5295 45.4755 92.1589 46.8752C88.7882 48.2748 85.1239 49.6962 83.1361 52.7582C80.8915 56.216 81.5393 61.0418 84.0129 64.3395C86.4864 67.6372 90.4592 69.5494 94.5021 70.349C98.545 71.1486 102.71 70.9508 106.826 70.7498" fill="#2F2E41"/>
<path d="M105.131 196.639L96.3645 192.836L101.121 183.041L108.201 187.186L105.131 196.639Z" fill="#FEB8B8"/>
<path d="M101.728 212.296L91.6446 202.008C90.6823 201.032 90.1447 199.716 90.1492 198.345C90.1537 196.975 90.6998 195.662 91.6685 194.693L96.745 189.614C96.9279 189.429 97.1518 189.291 97.3984 189.209C97.645 189.127 97.9074 189.104 98.1644 189.142C98.4213 189.181 98.6657 189.279 98.8776 189.43C99.0895 189.58 99.263 189.778 99.3841 190.008C100.634 192.438 102.336 193.749 104.541 193.815C105.862 193.855 106.07 193.806 106.415 195.083L105.99 204.707L107.735 206.693C108.389 207.437 108.752 208.393 108.757 209.384C108.762 210.375 108.409 211.335 107.763 212.086C107.393 212.517 106.938 212.866 106.426 213.111C105.915 213.357 105.358 213.494 104.791 213.513C104.224 213.533 103.659 213.435 103.132 213.225C102.605 213.016 102.127 212.699 101.728 212.296V212.296Z" fill="#2F2E41"/>
<path d="M107.585 191.29L98.4323 186.911L105.993 139.138L69.0322 142.22C57.3462 143.194 47.7003 132.739 50.0689 121.249C50.7585 117.772 52.6693 114.656 55.4558 112.465L92.0654 116.844L115.786 120.107C118.166 120.435 120.389 121.485 122.155 123.115C123.92 124.745 125.144 126.878 125.661 129.226C126.072 131.097 126.021 133.039 125.511 134.886L107.585 191.29Z" fill="#2F2E41"/>
<path d="M120.915 60.7113C128.937 60.7113 135.44 54.2056 135.44 46.1804C135.44 38.1552 128.937 31.6495 120.915 31.6495C112.894 31.6495 106.391 38.1552 106.391 46.1804C106.391 54.2056 112.894 60.7113 120.915 60.7113Z" fill="#FEB8B8"/>
<path d="M110.768 80.2186L104.799 63.8962C109.037 59.3968 109.97 53.8755 108.38 47.5738L125.491 57.1284L110.768 80.2186Z" fill="#FEB8B8"/>
<path d="M98.83 118.835C88.206 122.382 74.1465 121.222 56.5304 115.187C56.0543 115.022 55.6257 114.743 55.2818 114.375C54.938 114.007 54.6891 113.56 54.557 113.073C54.4249 112.587 54.4135 112.076 54.5238 111.584C54.634 111.092 54.8626 110.634 55.1897 110.251C67.0713 96.279 77.7314 82.5946 86.5284 69.3489C89.8483 65.0546 94.5711 62.0642 99.8714 60.9002L107.982 59.1189L120.318 65.4886L123.551 67.3167C124.314 67.7479 124.98 68.3298 125.511 69.027C126.041 69.7243 126.424 70.5222 126.637 71.3723C126.849 72.2224 126.886 73.1069 126.746 73.9718C126.605 74.8366 126.29 75.6639 125.82 76.4031C120.867 88.5108 114.41 99.5646 103.207 107.29L98.83 118.835Z" fill="#3F3D56"/>
<path d="M121.252 43.3533C123.037 46.1944 125.69 48.3846 128.817 49.5992C131.031 50.4524 133.842 50.6644 135.504 48.9698C136.708 47.7422 136.948 45.853 136.777 44.1416C136.244 38.7996 132.231 34.1479 127.252 32.1463C122.272 30.1448 116.524 30.5823 111.555 32.6087C106.867 34.5207 102.414 38.4375 102.162 43.4964C102.033 46.089 102.971 48.9437 101.58 51.1349C100.532 52.7852 98.5085 53.4557 96.696 54.1865C94.8836 54.9173 92.9383 56.0705 92.5663 57.9898C92.3134 59.2944 92.8974 60.6561 93.8143 61.6176C94.778 62.5382 95.9185 63.2536 97.1666 63.7204C100.122 64.9796 103.376 65.7645 106.552 65.2777C109.727 64.7909 112.798 62.8563 114.041 59.8925C114.998 57.6101 114.802 55.0345 114.691 52.5619C114.581 50.0893 114.614 47.4559 115.934 45.3624C117.254 43.2688 120.317 42.0967 122.289 43.5912" fill="#2F2E41"/>
<path opacity="0.2" d="M85.8972 85.1949C85.8972 85.1949 97.4372 113.859 100.223 115.451C103.008 117.043 103.008 113.066 103.008 113.066L85.8972 85.1949Z" fill="black"/>
<path d="M176.475 75.8503L106.435 87.2493C106.091 87.3049 105.739 87.2217 105.456 87.018C105.174 86.8143 104.983 86.5068 104.927 86.1628L102.101 68.7811C102.045 68.437 102.128 68.0849 102.332 67.8021C102.535 67.5193 102.843 67.3288 103.187 67.2724L173.227 55.8734C173.571 55.8178 173.923 55.901 174.205 56.1047C174.488 56.3084 174.679 56.616 174.735 56.9599L177.561 74.3416C177.617 74.6857 177.534 75.0378 177.33 75.3206C177.126 75.6035 176.819 75.794 176.475 75.8503V75.8503Z" fill="#E57697"/>
<path d="M113.89 81.3048C116.938 81.3048 119.409 78.8327 119.409 75.7832C119.409 72.7337 116.938 70.2615 113.89 70.2615C110.842 70.2615 108.371 72.7337 108.371 75.7832C108.371 78.8327 110.842 81.3048 113.89 81.3048Z" fill="#EDEDED"/>
<path d="M125.88 70.1022C125.761 70.1215 125.647 70.1641 125.544 70.2276C125.441 70.2911 125.351 70.3743 125.281 70.4724C125.21 70.5706 125.159 70.6817 125.132 70.7994C125.104 70.9171 125.099 71.0392 125.119 71.1586C125.138 71.2779 125.181 71.3923 125.245 71.4952C125.308 71.598 125.392 71.6873 125.49 71.7579C125.588 71.8286 125.699 71.8791 125.817 71.9068C125.934 71.9344 126.056 71.9385 126.176 71.9189L168.978 64.9528C169.097 64.9334 169.212 64.8907 169.314 64.8272C169.417 64.7636 169.506 64.6804 169.577 64.5823C169.647 64.4843 169.698 64.3732 169.726 64.2556C169.753 64.138 169.758 64.016 169.738 63.8968C169.719 63.7775 169.676 63.6632 169.613 63.5604C169.549 63.4576 169.466 63.3684 169.368 63.2978C169.27 63.2271 169.159 63.1765 169.041 63.1488C168.924 63.1211 168.802 63.1168 168.683 63.1362L125.88 70.1022Z" fill="#EDEDED"/>
<path d="M126.767 75.5522C126.647 75.5715 126.533 75.6141 126.43 75.6776C126.327 75.7411 126.238 75.8243 126.167 75.9224C126.096 76.0206 126.046 76.1316 126.018 76.2494C125.99 76.3671 125.986 76.4891 126.005 76.6085C126.025 76.7279 126.067 76.8423 126.131 76.9452C126.195 77.048 126.278 77.1373 126.376 77.2079C126.474 77.2786 126.585 77.3291 126.703 77.3567C126.821 77.3844 126.943 77.3885 127.062 77.3689L169.864 70.4029C170.105 70.3634 170.32 70.2301 170.462 70.0321C170.605 69.8341 170.663 69.5877 170.623 69.347C170.584 69.1062 170.451 68.8909 170.254 68.7482C170.056 68.6056 169.81 68.5473 169.569 68.5862L126.767 75.5522Z" fill="#EDEDED"/>
<path d="M125.491 95.7448L119.125 91.7637L123.037 81.827C123.413 80.8723 124.056 80.0459 124.888 79.4463C125.72 78.8467 126.707 78.4993 127.732 78.4453C128.755 78.3914 129.773 78.633 130.663 79.1412C131.553 79.6494 132.279 80.4028 132.753 81.3118C133.227 82.2208 133.431 83.247 133.338 84.2683C133.246 85.2896 132.863 86.2629 132.234 87.0723L125.491 95.7448Z" fill="#FEB8B8"/>
<path d="M119.125 89.375L128.277 93.7542L113.716 117.686C113.078 118.734 112.145 119.571 111.034 120.091C109.923 120.611 108.683 120.791 107.47 120.609V120.609C106.312 120.435 105.226 119.939 104.337 119.176C103.448 118.413 102.793 117.415 102.445 116.296L86.1797 85.1713C85.6264 84.1126 85.3075 82.947 85.2449 81.7539C85.1822 80.5608 85.3771 79.3682 85.8164 78.2573C86.2557 77.1463 86.9291 76.1431 87.7907 75.3158C88.6523 74.4885 89.6819 73.8566 90.8094 73.4631H90.8095C91.8546 73.0984 92.962 72.9461 94.0667 73.0152C95.1714 73.0842 96.2512 73.3733 97.2428 73.8654C98.2344 74.3574 99.1178 75.0426 99.8412 75.8807C100.565 76.7189 101.113 77.6931 101.456 78.7462L109.176 102.513L119.125 89.375Z" fill="#3F3D56"/>
<path d="M347.939 175.585C342.666 183.042 341.273 225.48 340.963 239.083C340.955 239.39 340.947 239.68 340.943 239.955H327.596C327.433 239.664 327.282 239.378 327.139 239.083C319.228 223.462 323.617 204.731 323.848 203.783C323.247 206.761 325.965 215.392 329.037 223.752C330.911 198.046 346.936 176.883 347.939 175.585Z" fill="#EDEDED"/>
<path d="M362.479 239.083L362.32 239.955H0V239.083H362.479Z" fill="#3F3D56"/>
<path d="M330.255 78.0982H222.813C222.286 78.0976 221.78 77.8876 221.407 77.5145C221.034 77.1413 220.824 76.6354 220.824 76.1076V49.4442C220.824 48.9164 221.034 48.4105 221.407 48.0373C221.78 47.6642 222.286 47.4543 222.813 47.4536H330.255C330.782 47.4543 331.288 47.6642 331.661 48.0373C332.034 48.4105 332.244 48.9164 332.244 49.4442V76.1076C332.244 76.6354 332.034 77.1413 331.661 77.5145C331.288 77.8876 330.782 78.0976 330.255 78.0982V78.0982ZM222.813 48.2499C222.497 48.2502 222.193 48.3761 221.97 48.6C221.746 48.824 221.62 49.1275 221.62 49.4442V76.1076C221.62 76.4243 221.746 76.7279 221.97 76.9518C222.193 77.1757 222.497 77.3016 222.813 77.302H330.255C330.571 77.3016 330.875 77.1757 331.099 76.9518C331.322 76.7279 331.448 76.4243 331.449 76.1076V49.4442C331.448 49.1275 331.322 48.824 331.099 48.6C330.875 48.3761 330.571 48.2502 330.255 48.2499H222.813Z" fill="#EDEDED"/>
<path d="M236.741 71.1361C241.356 71.1361 245.097 67.393 245.097 62.7758C245.097 58.1586 241.356 54.4156 236.741 54.4156C232.126 54.4156 228.384 58.1586 228.384 62.7758C228.384 67.393 232.126 71.1361 236.741 71.1361Z" fill="#EDEDED"/>
<path d="M256.041 57.2023C255.671 57.2023 255.317 57.3491 255.056 57.6104C254.795 57.8717 254.648 58.2261 254.648 58.5957C254.648 58.9652 254.795 59.3196 255.056 59.5809C255.317 59.8423 255.671 59.9891 256.041 59.9891H321.699C322.069 59.9891 322.423 59.8423 322.684 59.5809C322.945 59.3196 323.092 58.9652 323.092 58.5957C323.092 58.2261 322.945 57.8717 322.684 57.6104C322.423 57.3491 322.069 57.2023 321.699 57.2023H256.041Z" fill="#EDEDED"/>
<path d="M256.041 65.5626C255.671 65.5626 255.317 65.7094 255.056 65.9707C254.795 66.232 254.648 66.5864 254.648 66.9559C254.648 67.3255 254.795 67.6799 255.056 67.9412C255.317 68.2025 255.671 68.3493 256.041 68.3493H321.699C322.069 68.3493 322.423 68.2025 322.684 67.9412C322.945 67.6799 323.092 67.3255 323.092 66.9559C323.092 66.5864 322.945 66.232 322.684 65.9707C322.423 65.7094 322.069 65.5626 321.699 65.5626H256.041Z" fill="#EDEDED"/>
<path d="M330.255 122.686H222.813C222.286 122.686 221.78 122.476 221.407 122.102C221.034 121.729 220.824 121.223 220.824 120.696V94.0322C220.824 93.5045 221.034 92.9985 221.407 92.6253C221.78 92.2522 222.286 92.0423 222.813 92.0416H330.255C330.782 92.0423 331.288 92.2522 331.661 92.6253C332.034 92.9985 332.244 93.5045 332.244 94.0322V120.696C332.244 121.223 332.034 121.729 331.661 122.102C331.288 122.476 330.782 122.686 330.255 122.686ZM222.813 92.8379C222.497 92.8382 222.193 92.9642 221.97 93.1881C221.746 93.412 221.62 93.7155 221.62 94.0322V120.696C221.62 121.012 221.746 121.316 221.97 121.54C222.193 121.764 222.497 121.89 222.813 121.89H330.255C330.571 121.89 330.875 121.764 331.099 121.54C331.322 121.316 331.448 121.012 331.449 120.696V94.0322C331.448 93.7155 331.322 93.412 331.099 93.1881C330.875 92.9642 330.571 92.8382 330.255 92.8379H222.813Z" fill="#EDEDED"/>
<path d="M236.741 115.724C241.356 115.724 245.097 111.981 245.097 107.364C245.097 102.747 241.356 99.0035 236.741 99.0035C232.126 99.0035 228.384 102.747 228.384 107.364C228.384 111.981 232.126 115.724 236.741 115.724Z" fill="#EDEDED"/>
<path d="M256.041 101.79C255.671 101.79 255.317 101.937 255.056 102.198C254.795 102.46 254.648 102.814 254.648 103.184C254.648 103.553 254.795 103.908 255.056 104.169C255.317 104.43 255.671 104.577 256.041 104.577H321.699C322.069 104.577 322.423 104.43 322.684 104.169C322.945 103.908 323.092 103.553 323.092 103.184C323.092 102.814 322.945 102.46 322.684 102.198C322.423 101.937 322.069 101.79 321.699 101.79H256.041Z" fill="#EDEDED"/>
<path d="M256.041 110.151C255.671 110.151 255.317 110.297 255.056 110.559C254.795 110.82 254.648 111.174 254.648 111.544C254.648 111.913 254.795 112.268 255.056 112.529C255.317 112.791 255.671 112.937 256.041 112.937H321.699C322.069 112.937 322.423 112.791 322.684 112.529C322.945 112.268 323.092 111.913 323.092 111.544C323.092 111.174 322.945 110.82 322.684 110.559C322.423 110.297 322.069 110.151 321.699 110.151H256.041Z" fill="#EDEDED"/>
<path d="M276.534 33.441C273.228 33.441 269.997 32.4603 267.249 30.6231C264.5 28.7858 262.358 26.1744 261.093 23.1192C259.828 20.0639 259.497 16.7019 260.142 13.4585C260.787 10.215 262.379 7.23571 264.716 4.89731C267.053 2.55891 270.031 0.966436 273.273 0.321272C276.515 -0.323893 279.876 0.00723054 282.93 1.27277C285.984 2.5383 288.594 4.6814 290.43 7.43108C292.267 10.1807 293.247 13.4135 293.247 16.7205C293.242 21.1535 291.48 25.4035 288.346 28.5381C285.213 31.6728 280.965 33.436 276.534 33.441V33.441ZM276.534 0.796205C273.386 0.796205 270.308 1.73015 267.691 3.47993C265.073 5.22971 263.033 7.71674 261.828 10.6265C260.624 13.5363 260.308 16.7382 260.923 19.8272C261.537 22.9162 263.053 25.7536 265.279 27.9807C267.505 30.2077 270.341 31.7244 273.429 32.3388C276.516 32.9532 279.717 32.6379 282.625 31.4326C285.534 30.2273 288.02 28.1863 289.769 25.5675C291.518 22.9488 292.451 19.87 292.451 16.7205C292.446 12.4986 290.768 8.45096 287.784 5.46562C284.8 2.48027 280.754 0.801001 276.534 0.796205Z" fill="#E57697"/>
<path d="M283.129 15.0711H278.183V10.123C278.183 9.68558 278.009 9.26605 277.7 8.95673C277.391 8.64741 276.971 8.47363 276.534 8.47363C276.097 8.47363 275.677 8.64741 275.368 8.95673C275.059 9.26605 274.885 9.68558 274.885 10.123V15.0711H269.939C269.502 15.0711 269.083 15.2449 268.774 15.5542C268.464 15.8636 268.291 16.2831 268.291 16.7205C268.291 17.158 268.464 17.5775 268.774 17.8868C269.083 18.1961 269.502 18.3699 269.939 18.3699H274.885V23.318C274.885 23.7555 275.059 24.175 275.368 24.4843C275.677 24.7936 276.097 24.9674 276.534 24.9674C276.971 24.9674 277.391 24.7936 277.7 24.4843C278.009 24.175 278.183 23.7555 278.183 23.318V18.3699H283.129C283.566 18.3699 283.985 18.1961 284.294 17.8868C284.604 17.5775 284.777 17.158 284.777 16.7205C284.777 16.2831 284.604 15.8636 284.294 15.5542C283.985 15.2449 283.566 15.0712 283.129 15.0712V15.0711Z" fill="#E57697"/>
</g>
<defs>
<clipPath id="clip0">
<rect width="362.479" height="240.059" fill="white"/>
</clipPath>
</defs>
</svg>
