<svg width="312" height="257" viewBox="0 0 312 257" fill="none" xmlns="http://www.w3.org/2000/svg">
<path d="M84.82 256V246.662H83.658V253.956L78.282 246.662H77.092V256H78.254V248.552L83.7 256H84.82ZM89.9161 256.168C91.9741 256.168 93.2621 254.572 93.2621 252.612C93.2621 250.652 91.9741 249.07 89.9161 249.07C87.8581 249.07 86.5701 250.652 86.5701 252.612C86.5701 254.572 87.8581 256.168 89.9161 256.168ZM89.9161 255.23C88.4741 255.23 87.6621 253.998 87.6621 252.612C87.6621 251.24 88.4741 250.008 89.9161 250.008C91.3581 250.008 92.1561 251.24 92.1561 252.612C92.1561 253.998 91.3581 255.23 89.9161 255.23ZM101.649 256.168C104.169 256.168 105.093 254.782 105.093 253.424C105.093 249.938 99.5632 251.142 99.5632 249.042C99.5632 248.16 100.361 247.558 101.481 247.558C102.503 247.558 103.483 247.908 104.183 248.678L104.883 247.824C104.099 246.998 102.993 246.522 101.565 246.522C99.7312 246.522 98.3592 247.572 98.3592 249.112C98.3592 252.444 103.889 251.114 103.889 253.522C103.889 254.236 103.357 255.132 101.691 255.132C100.375 255.132 99.3672 254.488 98.7512 253.802L98.0652 254.684C98.8352 255.552 100.025 256.168 101.649 256.168ZM109.838 256.168C110.944 256.168 111.854 255.804 112.526 255.132L112.022 254.446C111.49 254.992 110.706 255.3 109.936 255.3C108.48 255.3 107.584 254.236 107.5 252.962H112.974V252.696C112.974 250.666 111.77 249.07 109.726 249.07C107.794 249.07 106.394 250.652 106.394 252.612C106.394 254.726 107.836 256.168 109.838 256.168ZM111.938 252.192H107.5C107.556 251.156 108.27 249.938 109.712 249.938C111.252 249.938 111.924 251.184 111.938 252.192ZM119.953 256V251.352C119.953 249.714 118.763 249.07 117.335 249.07C116.229 249.07 115.361 249.434 114.633 250.19L115.123 250.918C115.725 250.274 116.383 249.98 117.195 249.98C118.175 249.98 118.903 250.498 118.903 251.408V252.626C118.357 251.996 117.587 251.702 116.663 251.702C115.515 251.702 114.297 252.416 114.297 253.928C114.297 255.398 115.515 256.168 116.663 256.168C117.573 256.168 118.343 255.846 118.903 255.23V256H119.953ZM117.041 255.412C116.061 255.412 115.375 254.796 115.375 253.942C115.375 253.074 116.061 252.458 117.041 252.458C117.783 252.458 118.497 252.738 118.903 253.298V254.572C118.497 255.132 117.783 255.412 117.041 255.412ZM123.108 256V251.212C123.416 250.666 124.298 250.134 124.942 250.134C125.11 250.134 125.236 250.148 125.362 250.176V249.098C124.438 249.098 123.654 249.616 123.108 250.33V249.238H122.058V256H123.108ZM129.661 256.168C130.893 256.168 131.621 255.664 132.139 254.992L131.439 254.348C130.991 254.95 130.417 255.23 129.717 255.23C128.275 255.23 127.379 254.11 127.379 252.612C127.379 251.114 128.275 250.008 129.717 250.008C130.417 250.008 130.991 250.274 131.439 250.89L132.139 250.246C131.621 249.574 130.893 249.07 129.661 249.07C127.645 249.07 126.287 250.61 126.287 252.612C126.287 254.628 127.645 256.168 129.661 256.168ZM139.239 256V251.226C139.239 249.756 138.497 249.07 137.083 249.07C136.061 249.07 135.137 249.658 134.661 250.218V246.662H133.611V256H134.661V251.058C135.067 250.512 135.851 250.008 136.663 250.008C137.573 250.008 138.189 250.358 138.189 251.548V256H139.239ZM151.763 256L149.243 252.192C150.517 252.08 151.665 251.156 151.665 249.476C151.665 247.754 150.447 246.662 148.739 246.662H144.987V256H146.149V252.29H148.011L150.391 256H151.763ZM148.599 251.268H146.149V247.698H148.599C149.705 247.698 150.461 248.426 150.461 249.476C150.461 250.526 149.705 251.268 148.599 251.268ZM156.09 256.168C157.196 256.168 158.106 255.804 158.778 255.132L158.274 254.446C157.742 254.992 156.958 255.3 156.188 255.3C154.732 255.3 153.836 254.236 153.752 252.962H159.226V252.696C159.226 250.666 158.022 249.07 155.978 249.07C154.046 249.07 152.646 250.652 152.646 252.612C152.646 254.726 154.088 256.168 156.09 256.168ZM158.19 252.192H153.752C153.808 251.156 154.522 249.938 155.964 249.938C157.504 249.938 158.176 251.184 158.19 252.192ZM163.069 256.168C164.819 256.168 165.729 255.258 165.729 254.124C165.729 251.492 161.543 252.472 161.543 250.988C161.543 250.386 162.117 249.924 163.041 249.924C163.909 249.924 164.651 250.288 165.057 250.778L165.547 250.05C165.001 249.504 164.189 249.07 163.041 249.07C161.431 249.07 160.521 249.966 160.521 251.016C160.521 253.522 164.707 252.514 164.707 254.152C164.707 254.824 164.147 255.314 163.111 255.314C162.187 255.314 161.333 254.866 160.885 254.348L160.339 255.104C161.025 255.832 161.963 256.168 163.069 256.168ZM173.049 256V249.238H171.999V254.208C171.607 254.754 170.823 255.23 169.997 255.23C169.087 255.23 168.485 254.88 168.485 253.69V249.238H167.435V254.012C167.435 255.482 168.177 256.168 169.591 256.168C170.599 256.168 171.481 255.636 171.999 255.048V256H173.049ZM176.196 256V246.662H175.146V256H176.196ZM179.998 256.168C180.614 256.168 180.992 255.986 181.258 255.734L180.95 254.95C180.81 255.104 180.53 255.23 180.236 255.23C179.774 255.23 179.55 254.866 179.55 254.362V250.162H180.922V249.238H179.55V247.39H178.5V249.238H177.38V250.162H178.5V254.586C178.5 255.594 179.004 256.168 179.998 256.168ZM184.547 256.168C186.297 256.168 187.207 255.258 187.207 254.124C187.207 251.492 183.021 252.472 183.021 250.988C183.021 250.386 183.595 249.924 184.519 249.924C185.387 249.924 186.129 250.288 186.535 250.778L187.025 250.05C186.479 249.504 185.667 249.07 184.519 249.07C182.909 249.07 181.999 249.966 181.999 251.016C181.999 253.522 186.185 252.514 186.185 254.152C186.185 254.824 185.625 255.314 184.589 255.314C183.665 255.314 182.811 254.866 182.363 254.348L181.817 255.104C182.503 255.832 183.441 256.168 184.547 256.168ZM193.727 256V251.744H198.585V250.708H193.727V247.698H198.683V246.662H192.565V256H193.727ZM203.174 256.168C205.232 256.168 206.52 254.572 206.52 252.612C206.52 250.652 205.232 249.07 203.174 249.07C201.116 249.07 199.828 250.652 199.828 252.612C199.828 254.572 201.116 256.168 203.174 256.168ZM203.174 255.23C201.732 255.23 200.92 253.998 200.92 252.612C200.92 251.24 201.732 250.008 203.174 250.008C204.616 250.008 205.414 251.24 205.414 252.612C205.414 253.998 204.616 255.23 203.174 255.23ZM213.846 256V249.238H212.796V254.208C212.404 254.754 211.62 255.23 210.794 255.23C209.884 255.23 209.282 254.88 209.282 253.69V249.238H208.232V254.012C208.232 255.482 208.974 256.168 210.388 256.168C211.396 256.168 212.278 255.636 212.796 255.048V256H213.846ZM221.557 256V251.254C221.557 249.784 220.815 249.07 219.401 249.07C218.393 249.07 217.469 249.658 216.993 250.218V249.238H215.943V256H216.993V251.058C217.385 250.512 218.169 250.008 218.995 250.008C219.905 250.008 220.507 250.386 220.507 251.576V256H221.557ZM229.604 256V246.662H228.554V250.26C228.008 249.518 227.182 249.07 226.272 249.07C224.494 249.07 223.262 250.47 223.262 252.626C223.262 254.824 224.508 256.168 226.272 256.168C227.224 256.168 228.05 255.678 228.554 254.992V256H229.604ZM226.524 255.23C225.166 255.23 224.354 254.124 224.354 252.626C224.354 251.128 225.166 250.008 226.524 250.008C227.364 250.008 228.176 250.512 228.554 251.1V254.166C228.176 254.754 227.364 255.23 226.524 255.23ZM232.7 253.382L232.924 246.662H231.608L231.832 253.382H232.7ZM232.266 256.14C232.686 256.14 233.036 255.776 233.036 255.37C233.036 254.95 232.686 254.6 232.266 254.6C231.846 254.6 231.496 254.95 231.496 255.37C231.496 255.776 231.846 256.14 232.266 256.14Z" fill="black"/>
<g clip-path="url(#clip0)">
<path d="M204.115 0L147.306 63.4055C150.36 65.7752 152.894 68.7485 154.75 72.14C156.605 75.5316 157.742 79.2688 158.09 83.119C158.438 86.9692 157.99 90.8498 156.773 94.5192C155.557 98.1886 153.597 101.568 151.018 104.447C148.438 107.327 145.293 109.644 141.779 111.255C138.265 112.866 134.456 113.736 130.591 113.811C126.726 113.886 122.887 113.165 119.313 111.692C115.738 110.219 112.506 108.025 109.816 105.249L30.6841 193.569C53.4992 211.3 81.5815 220.906 110.477 220.863C182.432 220.863 240.763 162.532 240.763 90.5771C240.806 56.7648 227.658 24.2692 204.115 0Z" fill="#EDEDED"/>
<path d="M131.008 104.104C140.395 104.104 148.005 96.4937 148.005 87.1062C148.005 77.7188 140.395 70.1088 131.008 70.1088C121.62 70.1088 114.01 77.7188 114.01 87.1062C114.01 96.4937 121.62 104.104 131.008 104.104Z" fill="#EDEDED"/>
<path d="M214.465 118.664H28.7542V235.681H214.465V118.664Z" fill="#3F3D56"/>
<path d="M232.713 60.6579C232.713 60.6579 220.743 60.1726 220.42 72.4659C220.096 84.7591 220.42 95.273 220.42 95.273H244.359V73.1129C244.359 73.1129 243.874 61.4667 232.713 60.6579Z" fill="#2F2E41"/>
<path d="M228.041 82.5664C228.041 82.5664 228.752 90.6202 226.383 91.3308C224.014 92.0414 227.33 102.227 227.33 102.227L236.805 104.359L242.253 93.4627L239.885 90.3833C239.885 90.3833 235.858 84.9351 237.753 81.1451C239.648 77.3551 228.041 82.5664 228.041 82.5664Z" fill="#FFB9B9"/>
<path opacity="0.1" d="M228.041 82.5664C228.041 82.5664 228.752 90.6202 226.383 91.3308C224.014 92.0414 227.33 102.227 227.33 102.227L236.805 104.359L242.253 93.4627L239.885 90.3833C239.885 90.3833 235.858 84.9351 237.753 81.1451C239.648 77.3551 228.041 82.5664 228.041 82.5664Z" fill="black"/>
<path d="M231.357 86.3564C236.459 86.3564 240.595 82.2203 240.595 77.1182C240.595 72.0161 236.459 67.88 231.357 67.88C226.255 67.88 222.119 72.0161 222.119 77.1182C222.119 82.2203 226.255 86.3564 231.357 86.3564Z" fill="#FFB9B9"/>
<path d="M195.352 108.86C195.352 108.86 189.667 113.123 191.325 116.44C192.983 119.756 197.957 131.126 197.957 131.126C197.957 131.126 198.905 139.89 202.932 139.417C206.959 138.943 202.932 130.179 202.932 130.179L197.957 116.677L199.616 114.071L195.352 108.86Z" fill="#FFB9B9"/>
<path d="M272.1 110.281C272.1 110.281 278.495 115.255 274.705 117.15C270.915 119.045 254.808 128.047 254.808 128.047C254.808 128.047 245.096 135.39 243.912 129.705C242.727 124.02 250.307 124.257 250.307 124.257C250.307 124.257 265.467 115.018 266.178 113.123C266.889 111.228 272.1 110.281 272.1 110.281Z" fill="#FFB9B9"/>
<path d="M215.723 142.733C215.723 142.733 212.644 159.551 214.302 169.026C215.278 174.924 215.117 180.954 213.828 186.792L223.066 187.739C223.066 187.739 228.988 152.682 232.305 152.919C235.621 153.156 242.727 188.213 242.727 188.213L252.676 186.792C252.676 186.792 249.597 171.158 251.018 166.421C252.439 161.683 251.492 144.628 247.938 142.733C244.385 140.838 215.723 142.733 215.723 142.733Z" fill="#575A89"/>
<path d="M224.014 186.792C224.014 186.792 213.355 183.239 212.407 185.844C211.459 188.45 211.696 217.586 211.933 219.481C212.17 221.376 212.881 220.428 212.17 221.376C211.459 222.323 211.46 220.192 211.696 222.797C211.933 225.403 212.17 225.877 212.17 225.877C212.17 225.877 207.906 235.825 215.486 235.588C223.066 235.352 219.513 228.245 219.513 228.245C219.513 228.245 220.698 226.113 219.987 224.929C219.276 223.745 219.04 221.85 219.987 220.902C220.935 219.955 219.04 218.06 218.803 217.349C218.566 216.638 217.855 216.875 219.75 214.506C221.645 212.138 220.698 210.953 220.461 210.243C220.224 209.532 222.119 205.268 222.119 205.268L224.014 186.792Z" fill="#2F2E41"/>
<path d="M242.017 186.792C242.017 186.792 252.676 183.239 253.624 185.844C254.571 188.45 254.334 217.586 254.097 219.481C253.86 221.376 253.15 220.428 253.86 221.376C254.571 222.323 254.571 220.192 254.334 222.797C254.097 225.403 253.86 225.877 253.86 225.877C253.86 225.877 258.124 235.825 250.544 235.588C242.964 235.352 246.517 228.245 246.517 228.245C246.517 228.245 245.333 226.113 246.044 224.929C246.754 223.745 246.991 221.85 246.044 220.902C245.096 219.955 246.991 218.06 247.228 217.349C247.465 216.638 248.175 216.875 246.28 214.506C244.385 212.138 245.333 210.953 245.57 210.243C245.807 209.532 243.912 205.268 243.912 205.268L242.017 186.792Z" fill="#2F2E41"/>
<path d="M231.831 98.9108C231.831 98.9108 230.173 93.9364 229.225 92.9889C228.278 92.0414 227.663 89.5895 227.663 89.5895C227.663 89.5895 222.356 91.5677 220.934 92.0414C219.513 92.5152 214.776 92.5152 214.776 93.2258V108.386C214.776 108.386 214.302 111.465 215.249 119.282C216.197 127.099 219.039 131.837 215.723 135.153C212.407 138.469 215.249 146.523 216.908 147.944C218.566 149.365 250.781 156.709 251.018 139.417C251.018 139.417 243.201 125.678 246.517 121.177C249.833 116.677 252.676 109.097 252.676 109.097V93.9364C252.676 93.9364 247.465 92.2783 245.806 92.0414C244.148 91.8046 240.121 87.3039 239.648 87.5408C239.174 87.7777 238.258 87.5318 238.258 87.5318L238.226 90.8571L231.831 98.9108Z" fill="#E57697"/>
<path d="M218.092 94.4102L214.776 93.2258C214.776 93.2258 210.749 95.3577 210.749 95.8315C210.749 96.3052 208.38 98.4371 207.196 99.3846C206.011 100.332 202.695 100.569 202.695 101.043C202.695 101.517 192.273 109.097 193.22 110.281C194.168 111.465 197.247 115.729 198.905 115.729C200.563 115.729 204.59 111.465 205.301 111.228C206.011 110.992 213.355 106.491 215.723 107.202C218.092 107.912 218.092 94.4102 218.092 94.4102Z" fill="#E57697"/>
<path d="M248.175 94.8839L252.676 93.9364C252.676 93.9364 261.204 100.332 261.44 100.569C261.677 100.806 274.942 109.333 274.232 110.992C273.521 112.65 265.941 115.018 264.046 114.308C262.151 113.597 254.097 107.675 251.018 108.386C247.938 109.097 248.175 94.8839 248.175 94.8839Z" fill="#E57697"/>
<path d="M241.188 74.1573C242.312 69.434 241.852 68.1794 241.852 68.1794L227.456 64.6208L222.442 69.4734V74.4878L222.948 76.0523C222.948 76.0523 225.03 74.4878 224.221 72.2232C224.221 72.2232 240.379 77.5541 241.188 74.1573Z" fill="#2F2E41"/>
<path d="M241.367 71.5134L240.003 72.9729C242.154 72.9989 239.289 90.3084 240.24 93.1074L243.793 93.1882V70.1315L241.367 71.5134Z" fill="#2F2E41"/>
<path d="M222.474 77.2367C222.867 77.2367 223.185 76.5473 223.185 75.697C223.185 74.8466 222.867 74.1573 222.474 74.1573C222.082 74.1573 221.764 74.8466 221.764 75.697C221.764 76.5473 222.082 77.2367 222.474 77.2367Z" fill="#FFB9B9"/>
<path d="M240.714 77.2367C241.106 77.2367 241.424 76.5473 241.424 75.697C241.424 74.8466 241.106 74.1573 240.714 74.1573C240.321 74.1573 240.003 74.8466 240.003 75.697C240.003 76.5473 240.321 77.2367 240.714 77.2367Z" fill="#FFB9B9"/>
<path d="M112.14 209.036L111.714 208.611L130.006 190.32L113.821 174.135L114.246 173.709L130.857 190.32L112.14 209.036Z" fill="#2F2E41"/>
<path d="M129.378 196.788C132.868 196.788 135.696 193.96 135.696 190.47C135.696 186.98 132.868 184.152 129.378 184.152C125.888 184.152 123.06 186.98 123.06 190.47C123.06 193.96 125.888 196.788 129.378 196.788Z" fill="#E57697"/>
<path d="M112.83 215.142C116.319 215.142 119.148 212.313 119.148 208.824C119.148 205.334 116.319 202.505 112.83 202.505C109.34 202.505 106.511 205.334 106.511 208.824C106.511 212.313 109.34 215.142 112.83 215.142Z" fill="#E57697"/>
<path d="M113.343 174.135L112.918 173.709L131.209 155.418L115.024 139.233L115.449 138.807L132.06 155.418L113.343 174.135Z" fill="#2F2E41"/>
<path d="M115.237 145.338C118.726 145.338 121.555 142.509 121.555 139.02C121.555 135.53 118.726 132.701 115.237 132.701C111.747 132.701 108.918 135.53 108.918 139.02C108.918 142.509 111.747 145.338 115.237 145.338Z" fill="#E57697"/>
<path d="M130.581 161.887C134.071 161.887 136.9 159.058 136.9 155.568C136.9 152.079 134.071 149.25 130.581 149.25C127.092 149.25 124.263 152.079 124.263 155.568C124.263 159.058 127.092 161.887 130.581 161.887Z" fill="#E57697"/>
<path d="M114.033 180.24C117.523 180.24 120.352 177.411 120.352 173.922C120.352 170.432 117.523 167.603 114.033 167.603C110.543 167.603 107.715 170.432 107.715 173.922C107.715 177.411 110.543 180.24 114.033 180.24Z" fill="#E57697"/>
<path opacity="0.3" d="M68.2995 126.082H37.0081V131.799H68.2995V126.082Z" fill="#E57697"/>
<path opacity="0.3" d="M193.164 190.771H161.873V192.275H193.164V190.771Z" fill="#E57697"/>
<path opacity="0.3" d="M193.164 195.284H161.873V196.788H193.164V195.284Z" fill="#E57697"/>
<path opacity="0.3" d="M193.164 199.797H161.873V201.302H193.164V199.797Z" fill="#E57697"/>
<path opacity="0.3" d="M193.164 204.31H161.873V205.815H193.164V204.31Z" fill="#E57697"/>
<path opacity="0.3" d="M193.164 208.824H161.873V210.328H193.164V208.824Z" fill="#E57697"/>
<path opacity="0.3" d="M193.164 213.337H161.873V214.841H193.164V213.337Z" fill="#E57697"/>
<path d="M20.0862 223.547C22.1665 231.237 29.2919 236 29.2919 236C29.2919 236 33.0445 228.295 30.9642 220.605C28.884 212.915 21.7586 208.152 21.7586 208.152C21.7586 208.152 18.0059 215.858 20.0862 223.547Z" fill="#3F3D56"/>
<path d="M23.143 221.895C28.8513 227.452 29.5485 235.994 29.5485 235.994C29.5485 235.994 20.9908 235.526 15.2825 229.97C9.57418 224.413 8.87695 215.871 8.87695 215.871C8.87695 215.871 17.4347 216.338 23.143 221.895Z" fill="#E57697"/>
<path d="M311.711 235.301H0V235.903H311.711V235.301Z" fill="#3F3D56"/>
<path d="M294.41 216.79C294.408 215.457 294.004 214.155 293.251 213.054C292.498 211.954 291.431 211.106 290.188 210.622C291.627 210.063 292.826 209.018 293.576 207.669C294.326 206.319 294.581 204.75 294.296 203.232C294.012 201.715 293.206 200.345 292.018 199.359C290.83 198.373 289.334 197.833 287.79 197.833C286.247 197.833 284.751 198.373 283.563 199.359C282.375 200.345 281.569 201.715 281.285 203.232C281 204.75 281.255 206.319 282.005 207.669C282.755 209.018 283.954 210.063 285.393 210.622C284.149 211.105 283.081 211.952 282.328 213.053C281.574 214.154 281.171 215.456 281.171 216.79C281.171 218.124 281.574 219.427 282.328 220.527C283.081 221.628 284.149 222.475 285.393 222.958C283.954 223.517 282.755 224.562 282.005 225.911C281.255 227.261 281 228.83 281.285 230.348C281.569 231.865 282.375 233.235 283.563 234.221C284.751 235.207 286.247 235.747 287.79 235.747C289.334 235.747 290.83 235.207 292.018 234.221C293.206 233.235 294.012 231.865 294.296 230.348C294.581 228.83 294.326 227.261 293.576 225.911C292.826 224.562 291.627 223.517 290.188 222.958C291.431 222.474 292.498 221.626 293.251 220.526C294.004 219.425 294.408 218.123 294.41 216.79ZM281.773 204.454C281.772 203.322 282.09 202.212 282.692 201.253C283.293 200.294 284.152 199.524 285.172 199.031C286.191 198.538 287.329 198.343 288.454 198.468C289.579 198.593 290.646 199.033 291.533 199.737C292.419 200.441 293.089 201.381 293.466 202.448C293.842 203.516 293.91 204.668 293.661 205.773C293.412 206.877 292.856 207.889 292.058 208.692C291.26 209.494 290.251 210.056 289.148 210.311C288.253 210.124 287.328 210.124 286.433 210.311C285.109 210.004 283.929 209.257 283.083 208.194C282.237 207.131 281.775 205.813 281.773 204.454ZM293.808 229.126C293.809 230.258 293.491 231.368 292.889 232.327C292.288 233.286 291.428 234.056 290.409 234.549C289.39 235.042 288.252 235.237 287.127 235.112C286.002 234.987 284.935 234.548 284.048 233.843C283.162 233.139 282.492 232.199 282.115 231.132C281.739 230.064 281.671 228.912 281.92 227.807C282.169 226.703 282.725 225.691 283.523 224.888C284.321 224.086 285.33 223.524 286.433 223.269C287.328 223.456 288.253 223.456 289.148 223.269C290.472 223.576 291.652 224.323 292.498 225.386C293.344 226.449 293.806 227.767 293.808 229.126ZM289.148 222.647C288.253 222.46 287.328 222.46 286.433 222.647C285.108 222.342 283.926 221.596 283.08 220.532C282.234 219.469 281.773 218.149 281.773 216.79C281.773 215.431 282.234 214.111 283.08 213.048C283.926 211.984 285.108 211.238 286.433 210.933C287.328 211.12 288.253 211.12 289.148 210.933C290.473 211.238 291.655 211.984 292.501 213.048C293.347 214.111 293.808 215.431 293.808 216.79C293.808 218.149 293.347 219.469 292.501 220.532C291.655 221.596 290.473 222.342 289.148 222.647Z" fill="#3F3D56"/>
<path d="M32.0437 107.27C30.7345 107.27 29.4547 106.882 28.3661 106.155C27.2776 105.427 26.4292 104.393 25.9282 103.184C25.4272 101.974 25.2961 100.643 25.5515 99.3594C25.8069 98.0754 26.4373 96.8959 27.3631 95.9702C28.2888 95.0445 29.4683 94.414 30.7523 94.1586C32.0363 93.9032 33.3672 94.0343 34.5768 94.5353C35.7863 95.0363 36.8201 95.8847 37.5474 96.9733C38.2748 98.0618 38.663 99.3416 38.663 100.651C38.661 102.406 37.963 104.088 36.722 105.329C35.4811 106.57 33.7986 107.268 32.0437 107.27ZM32.0437 94.6332C30.8535 94.6332 29.6901 94.9861 28.7005 95.6473C27.7109 96.3086 26.9396 97.2484 26.4841 98.3479C26.0287 99.4475 25.9095 100.657 26.1417 101.825C26.3739 102.992 26.947 104.064 27.7886 104.906C28.6302 105.747 29.7024 106.321 30.8697 106.553C32.037 106.785 33.2469 106.666 34.3465 106.21C35.4461 105.755 36.3859 104.984 37.0471 103.994C37.7083 103.004 38.0612 101.841 38.0612 100.651C38.0595 99.0554 37.4249 97.5258 36.2968 96.3977C35.1686 95.2695 33.6391 94.635 32.0437 94.6332Z" fill="#3F3D56"/>
<path d="M172.554 41.3776C171.245 41.3776 169.965 40.9894 168.876 40.2621C167.788 39.5347 166.939 38.5009 166.438 37.2914C165.937 36.0819 165.806 34.751 166.062 33.4669C166.317 32.1829 166.948 31.0035 167.873 30.0777C168.799 29.152 169.979 28.5216 171.263 28.2662C172.547 28.0107 173.877 28.1418 175.087 28.6428C176.297 29.1438 177.33 29.9923 178.058 31.0808C178.785 32.1693 179.173 33.4491 179.173 34.7583C179.171 36.5132 178.473 38.1958 177.232 39.4367C175.991 40.6776 174.309 41.3757 172.554 41.3776ZM172.554 28.7407C171.364 28.7407 170.2 29.0936 169.211 29.7549C168.221 30.4161 167.45 31.3559 166.994 32.4555C166.539 33.555 166.42 34.765 166.652 35.9323C166.884 37.0996 167.457 38.1718 168.299 39.0134C169.14 39.8549 170.213 40.4281 171.38 40.6603C172.547 40.8924 173.757 40.7733 174.857 40.3178C175.956 39.8624 176.896 39.0911 177.557 38.1015C178.219 37.1119 178.572 35.9485 178.572 34.7583C178.57 33.1629 177.935 31.6333 176.807 30.5052C175.679 29.3771 174.149 28.7425 172.554 28.7407Z" fill="#3F3D56"/>
</g>
<defs>
<clipPath id="clip0">
<rect width="311.711" height="236" fill="white"/>
</clipPath>
</defs>
</svg>
