<svg xmlns="http://www.w3.org/2000/svg" viewBox="0 0 390 844" width="390" height="844">
  <defs>
    <linearGradient id="g5" x1="0" y1="0" x2="1" y2="1">
      <stop offset="0%" stop-color="#1a1a2e"/>
      <stop offset="100%" stop-color="#181818"/>
    </linearGradient>
  </defs>
  <rect width="390" height="844" fill="url(#g5)"/>
  <!-- Profile header -->
  <circle cx="195" cy="120" r="56" fill="#E5769730"/>
  <rect x="145" y="188" width="100" height="20" rx="5" fill="#444"/>
  <rect x="165" y="216" width="60" height="14" rx="4" fill="#333"/>
  <!-- Stats row -->
  <rect x="60" y="250" width="80" height="56" rx="12" fill="#2a2a2a"/>
  <rect x="155" y="250" width="80" height="56" rx="12" fill="#2a2a2a"/>
  <rect x="250" y="250" width="80" height="56" rx="12" fill="#2a2a2a"/>
  <rect x="74" y="263" width="52" height="16" rx="4" fill="#E57697"/>
  <rect x="169" y="263" width="52" height="16" rx="4" fill="#E57697"/>
  <rect x="264" y="263" width="52" height="16" rx="4" fill="#E57697"/>
  <!-- Follow button -->
  <rect x="24" y="326" width="342" height="48" rx="24" fill="#E57697"/>
  <rect x="130" y="343" width="130" height="14" rx="4" fill="rgba(255,255,255,0.8)"/>
  <!-- Upload grid -->
  <rect x="12" y="392" width="118" height="128" rx="10" fill="#2a2a2a"/>
  <rect x="136" y="392" width="118" height="128" rx="10" fill="#2a2a2a"/>
  <rect x="260" y="392" width="118" height="128" rx="10" fill="#E5769715"/>
  <rect x="12" y="528" width="118" height="128" rx="10" fill="#2a2a2a"/>
  <rect x="136" y="528" width="118" height="128" rx="10" fill="#2a2a2a"/>
  <rect x="260" y="528" width="118" height="128" rx="10" fill="#2a2a2a"/>
</svg>
